<svg width="47" height="47" viewBox="0 0 47 47" fill="none" xmlns="http://www.w3.org/2000/svg">
<path d="M18.8976 19.6901V19.8401H19.0476H21.1874V30.4033V30.5533H21.3374H24.0066H24.1566V30.4033V17.021V16.871H24.0066H19.0476H18.8976V17.021V19.6901ZM16.6624 20.5083V20.3583H16.5124H13.8433H13.6933V20.5083V22.6211H11.5804H11.4304V22.7711V25.4402V25.5902H11.5804H13.6933V27.703V27.853H13.8433H16.5124H16.6624V27.703V25.5902H18.7752H18.9252V25.4402V22.7711V22.6211H18.7752H16.6624V20.5083ZM23.5 5.98881C13.8442 5.98881 5.98883 13.8441 5.98883 23.5C5.98883 33.1558 13.8442 41.0112 23.5 41.0112C33.156 41.0112 41.0113 33.1559 41.0113 23.5C41.0113 13.8442 33.1559 5.98881 23.5 5.98881ZM23.5 38.0421C15.4816 38.0421 8.95794 31.5184 8.95794 23.5C8.95794 15.4816 15.4816 8.95791 23.5 8.95791C31.5186 8.95791 38.0422 15.4816 38.0422 23.5C38.0422 31.5184 31.5185 38.0421 23.5 38.0421ZM39.516 7.48402C35.2382 3.20625 29.5499 0.85 23.5 0.85C17.4502 0.85 11.7618 3.20625 7.48414 7.48403C3.20626 11.7618 0.85 17.4503 0.85 23.5C0.85 29.5497 3.20626 35.2382 7.48405 39.516C11.7618 43.7938 17.4502 46.15 23.5 46.15C29.5498 46.15 35.2382 43.7938 39.516 39.516C43.7938 35.2381 46.15 29.5497 46.15 23.5C46.1501 17.4503 43.7939 11.7618 39.516 7.48402ZM23.5 43.1809C12.6481 43.1809 3.81911 34.352 3.81911 23.5C3.81911 12.6481 12.6481 3.8191 23.5 3.8191C34.352 3.8191 43.1811 12.648 43.1811 23.5C43.1811 34.352 34.352 43.1809 23.5 43.1809ZM33.7258 23.0643C34.104 22.4798 34.3244 21.7839 34.3244 21.0372C34.3244 18.9731 32.6454 17.294 30.5813 17.294C28.5171 17.294 26.838 18.9731 26.838 21.0372C26.838 21.7838 27.0585 22.4798 27.4366 23.0643C26.5522 23.8999 25.9986 25.0832 25.9986 26.3938C25.9986 28.9207 28.0542 30.9764 30.5812 30.9764C33.1081 30.9764 35.1638 28.9207 35.1638 26.3938C35.1639 25.0832 34.6103 23.8999 33.7258 23.0643ZM29.8072 21.0373C29.8072 20.6106 30.1546 20.2632 30.5814 20.2632C31.0081 20.2632 31.3554 20.6106 31.3554 21.0373C31.3554 21.464 31.0081 21.8113 30.5814 21.8113C30.1546 21.8113 29.8072 21.4639 29.8072 21.0373ZM30.5814 28.0074C29.6918 28.0074 28.9679 27.2834 28.9679 26.3939C28.9679 25.5044 29.6918 24.7804 30.5814 24.7804C31.4709 24.7804 32.1948 25.5044 32.1948 26.3939C32.1948 27.2834 31.4709 28.0074 30.5814 28.0074Z" fill="#282735" stroke="#2C2B39" stroke-width="0.3"/>
</svg>
