<svg width="121" height="118" viewBox="0 0 121 118" fill="none" xmlns="http://www.w3.org/2000/svg">
<path d="M17.996 74.0126C12.8846 79.2745 8.56422 102.514 7.04297 113.477C11.3025 113.059 20.5517 112.474 23.4725 113.477C27.1235 114.73 25.298 115.356 25.298 111.597C25.298 107.839 20.7343 82.4692 17.996 74.0126Z" fill="#EEEEEE"/>
<path fill-rule="evenodd" clip-rule="evenodd" d="M37.4681 65.556C35.6425 65.556 20.43 72.1333 20.1258 72.4465C22.5598 76.205 26.6164 93.0139 28.3405 100.948C28.2391 99.3824 27.9146 95.2481 27.4278 91.239C30.592 96.7515 30.9774 107.943 30.7745 112.85C34.527 113.372 45.8045 114.416 60.8954 114.416C75.9243 114.416 86.1653 113.381 89.4546 112.857C89.4648 112.879 89.4785 112.876 89.4949 112.85L89.4546 112.857C89.3396 112.601 89.6919 108.981 91.929 95.6239C94.363 81.0911 99.0281 76.4139 101.056 75.8919C99.5352 81.8428 96.1885 95.8119 94.9715 104.081C93.7545 112.349 95.0729 113.79 95.8842 113.477C98.2168 112.85 104.707 112.036 112.01 113.79C111.563 104.757 109.591 95.7244 107.37 88.3743C106.522 88.7653 105.564 89.6716 104.708 90.4809C103.266 91.8436 102.116 92.9312 102.273 90.8204C102.422 88.8291 103.261 83.8487 104.122 79.0855C102.907 76.0875 101.809 73.8792 101.056 72.7598C97.4846 69.9479 90.8657 67.8829 86.31 66.4616C84.2688 65.8248 82.6418 65.3172 81.8887 64.9296C81.1067 64.5271 80.2306 65.3207 78.8365 66.5834C75.8912 69.251 70.6342 74.0126 59.0699 74.0126C46.2335 74.0126 41.5137 69.2126 39.1859 66.8452C38.4239 66.0703 37.9182 65.556 37.4681 65.556Z" fill="#EEEEEE"/>
<mask id="mask0_243_4508" style="mask-type:alpha" maskUnits="userSpaceOnUse" x="0" y="0" width="118" height="114">
<rect x="0.875" y="0.0449219" width="116.192" height="113.107" fill="#C4C4C4"/>
</mask>
<g mask="url(#mask0_243_4508)">
<path d="M79.0992 62.7279C76.3953 61.3135 72.6687 59.6415 72.3024 59.015C71.3079 57.314 70.9443 53.7914 70.883 50.795M38.9531 62.7279C41.6439 61.2875 45.6596 59.4289 45.9393 59.015C47.1058 57.289 47.3298 53.3045 47.2643 50.1621" stroke="black"/>
<path d="M45.5646 46.7903C45.4755 46.102 45.3282 44.0917 45.2557 43.0652L45.5646 46.7903ZM45.5646 46.7903C45.9251 49.5888 52.0485 57.4437 55.4954 58.1405L45.5646 46.7903ZM74.7458 32.4684L74.2461 32.4498L74.204 33.5842L75.0694 32.8495C75.8325 32.2017 76.3256 31.9487 76.6191 31.888C76.7532 31.8604 76.8174 31.8787 76.8444 31.8905C76.8713 31.9022 76.9101 31.9286 76.9555 32.0038C77.0607 32.1776 77.131 32.4923 77.158 32.9372C77.1817 33.3267 77.1698 33.7464 77.1584 34.1474C77.1572 34.1882 77.1561 34.2287 77.1549 34.269L77.1549 34.2702C77.0964 36.6064 76.6457 38.7912 75.9723 40.1761C75.889 40.3473 75.8058 40.5398 75.7266 40.7232C75.6883 40.812 75.6508 40.8987 75.6147 40.9798C75.4971 41.2442 75.3797 41.4835 75.2432 41.6891C74.9821 42.0824 74.6748 42.3236 74.1745 42.343L74.1744 42.343C74.0458 42.3481 73.9292 42.3009 73.8317 42.2362C73.7843 42.2046 73.7471 42.1726 73.7231 42.1497C73.7113 42.1385 73.7032 42.1301 73.6994 42.1258C73.6988 42.1252 73.6983 42.1246 73.6979 42.1242L72.9018 41.163L72.8172 42.4134L73.3161 42.4471L72.8172 42.4134L72.8172 42.4135L72.8172 42.414L72.8171 42.4158L72.8166 42.423L72.8146 42.4516L72.8071 42.5609C72.8006 42.6556 72.7912 42.792 72.7795 42.9586C72.756 43.2919 72.7235 43.746 72.6873 44.2292C72.6142 45.2028 72.5275 46.2733 72.469 46.727C72.3905 47.3356 71.977 48.2884 71.2869 49.4301C70.6081 50.5531 69.6976 51.8012 68.6903 52.9849C67.6827 54.169 66.5877 55.2775 65.5435 56.1266C64.4844 56.9878 63.5327 57.5361 62.8072 57.6782C62.61 57.7167 62.1318 57.7515 61.4649 57.7745C60.8142 57.7969 60.023 57.8072 59.2277 57.8049C58.4323 57.8027 57.6368 57.788 56.9773 57.7609C56.303 57.7333 55.8104 57.6939 55.5945 57.6504C54.8576 57.5014 53.9073 56.9462 52.8584 56.0809C51.8238 55.2274 50.7456 54.1164 49.7562 52.9328C48.7673 51.7499 47.8765 50.5055 47.2134 49.3908C46.539 48.2571 46.1366 47.317 46.0605 46.7265L46.0604 46.7262C46.0017 46.2727 45.9148 45.2023 45.8417 44.2285C45.8054 43.7453 45.7729 43.2913 45.7494 42.958C45.7377 42.7914 45.7282 42.655 45.7217 42.5603L45.7142 42.4509L45.7123 42.4224L45.7118 42.4152L45.7117 42.4133L45.7117 42.4129L45.7116 42.4128L45.2128 42.4465L45.7116 42.4128L45.627 41.1607L44.8307 42.1239C44.8303 42.1243 44.8299 42.1249 44.8293 42.1255C44.8254 42.1297 44.8174 42.1381 44.8057 42.1493C44.7817 42.1721 44.7447 42.2041 44.6973 42.2356C44.6 42.3002 44.4834 42.3474 44.3544 42.3424L44.3543 42.3424C43.8434 42.3225 43.4894 42.0695 43.1855 41.6647C42.9312 41.3261 42.7454 40.9301 42.5522 40.5181C42.4989 40.4046 42.4451 40.2899 42.3891 40.1748C41.7209 38.8007 41.5249 37.1236 41.3164 34.7392L41.3164 34.7389C41.2786 34.3094 41.2457 33.8064 41.2621 33.3326C41.279 32.845 41.3469 32.4516 41.4694 32.2053C41.5272 32.0893 41.5841 32.0324 41.6284 32.0046C41.6663 31.9808 41.727 31.9572 41.8424 31.9688C42.1087 31.9956 42.5863 32.2031 43.3471 32.8494L44.0261 32.1166C44.1244 32.2579 44.1693 32.4293 44.1697 32.4345L44.17 32.4394L44.1694 32.4256L44.1668 32.369L44.1571 32.1498C44.1487 31.9591 44.137 31.6829 44.1232 31.341C44.0955 30.6571 44.0596 29.7109 44.0263 28.6615C43.9595 26.5584 43.9039 24.0549 43.9455 22.4137L43.9455 22.4137C43.9894 20.6743 44.2746 19.2606 44.8589 17.9972C45.4433 16.7335 46.3411 15.5894 47.6533 14.4092C49.5897 12.6691 51.5081 11.4606 54.1105 10.6547C54.5884 10.507 56.7592 10.0877 58.9957 10.0821L58.9958 10.0821C60.1899 10.079 61.4047 10.1814 62.3927 10.307C63.3927 10.434 64.1244 10.5801 64.3647 10.6546L64.3648 10.6546C69.3512 12.1985 71.807 14.3 73.0477 16.38C74.2959 18.4726 74.3669 20.6219 74.4121 22.4137L74.4121 22.4138C74.4541 24.0568 74.4129 26.5621 74.3608 28.6652C74.3348 29.7149 74.3061 30.6613 74.2839 31.3452C74.2728 31.6872 74.2634 31.9635 74.2567 32.1542L74.2489 32.3737L74.2468 32.4306L74.2463 32.445L74.2462 32.4487L74.2461 32.4495L74.2461 32.4498L74.7458 32.4684Z" stroke="black"/>
<path d="M62.2393 36.0762C61.9954 36.2012 61.5075 36.6386 61.5075 37.3886C61.5075 38.326 61.9257 41.4195 62.2393 41.7945C62.5529 42.1695 63.2848 42.4507 63.2848 43.2944C63.2848 43.9694 63.006 44.2631 62.8666 44.3256M57.221 42.0757C57.0119 42.1695 56.5938 42.507 56.5938 43.1069C56.5938 43.7069 57.0119 44.1693 57.221 44.3256M58.2665 43.9506C57.918 43.7944 57.3256 43.4444 57.7438 43.2944C58.2665 43.1069 59.2074 43.9506 59.1029 44.3256M61.5455 43.9506C61.894 43.7944 62.4864 43.4444 62.0682 43.2944C61.5455 43.1069 60.6046 43.9506 60.7091 44.3256" stroke="black" stroke-width="0.5"/>
<path fill-rule="evenodd" clip-rule="evenodd" d="M43.7507 37.7709C43.831 37.7652 43.1312 35.204 42.7173 34.1871C42.2696 33.0859 41.8143 32.8429 41.5378 32.8581C41.0111 32.8891 40.8242 35.3426 40.8242 35.3426C40.8242 35.3426 41.2111 32.7037 42.3844 34.8231C42.7136 35.4243 43.6573 37.7772 43.7507 37.7709Z" fill="black"/>
<path fill-rule="evenodd" clip-rule="evenodd" d="M41.9 35.278C41.932 35.104 42.1144 34.0953 42.2561 34.0889C42.4229 34.0813 42.4286 34.8097 42.3903 34.9268C42.2678 35.2889 42.1659 35.6579 42.085 36.0317C42.0041 36.431 42.0009 36.8183 42.0085 37.2392C42.0274 37.6251 42.079 38.0088 42.1627 38.3859C41.8843 38.1131 41.8153 37.0215 41.8078 36.6139C41.794 35.9052 41.826 35.6786 41.9 35.278Z" fill="black"/>
<path fill-rule="evenodd" clip-rule="evenodd" d="M44.0062 39.8291C43.983 39.7658 43.6111 38.9171 43.5816 38.8507C43.3089 38.2254 43.8895 39.0298 43.9422 39.1038C44.2244 39.5038 44.4301 39.7291 44.6282 40.0702C44.7969 40.3613 44.7148 40.8138 44.3235 40.8587C43.9999 40.8955 43.5829 40.5765 43.4456 40.1164C43.428 40.0544 44.2978 40.636 44.0062 39.8291Z" fill="black"/>
<path fill-rule="evenodd" clip-rule="evenodd" d="M74.7368 37.7699C74.6566 37.7648 75.3564 35.2031 75.7696 34.1861C76.2173 33.0849 76.6726 32.8419 76.9497 32.8571C77.4765 32.8875 77.6633 35.3417 77.6633 35.3417C77.6633 35.3417 77.2765 32.7027 76.1038 34.8221C75.7715 35.4233 74.8296 37.7762 74.7368 37.7699Z" fill="black"/>
<path fill-rule="evenodd" clip-rule="evenodd" d="M76.5879 35.278C76.5559 35.104 76.3735 34.0946 76.2318 34.0889C76.0649 34.0813 76.0593 34.8097 76.0975 34.9268C76.2205 35.2883 76.3228 35.6566 76.4042 36.0298C76.4851 36.4298 76.4882 36.8165 76.4807 37.2373C76.4617 37.6233 76.4101 38.0069 76.3264 38.384C76.6048 38.1113 76.6745 37.0196 76.6814 36.6121C76.6939 35.9052 76.6619 35.6786 76.5879 35.278Z" fill="black"/>
<path fill-rule="evenodd" clip-rule="evenodd" d="M74.482 39.8281C74.5052 39.7648 74.8777 38.9161 74.9065 38.8497C75.1787 38.2245 74.5986 39.0288 74.5459 39.1028C74.2631 39.5028 74.0575 39.7281 73.8599 40.0692C73.6919 40.3603 73.774 40.8128 74.1647 40.8577C74.4889 40.8944 74.9053 40.5754 75.0426 40.1154C75.0608 40.0533 74.1935 40.6349 74.482 39.8281Z" fill="black"/>
<path d="M62.0202 53.4583C62.3644 53.7526 60.882 53.4179 59.4786 53.4179C58.0753 53.4179 56.7196 53.6463 56.9372 53.4583C57.2087 53.2236 58.0746 52.8066 59.4786 52.8066C60.8826 52.8066 61.7468 53.2255 62.0202 53.4583Z" fill="black"/>
<path d="M64.4518 50.2078C63.8248 50.1629 62.4133 49.5117 61.4012 49.5117C60.4575 49.5117 59.547 49.8148 59.4052 49.8914C59.2641 49.8117 58.2709 49.5117 57.3265 49.5117C56.3138 49.5117 54.9857 50.1635 54.3586 50.2078C53.7316 50.2521 53.5391 50.0281 53.5391 50.0281C53.5391 50.0281 53.5579 50.3224 53.6839 50.4078C54.2702 50.8185 55.3237 50.354 56.5766 50.3989C57.6858 50.4388 58.3863 50.7078 59.372 50.7609C59.3941 50.7625 59.4164 50.7625 59.4385 50.7609C60.4249 50.7084 61.1246 50.4388 62.2339 50.3989C63.488 50.354 64.5403 50.8191 65.1272 50.4078C65.2526 50.3198 65.2714 50.0281 65.2714 50.0281C65.2714 50.0281 65.0789 50.2509 64.4518 50.2078Z" fill="#5B5B5B"/>
<path d="M64.6067 50.4316C64.0041 50.4278 63.1763 50.0766 62.2351 50.1107C61.1258 50.1506 60.426 50.4196 59.4396 50.4728C59.4175 50.4746 59.3953 50.4746 59.3732 50.4728C58.3874 50.4196 57.687 50.1506 56.5777 50.1107C55.6415 50.0772 54.8169 50.4272 54.2155 50.431C54.108 50.4366 54.0002 50.4366 53.8926 50.431C53.7458 50.4158 53.6449 50.3816 53.6844 50.4076C54.2851 50.7974 55.3242 50.3538 56.5771 50.3987C57.6863 50.4386 58.3868 50.7076 59.3725 50.7607C59.3947 50.7623 59.4169 50.7623 59.439 50.7607C60.4254 50.7082 61.1252 50.4386 62.2345 50.3987C63.4886 50.3538 64.5352 50.8101 65.1278 50.4076C65.1591 50.386 65.0563 50.4234 64.9233 50.4354C64.8178 50.4399 64.7121 50.4386 64.6067 50.4316Z" fill="black"/>
<path fill-rule="evenodd" clip-rule="evenodd" d="M53.5912 35.9416C53.5912 36.5839 53.0425 37.1041 52.3659 37.1041C51.6893 37.1041 51.1406 36.5839 51.1406 35.9416C51.1406 35.2993 51.6893 34.9873 52.3659 34.9873C53.0425 34.9873 53.5912 35.2993 53.5912 35.9416Z" fill="black"/>
<path fill-rule="evenodd" clip-rule="evenodd" d="M54.8385 35.9161C53.6006 34.8169 52.4631 34.7384 51.1757 35.1618C50.3134 35.444 49.581 36.031 49.1133 36.8147C49.1898 36.8432 52.5923 34.217 55.4875 36.7514C55.5264 36.7096 55.0912 36.1414 54.8385 35.9161Z" fill="black"/>
<path fill-rule="evenodd" clip-rule="evenodd" d="M53.5711 34.5773C52.7127 34.147 51.0628 34.1565 49.7867 35.1797C49.5253 35.3892 49.0757 35.9188 49.1158 35.9606C52.4173 33.0112 54.9846 35.834 55.0636 35.8056C55.0266 35.7581 54.7833 35.1867 53.5711 34.5773Z" fill="black"/>
<path fill-rule="evenodd" clip-rule="evenodd" d="M67.6263 35.9416C67.6263 36.5839 67.0776 37.1041 66.401 37.1041C65.7244 37.1041 65.1758 36.5839 65.1758 35.9416C65.1758 35.2993 65.7244 34.9873 66.401 34.9873C67.0776 34.9873 67.6263 35.2999 67.6263 35.9416Z" fill="black"/>
<path fill-rule="evenodd" clip-rule="evenodd" d="M67.5766 35.1613C66.2893 34.7386 65.1518 34.817 63.9139 35.9163C63.6631 36.141 63.2242 36.7099 63.2643 36.7542C66.1601 34.2165 69.5626 36.8428 69.6391 36.8175C69.1719 36.0325 68.4395 35.4444 67.5766 35.1613Z" fill="black"/>
<path fill-rule="evenodd" clip-rule="evenodd" d="M65.1838 34.5773C66.0423 34.147 67.6921 34.1565 68.9681 35.1797C69.2296 35.3892 69.6786 35.9188 69.6391 35.9606C66.3376 33.0112 63.7704 35.834 63.6914 35.8056C63.7278 35.7581 63.9723 35.1867 65.1838 34.5773Z" fill="black"/>
<path fill-rule="evenodd" clip-rule="evenodd" d="M50.0435 31.8682C49.1355 31.9024 47.0305 34.6402 47.9642 34.2921C48.733 34.0073 49.9432 33.3377 50.305 33.3744C53.5776 33.6814 56.8007 34.3737 56.8039 34.3414C56.8603 33.7662 56.4408 33.1852 56.1436 32.739C55.8752 32.3315 51.6381 31.8068 50.0435 31.8682Z" fill="black"/>
<path fill-rule="evenodd" clip-rule="evenodd" d="M68.7785 31.8673C67.1927 31.9053 62.8954 32.3312 62.6258 32.7356C62.3292 33.1823 61.9097 33.7627 61.9661 34.3379C61.9699 34.3702 65.2444 33.6779 68.5171 33.3709C68.8789 33.3368 69.8652 33.9462 70.7544 34.2911C71.7571 34.6796 69.6872 31.8452 68.7785 31.8673Z" fill="black"/>
<path d="M76.2403 19.5087C76.303 14.8016 72.5851 11.5981 72.5851 11.5981L72.5098 14.8782C72.434 14.875 70.4405 9.24584 68.6803 8.20734C65.498 6.32906 63.132 4.65075 63.132 4.65075L65.5557 8.3105L60.3234 3.07812C60.3623 4.56405 60.4733 8.13583 60.4381 7.09353C60.1986 5.82784 59.7409 4.49443 59.3571 3.1104C58.2911 6.60498 57.8772 7.77637 57.8772 7.48273C57.8772 7.15555 57.8772 6.4069 57.8421 4.54316L55.1789 8.10925L57.3687 3.87488C55.2993 6.33285 51.8655 6.13034 50.3906 8.98195C49.2619 11.1608 48.6675 10.7084 47.4008 12.7493L49.5874 8.11938C49.5874 8.11938 44.2654 12.9239 43.1229 16.197C42.7329 17.3146 41.9164 19.6688 42.3579 25.1252C42.7448 29.9064 42.6508 30.5285 43.9181 33.9452C44.357 35.328 45.45 39.7041 45.4594 39.6541C45.5133 39.7572 45.5478 39.7996 45.5578 39.7737C45.9071 38.894 45.2756 25.5904 45.4054 25.2739C46.0212 23.7747 49.1265 21.056 49.2306 20.9946C49.9962 20.5383 54.6277 20.3086 59.2768 20.3067C63.9259 20.3048 68.5574 20.5383 69.3231 20.9946C69.4253 21.0579 72.5311 23.7747 73.1482 25.2739C73.278 25.5904 73.0397 39.7572 73.0943 39.6541C73.101 39.6949 73.1115 39.7349 73.1256 39.7737C73.1632 39.8686 74.1916 35.328 74.635 33.9452C76.577 28.7116 76.1456 26.5396 76.2403 19.5087Z" fill="black"/>
<path d="M97.9032 110.47C97.5132 110.509 93.014 111.441 92.8541 110.891C92.7585 110.508 93.0355 110.198 93.2429 109.885C93.9869 108.759 94.6086 107.57 95.356 106.442C95.9308 105.574 97.3521 103.441 97.2542 103.537C94.473 106.241 92.0186 109.445 91.7938 108.287C91.6333 107.459 91.4647 108.401 92.1947 105.269C93.0975 101.397 96.8585 94.3689 96.8585 94.3689C96.8585 94.3689 94.7001 96.4257 93.7615 98.1137C90.8064 103.429 90.7305 102.196 90.9009 100.73C93.1432 81.4891 98.9247 70.9766 98.9247 70.9766C98.9247 70.9766 96.6713 73.4963 94.2812 79.6486C90.3093 89.8728 89.0769 101.949 89.0769 101.949C87.8815 99.6048 89.023 83.4396 89.023 83.4396C86.5002 90.9591 87.5293 104.486 87.52 105.126C87.3491 116.848 88.6667 128.565 89.355 144.836C89.3921 145.718 89.8406 156.544 89.315 157.219C89.1742 157.4 83.6211 158.269 82.3266 158.437C80.9557 158.616 79.5796 158.736 78.1989 158.865C74.045 159.25 69.0765 159.392 64.9024 159.491C62.6786 159.543 53.7839 159.543 51.5607 159.491C47.3889 159.391 42.5339 159.251 38.3801 158.865C36.9987 158.737 35.6232 158.617 34.2523 158.437C32.9573 158.269 27.7628 158.467 27.2292 157.09C26.9151 156.283 27.2993 146.271 27.3601 144.836C28.0484 128.565 29.2954 116.848 29.1244 105.126C29.1152 104.486 29.5932 90.8343 27.4389 83.4396C27.4389 83.4396 28.5804 99.6043 27.385 101.949C27.385 101.949 26.152 89.8728 22.1807 79.6486C19.7906 73.4963 17.5372 70.9766 17.5372 70.9766C17.5372 70.9766 23.3175 81.4882 25.5599 100.729C25.7308 102.195 25.6555 103.427 22.6993 98.1122C21.7606 96.4242 19.6023 94.3674 19.6023 94.3674C19.6023 94.3674 23.3639 101.396 24.266 105.268C24.9961 108.4 25.284 107.435 25.123 108.263C24.8982 109.421 22.4431 106.217 19.6625 103.513C19.5646 103.418 20.9859 105.552 21.5607 106.418C22.3082 107.546 22.8598 108.108 23.6032 109.236C23.8106 109.55 24.4769 110.188 24.3813 110.572C24.2214 111.122 21.4031 110.479 21.0294 110.375C18.1902 109.591 9.46766 109.782 6.71484 110.142C7.08915 110.291 8.62228 110.826 9.53255 111.169C9.64843 111.212 9.52039 110.366 9.59513 110.366C11.5698 110.366 14.993 110.424 16.12 110.562C18.4678 110.849 23.8071 111.347 26.1839 111.347C26.3948 111.347 26.1138 112.253 26.1839 112.675C26.2071 112.816 27.2506 112.688 27.2396 112.856C27.1063 114.882 27.2008 121.209 27.1138 124.494C27.0559 126.666 26.951 128.837 26.8131 131.007C26.4267 137.111 23.9508 158.917 25.1178 159.158C28.2414 159.805 40.813 160.446 57.3375 160.451H59.1215C75.646 160.448 88.45 159.807 91.5736 159.158C92.7406 158.917 90.0323 137.111 89.6459 131.007C89.5086 128.838 89.3029 116.371 89.3029 114.198C89.3029 114.028 89.9043 114.157 90.9142 114.033C91.0237 114.019 90.7259 113.116 90.8418 113.084C92.959 112.482 96.917 111.801 100.396 111.152C101.317 110.98 103.251 110.566 105.199 110.298C105.923 110.198 106.628 110.125 107.22 110.074C107.25 110.072 107.162 111.168 107.195 111.165C108.135 111.128 110.638 110.466 110.73 110.469C110.274 110.276 107.895 109.904 107.457 109.884C104.355 109.743 101.615 110.106 97.9032 110.47Z" fill="black"/>
<path d="M99.5691 70.4172C99.4974 70.367 99.426 70.3173 99.3547 70.2681C96.6999 68.448 91.4826 66.2916 88.9924 65.5293C86.3634 64.7247 77.8364 62.1717 77.8364 62.1717C77.8364 62.1717 76.7789 61.1649 75.6345 60.5845L74.8814 60.2025H74.8773L74.8491 60.1885C74.8661 60.2367 74.9883 61.217 74.9772 61.3125C74.6394 64.167 68.7706 67.3736 59.8728 67.3799L58.4153 67.4074L56.9578 67.3799C48.06 67.3736 42.5601 63.8582 41.8534 61.3125C41.8423 61.216 41.9645 60.2348 41.9815 60.1885L41.9703 60.1938L41.0786 60.6463C39.9224 61.2334 38.902 62.1741 38.902 62.1741C38.902 62.1741 30.4671 64.7276 27.8382 65.5317C25.3462 66.2944 20.1307 68.4504 17.4759 70.2705C17.4046 70.3194 17.3334 70.3691 17.2621 70.4196C17.1928 70.4722 17.1234 70.5286 17.0547 70.5875C17.3373 70.7322 19.6096 68.6964 27.9886 66.3186C29.9032 65.7754 34.3685 64.6875 37.0944 63.9407C37.364 63.8669 38.6306 65.5481 41.1408 67.1782C42.3287 68.022 44.0282 68.9439 46.3922 69.6728C48.8672 70.436 51.6641 71.0062 54.4793 71.3213C56.157 71.5115 57.8484 71.6082 59.5421 71.6107C60.8831 71.6122 62.2229 71.5455 63.5539 71.411C66.7902 71.08 69.6764 70.3313 72.1556 69.2193C76.37 67.3292 79.3644 63.838 79.7404 63.9407C82.4639 64.688 86.9298 65.7739 88.8461 66.3186C97.2251 68.6964 99.4974 70.7337 99.78 70.5875C99.7077 70.5262 99.6384 70.4698 99.5691 70.4172ZM46.5514 69.3154C45.7156 69.0593 44.9031 68.7548 44.1199 68.4041C43.2265 67.9227 42.3849 67.3795 41.6043 66.7802C39.4196 65.114 39.1775 63.2504 39.1775 63.2504C39.1775 63.2504 40.0299 62.2933 40.984 61.778C41.5333 64.6991 47.6476 67.9004 56.8344 67.9048C56.8615 67.9048 57.7673 67.9221 58.3706 67.9332C58.974 67.9221 59.8798 67.9048 59.9069 67.9048C69.1442 67.8985 75.2674 64.6624 75.7685 61.7298C76.8012 62.2749 77.5209 63.1901 77.5209 63.1901C77.5209 63.1901 77.4116 65.1135 75.2262 66.7798C74.3646 67.4355 73.5645 67.9938 72.8259 68.4547C64.9902 72.507 53.6639 71.5084 46.5514 69.3154Z" fill="black"/>
<path d="M112.547 119.441C112.129 107.372 109.363 80.7043 101.645 70.584" stroke="black" stroke-width="0.491018"/>
<path d="M5.62109 119.814C6.03924 107.746 9.93992 80.6418 17.6577 70.5215" stroke="black" stroke-width="0.491018"/>
</g>
</svg>
