<svg width="1878" height="819" viewBox="0 0 1878 819" fill="none" xmlns="http://www.w3.org/2000/svg">
<path fill-rule="evenodd" clip-rule="evenodd" d="M974.816 258.954C972.808 260.598 970.821 262.237 968.854 263.87C966.9 262.027 965.021 260.215 963.226 258.432C948.03 243.335 933.372 228.391 919.016 213.755C804.614 97.1231 709.348 0 513.412 0C189.111 0 -56 226.698 -56 584.545C-56 801.875 100.495 963 349.376 963C466.55 963 605.891 963 922.184 704.046C924.192 702.402 926.179 700.763 928.146 699.13C930.1 700.973 931.979 702.785 933.774 704.568C951.104 721.786 967.627 738.803 983.735 755.394C1094.3 869.27 1185.3 963 1383.59 963C1707.89 963 1953 736.301 1953 378.455C1953 161.124 1796.51 0 1547.62 0C1428.01 0 1291.11 6.06878e-05 974.816 258.954ZM1612.24 456.97C1612.24 380.155 1569.43 294.441 1466.53 294.441C1354.82 294.441 1215.38 405.383 1166.8 444.033C1157.06 451.787 1150.97 456.632 1149.49 457.086C1150.38 457.899 1152.92 461.203 1156.91 466.399C1186.81 505.288 1298.19 650.166 1405.9 650.166C1537.88 650.166 1612.24 547.168 1612.24 456.97ZM435.655 650.166C332.751 650.166 289.944 564.452 289.944 487.637C289.944 397.439 364.306 294.441 496.288 294.441C603.991 294.441 715.376 439.319 745.275 478.208C749.269 483.403 751.808 486.706 752.691 487.52C751.218 487.975 745.13 492.819 735.385 500.572C686.809 539.221 547.364 650.166 435.655 650.166Z" fill="#24C450"/>
</svg>
