<svg width="636" height="750" viewBox="0 0 636 750" fill="none" xmlns="http://www.w3.org/2000/svg">
<path d="M8.02501 714.803C15.845 742.426 26.4888 749.332 30.8332 749.332L610.813 749.33C614.072 749.33 614.072 730.496 617.33 711.662C620.588 692.828 610.813 667.716 607.555 652.021C604.297 636.326 610.813 626.909 610.813 611.214C604.297 579.824 607.555 551.573 610.813 523.322C614.072 495.071 601.038 447.986 594.522 435.43C588.005 422.874 480.481 385.206 460.931 369.511C441.381 353.816 412.056 344.399 392.506 328.705C372.956 313.011 372.956 328.705 372.956 313.009C372.956 297.313 369.698 284.758 369.698 275.341C369.698 265.924 369.698 259.646 372.956 250.229C376.215 240.812 371.063 230.08 376.215 225.117C379.473 221.978 380.505 232.467 389.248 228.256C395.765 225.117 402.281 209.422 402.281 203.144C402.281 196.866 405.539 187.447 402.281 178.032C399.023 168.616 389.248 187.45 385.99 187.45C382.731 187.45 379.473 181.172 385.99 162.337C392.506 143.501 385.99 96.4176 379.473 74.4446C372.956 52.4715 369.698 55.6105 353.406 46.1935C337.115 36.7765 281.724 39.9155 262.174 43.0545C242.624 46.1935 223.074 58.7495 213.299 65.0276C203.524 71.3056 210.041 80.7226 210.041 102.696C210.041 124.669 216.363 129.446 219.816 156.059C223.074 181.171 223.074 184.311 219.816 187.45C216.557 190.589 203.115 170.192 200.266 181.172C193.749 206.283 197.007 196.867 203.524 215.701C210.041 234.535 216.557 221.979 223.074 225.118C229.591 228.257 229.591 243.952 232.849 259.647C236.107 275.342 242.624 294.176 239.366 306.732C236.107 319.288 236.107 313.01 216.557 328.705C197.007 344.4 154.649 375.79 118.808 385.207C82.9665 394.624 73.1916 407.18 56.9 432.292C40.6084 457.404 40.6084 473.099 34.0918 485.655C27.5752 498.211 30.8332 520.184 30.8332 554.713C30.8332 589.242 -1.74992 680.274 8.02501 714.803Z" fill="white"/>
<path fill-rule="evenodd" clip-rule="evenodd" d="M218.67 619.454C206.554 628.25 206.035 617.663 199.631 637.371C173.322 716.855 168.475 724.836 169.341 734.935C171.591 762.135 179.553 778.749 159.129 787.544C138.532 796.34 142.339 795.2 127.8 799.434C123.127 800.9 136.455 901.885 141.301 903.025C148.744 904.491 194.785 911.006 199.631 911.983C212.439 914.752 220.574 913.775 233.383 916.544C247.057 919.638 508.07 932.506 509.801 919.313C516.205 866.703 481.761 751.06 481.761 751.06C303.829 755.132 309.714 572.383 272.673 588.507" fill="#EEEEEE"/>
<path fill-rule="evenodd" clip-rule="evenodd" d="M48.0067 412.438C41.0832 428.726 35.8907 445.665 32.4289 462.93L34.8521 462.441C55.6225 474.983 60.4689 505.604 44.3719 523.195C43.4637 524.192 42.4967 525.147 41.5309 526.102C39.1834 528.421 36.843 530.734 35.3714 533.619C32.7751 538.831 33.1213 544.695 33.8136 550.395C35.5445 566.846 38.66 583.297 42.9872 599.259C45.2373 607.24 48.1798 615.872 55.4494 620.596C58.924 622.865 63.154 624.04 67.3181 625.197C73.3181 626.864 79.1812 628.493 82.4508 633.3C66.5269 638.675 48.8721 639.816 32.4289 636.232C32.1597 636.178 31.8904 636.122 31.6212 636.065C29.4672 635.615 27.3133 635.164 25.1593 635.744C20.6591 636.721 18.582 641.444 17.1974 645.516C12.8827 658.671 12.0098 672.636 11.1468 686.441L11.1393 686.561C10.5443 695.775 9.9662 705.116 9.82765 714.439C12.5745 709.423 18.983 697.455 22.643 689.716C27.2179 680.041 32.9366 675.742 38.6552 673.592C39.6083 673.233 40.625 672.875 41.684 672.502C46.979 670.636 53.3331 668.396 58.0987 663.917L58.2293 663.795C64.013 658.357 76.922 646.221 98.025 651.556C98.2664 651.233 98.4987 650.903 98.7209 650.565C100.362 647.991 101.139 645.213 101.905 642.473C102.108 641.746 102.311 641.022 102.529 640.304C105.644 628.577 110.664 617.338 117.241 606.914C119.491 603.494 121.914 599.748 121.049 595.839C120.53 593.07 139.569 509.676 162.59 502.835C164.64 502.093 168.127 494.86 169.516 491.979C169.652 491.698 169.767 491.459 169.859 491.271C170.552 489.805 170.552 488.176 170.552 486.547C170.273 481.992 169.423 477.386 168.575 472.794C166.785 463.103 165.007 453.476 168.648 444.525C173.148 433.449 248.44 425.631 253.806 429.703C258.306 433.286 260.902 438.661 262.806 444.036C267.48 457.066 270.076 470.748 270.422 484.43C270.595 495.18 271.288 508.699 282.019 512.608C289.981 515.377 299.155 510.328 302.443 502.835C305.732 495.343 303.828 486.873 300.193 479.706C297.822 475.031 294.64 470.772 291.465 466.521C289.774 464.256 288.084 461.994 286.519 459.672C284.747 457.058 283.08 454.343 281.409 451.621C277.044 444.511 272.652 437.357 266.268 431.82C257.095 424.165 196.168 359.665 220.92 317.48C209.861 319.561 202.406 327.826 194.853 336.199C190.583 340.931 186.283 345.699 181.283 349.404C173.809 354.999 164.834 358.084 155.995 361.122L155.493 361.294C128.839 370.415 102.011 379.536 75.1837 388.657L75.1812 388.658C75.054 388.702 74.9268 388.746 74.7995 388.79C68.3436 391.027 61.7565 393.31 56.8341 397.942C52.68 402.014 50.2568 407.226 48.0067 412.438Z" fill="#EEEEEE"/>
<path d="M58.9111 687.539C68.4308 677.44 78.816 667.831 89.8935 659.198C92.8574 656.849 95.8213 654.501 98.025 651.556C76.922 646.221 64.013 658.357 58.2293 663.795L58.0987 663.917C53.3331 668.396 46.979 670.636 41.684 672.502C40.625 672.875 39.6083 673.233 38.6552 673.592C32.9366 675.742 27.2179 680.041 22.643 689.716C18.983 697.455 12.5745 709.423 9.82765 714.439C9.52286 734.95 11.3452 755.378 19.7936 774.19C23.6015 782.66 29.4865 791.292 38.8331 794.55C48.1798 797.644 60.815 792.269 61.1612 782.985C61.3343 773.701 50.603 768.001 43.8526 761.16C33.9867 751.061 32.2558 735.588 36.2368 722.395C40.2178 709.202 49.2183 697.8 58.9111 687.539Z" fill="#EEEEEE"/>
<path fill-rule="evenodd" clip-rule="evenodd" d="M394.526 349.402C393.488 348.751 392.795 347.611 391.757 346.796C388.295 344.353 385.526 340.933 383.795 337.187C381.891 333.44 381.025 329.206 380.506 325.134C379.468 318.13 378.948 310.963 378.948 303.959C379.468 304.285 379.987 304.448 380.506 304.611C393.141 308.52 407.335 313.895 417.027 320.736C427.066 327.74 430.528 332.626 439.529 340.281C447.317 346.796 457.356 352.497 466.357 357.383C479.511 364.224 497.339 369.436 510.84 375.626C527.456 383.281 544.592 386.05 559.996 395.823C573.151 404.129 589.594 407.55 597.21 422.046C601.364 429.864 539.226 530.36 541.13 538.992C542.861 546.485 574.709 524.333 581.459 517.655C586.479 512.769 613.48 490.943 613.307 498.436C613.134 508.697 615.211 514.235 614.518 524.333C612.615 549.742 611.922 570.591 616.942 594.534C618.326 601.212 558.612 666.852 557.227 673.53C555.842 680.208 613.653 627.598 614.172 634.276C614.865 641.443 616.942 647.306 618.499 654.473C620.403 662.454 623.346 670.761 623 678.905C622.654 684.768 622.134 690.795 621.615 696.658C620.923 702.359 620.403 708.548 623.865 713.272C626.115 716.204 626.808 718.158 628.019 721.742C634.25 739.821 599.633 713.272 598.248 732.329C598.075 735.26 638.058 760.669 634.423 787.87C634.077 790.476 633.039 793.082 631.827 795.525C630.096 798.946 624.731 801.063 621.269 803.018C606.21 812.302 597.21 826.472 579.901 831.033C571.593 833.15 562.766 832.987 554.285 832.661C552.208 832.661 549.957 832.336 548.919 830.707C561.381 831.033 573.67 826.309 584.748 820.934C593.748 816.699 602.749 811.65 608.634 803.995C614.518 796.34 616.596 786.404 614.518 777.12C612.441 768.325 607.076 760.832 600.152 754.643C586.652 742.427 571.766 731.677 555.842 722.23C537.841 711.643 525.206 694.215 513.782 677.439C505.128 664.897 500.801 650.238 495.781 636.068C493.531 629.715 493.878 621.246 487.646 618.151C484.877 616.685 480.896 615.871 480.55 612.776C480.377 611.636 480.896 610.659 481.415 609.681C482.454 606.913 482.973 603.981 482.973 601.212C482.973 600.235 482.8 599.094 482.108 598.28C481.415 597.466 480.377 597.14 479.511 596.977C476.396 596 473.107 595.185 469.819 594.697C468.953 590.625 470.165 586.227 469.819 582.155C469.472 577.92 466.011 573.197 461.684 574.011C435.894 577.92 409.585 577.92 383.622 575.314C376.698 574.663 369.602 572.871 363.198 575.477C361.64 576.129 360.082 575.64 359.043 576.943C358.351 578.083 358.178 579.223 357.832 580.526C354.716 598.606 382.064 654.799 354.543 635.253C345.024 621.572 344.331 610.496 343.639 597.14C342.947 583.947 344.504 570.591 346.754 557.561C348.312 548.276 345.37 539.155 348.658 530.197C350.389 525.311 353.505 520.75 355.409 515.864C359.563 506.091 368.39 472.538 455.452 436.054C455.452 436.054 407.508 436.216 357.486 467.815C349.524 472.864 346.235 437.031 346.581 428.072C346.927 420.254 352.466 413.576 357.832 407.55C370.64 393.38 383.968 379.698 397.815 366.505C399.719 364.713 399.026 360.967 399.719 358.361C400.411 356.569 400.93 354.452 399.892 352.823C398.853 351.031 397.815 349.565 395.911 348.588" fill="#EEEEEE"/>
<path d="M393.314 349.077C392.275 348.426 391.583 347.286 390.544 346.471C387.083 344.028 384.313 340.608 382.582 336.862C380.678 333.115 379.813 328.881 379.294 324.809C378.255 317.805 377.736 310.638 377.736 303.634C378.255 303.96 378.775 304.123 379.294 304.286C391.929 308.195 406.122 313.57 415.815 320.411C425.854 327.415 429.316 332.301 438.316 339.956C446.105 346.471 456.144 352.172 465.144 357.058C478.299 363.899 496.127 369.111 509.628 375.301C526.244 382.956 543.379 385.725 558.784 395.498C571.939 403.804 588.382 407.225 595.997 421.721M132.819 560.33C132.992 549.417 128.492 538.993 124.511 528.732C112.395 497.459 103.914 464.884 99.0674 431.819M62.8924 412.274C67.7388 424.327 73.2776 436.054 79.6818 447.456M58.9114 441.592C83.6627 457.066 87.9899 490.944 111.183 508.372M64.7963 465.861C72.239 476.937 81.5857 486.872 92.4901 495.016M95.6056 571.243C106.337 577.107 118.453 577.758 125.376 587.531C122.434 575.966 115.164 570.103 107.549 560.493C100.798 551.861 94.2209 543.065 88.336 533.944M38.4873 616.686C48.8724 627.273 64.9694 632.811 80.201 631.182M7.678 716.856C0.58147 700.242 -0.110874 681.674 2.13924 663.92C4.38936 646.167 9.23577 628.739 12.6975 611.148C15.4669 596.978 17.1977 582.481 19.1017 568.148C21.1787 552.023 23.2557 535.735 22.7365 519.448C22.5634 510.978 21.5249 502.345 22.7365 493.876C23.9481 485.406 27.4098 476.773 34.5063 471.398M29.1406 468.141C28.1021 450.713 36.5833 432.634 43.5067 416.346C48.1801 405.107 46.9685 404.456 55.1035 395.172C57.8729 391.914 60.8153 388.657 64.4502 386.214C68.7773 383.608 73.9699 382.467 78.9894 381.327C100.625 376.278 120.357 366.017 141.647 359.99C172.456 351.358 184.399 341.911 193.399 331.487C205.342 317.479 220.055 305.1 236.152 303.472M177.475 345.657C167.783 350.543 159.648 358.035 154.282 366.994C168.648 369.763 181.976 362.922 196.169 359.664C198.246 359.176 200.496 358.85 202.227 359.99C203.611 360.804 204.131 362.433 204.65 363.899C208.112 373.835 212.093 383.933 219.362 391.914C225.939 399.081 253.979 404.619 256.749 413.577C257.268 415.206 257.614 416.997 258.653 418.463C259.518 419.603 260.557 420.418 261.768 421.395C266.269 424.653 270.769 428.073 275.442 431.331M215.035 335.721C211.573 346.471 210.362 357.873 211.227 369.111M540.61 701.546C572.285 696.333 579.728 696.008 611.402 700.731M534.206 700.405C557.919 686.56 583.189 675.159 609.498 666.364M514.82 680.697C515.166 666.527 520.359 652.845 525.378 639.489C536.11 610.822 547.014 582.319 559.649 554.466M524.686 671.25C527.109 661.151 532.994 652.193 538.706 643.398C551.861 622.386 563.457 600.561 573.323 577.921M508.243 656.103C505.474 628.576 503.05 599.91 512.743 573.849C524.34 542.739 552.553 518.471 560.861 486.384M522.09 571.08C521.57 567.008 524.34 563.425 526.936 560.167C536.629 547.951 546.322 535.735 557.226 524.66C567.611 514.073 579.381 504.137 585.612 490.944M597.433 421.519C603.837 433.735 608.683 462.89 611.626 476.246C619.934 514.196 607.991 554.101 617.338 591.889C620.626 605.245 611.453 618.764 614.741 632.12C619.934 653.294 625.127 674.794 622.703 696.457C621.012 702.28 621.998 708.221 622.703 710.464C623.915 714.373 626.684 717.631 628.588 721.214C636.723 736.688 628.588 755.581 632.396 772.358C634.127 780.176 637.762 789.786 631.358 794.998C627.204 798.256 591.721 830.668 564.2 831.808M353.504 521.565C365.447 495.179 389.506 474.656 417.027 462.278C431.566 455.6 447.663 450.713 459.606 440.452M255.191 677.602C265.922 663.758 277.173 650.239 288.943 636.883M317.502 917.033C319.406 859.7 312.309 627.925 302.097 571.243M315.079 473.353C318.194 476.122 319.752 480.194 320.098 484.266C320.445 488.338 319.752 492.247 319.06 496.319C317.329 505.766 314.906 515.05 312.136 524.171M311.271 478.891C290.674 468.141 286.52 439.637 273.538 429.376M335.157 570.266C334.291 552.023 340.176 534.27 343.638 516.353C347.273 497.948 348.311 479.217 346.754 460.649M347.619 922.734C349.696 876.151 346.927 642.583 338.445 596.652M236.325 302.983C235.979 316.502 233.901 315.85 229.228 328.718C224.555 341.585 222.651 356.896 231.132 367.808C236.325 374.486 244.633 378.395 252.249 382.793C263.153 388.983 273.365 396.964 279.423 407.551C286.693 420.092 287.731 435.729 297.251 446.804C301.578 451.854 304.174 454.622 307.463 463.255C309.713 467.164 312.656 471.236 315.771 474.656C314.906 471.399 315.771 459.02 320.098 452.179C324.252 445.338 329.964 439.475 334.291 432.797C339.311 424.816 342.253 415.695 346.927 407.388C356.793 389.797 373.928 377.092 389.506 363.736C395.391 358.687 401.449 352.824 403.007 345.494C405.257 334.256 396.256 323.994 387.948 315.525M317.502 458.206C322.175 446.967 336.195 436.054 345.542 428.888C354.889 421.721 365.101 415.369 372.197 406.248C377.563 399.407 380.852 391.426 385.525 384.259C390.544 376.604 397.295 369.926 404.045 363.411C411.142 356.57 408.891 349.077 418.93 350.543C425.335 351.521 430.527 367.971 433.643 373.346C436.585 378.721 440.393 385.888 443.682 390.937C448.182 397.941 453.375 397.289 454.932 406.41C455.279 376.115 451.644 374.324 441.432 358.036M137.839 903.026C134.377 865.727 132.819 833.64 132.992 796.178M515.859 915.404C513.609 887.552 521.744 859.537 519.667 831.685" stroke="black" stroke-width="1.73948"/>
<path d="M370.118 152.809C371.156 148.248 368.56 143.525 365.617 139.779C363.886 137.498 361.809 135.218 359.04 134.241C356.79 133.426 354.367 133.426 351.943 133.426H322.173" stroke="black" stroke-width="0.813521"/>
<path d="M282.536 135.057C270.939 132.94 259.342 131.637 247.572 130.823C245.842 130.66 244.111 130.66 242.553 131.148C240.13 132.126 238.572 134.406 237.36 136.523C235.11 140.269 232.687 144.179 230.437 147.925" stroke="black" stroke-width="0.813521"/>
<path d="M278.382 140.597C267.997 140.108 256.227 139.619 242.726 138.968C241.341 138.968 240.13 138.805 238.745 139.131C236.149 139.782 234.591 141.9 232.86 144.017" stroke="black" stroke-width="0.813521"/>
<path d="M324.249 140.27C332.384 140.27 340.519 138.152 348.654 138.315C356.79 138.478 365.79 141.41 369.598 148.251" stroke="black" stroke-width="0.813521"/>
<path fill-rule="evenodd" clip-rule="evenodd" d="M283.056 135.057C271.459 132.94 259.862 131.637 248.092 130.823C246.361 130.66 244.63 130.66 243.073 131.148C240.649 132.126 239.092 134.406 237.88 136.523C235.63 140.269 233.207 144.179 230.957 147.925C233.034 144.504 234.591 141.898 238.399 139.292C241.342 139.129 262.285 140.269 263.324 140.269C268.17 140.269 278.382 141.084 278.728 141.084" fill="black"/>
<path fill-rule="evenodd" clip-rule="evenodd" d="M323.384 140.109H323.73C325.807 139.946 327.884 139.946 329.788 139.62C337.577 138.806 345.192 138.154 352.981 137.992C357.135 138.806 361.289 140.272 364.578 142.715C367.867 145.158 370.117 148.741 369.944 152.651C370.982 148.09 368.386 143.367 365.444 139.62C363.713 137.34 361.636 135.06 358.866 134.082C356.616 133.268 354.193 133.268 351.77 133.268H321.999H321.307" fill="black"/>
<path d="M338.791 168.284C341.085 168.284 342.945 166.607 342.945 164.538C342.945 162.469 341.085 160.792 338.791 160.792C336.496 160.792 334.636 162.469 334.636 164.538C334.636 166.607 336.496 168.284 338.791 168.284Z" fill="black"/>
<path d="M264.535 165.515C266.829 165.515 268.689 163.838 268.689 161.769C268.689 159.7 266.829 158.022 264.535 158.022C262.241 158.022 260.381 159.7 260.381 161.769C260.381 163.838 262.241 165.515 264.535 165.515Z" fill="black"/>
<path d="M232.168 264.058C242.034 274.645 257.093 280.672 268.516 287.35M232.168 264.058C223.514 241.418 220.745 212.426 218.148 181.968M232.168 264.058C234.591 270.41 235.63 291.259 236.149 305.104M273.19 235.392C278.728 232.623 283.056 230.18 288.594 227.573C290.325 226.759 292.056 225.945 293.787 225.782C297.249 225.619 300.883 228.062 304.172 226.759C305.211 226.433 305.903 225.782 306.941 225.293C310.23 223.827 314.038 225.782 317.5 227.085C323.038 229.528 329.096 230.994 335.154 231.32H337.231M299.845 406.74C301.576 407.88 303.48 409.02 305.21 410.16M312.999 410.485C313.865 405.111 319.923 402.016 325.462 401.039C331 400.061 337.058 400.387 342.251 398.107M299.672 371.884C295.691 368.463 292.229 364.391 289.46 360.156M392.273 348.103C385.522 343.706 381.368 336.376 379.638 328.721C377.907 321.066 374.618 264.71 374.964 256.24M299.326 207.377C298.633 203.142 293.614 200.047 289.287 201.025C289.806 202.816 291.537 204.445 293.614 204.771M309.192 206.237C311.269 202.653 316.461 202.002 320.788 202.002C320.961 203.468 319.057 204.608 317.673 203.956M266.612 237.183C287.902 232.623 310.23 235.88 331.866 233.274C335.154 232.949 338.616 232.297 340.693 230.017M296.037 251.517C301.403 252.168 306.941 251.842 312.134 250.702M276.71 291.911C284.672 296.471 294.192 298.426 303.538 297.937C317.558 297.285 330.367 295.982 339.194 291.422C349.406 286.047 357.368 276.6 366.369 269.433C371.734 265.199 373.984 260.964 377.1 255.1C381.081 247.445 380.562 238.487 380.389 230.017C379.869 214.869 383.677 199.722 385.581 184.574M218.148 227.574C213.994 228.551 209.148 229.365 206.032 226.596C204.994 225.619 204.474 224.479 203.782 223.339C201.878 219.918 200.147 216.661 198.243 213.24C196.685 210.471 195.128 207.702 194.435 204.608C193.57 201.35 193.743 197.93 193.916 194.672C194.435 188.157 195.301 181.479 196.685 175.127C197.032 173.335 197.551 171.381 198.762 170.078C199.974 168.612 202.051 167.634 203.955 168.449C204.994 168.937 205.686 169.752 206.551 170.566C208.801 173.172 211.052 175.778 213.129 178.384M386.042 228.388C388.811 228.551 391.927 231.32 394.177 229.691C394.696 229.202 395.042 228.551 395.388 227.899C398.85 221.058 402.485 217.149 405.947 210.471C406.985 208.517 407.851 206.562 408.37 204.445C408.716 202.653 408.716 200.699 408.543 198.907C408.37 193.043 408.024 187.343 407.851 181.479C407.677 179.036 407.331 171.706 405.081 170.403C403.177 169.263 400.754 169.915 398.85 171.055C397.119 172.195 395.734 173.987 394.35 175.615C392.1 178.222 389.33 180.339 386.215 181.968M322.173 208.354C326.846 204.282 326.5 196.301 321.481 192.555C320.442 191.903 319.23 191.252 318.538 190.274C317.673 189.297 317.326 187.831 316.98 186.528C315.249 178.547 314.384 170.403 314.384 162.259C314.384 158.676 315.076 154.278 318.711 153.301M287.383 207.54C285.132 206.888 283.228 205.259 282.709 202.002C282.017 198.418 283.228 193.369 287.036 192.88M324.769 152.487C328.231 150.858 332.039 150.044 335.847 149.718C340.347 149.229 344.847 149.229 349.174 150.369C353.502 151.51 357.483 153.79 360.079 157.373M358.694 167.96C357.483 166.006 351.078 159.979 340.52 158.676C330.308 157.373 327.192 159.002 322.346 163.4M252.592 164.54C262.458 164.865 265.401 167.472 280.978 162.585C278.901 160.142 274.228 157.21 266.958 156.884C255.881 156.559 249.65 160.468 244.803 163.237M322 163.725C338.616 169.426 342.424 168.123 352.29 167.96M270.593 165.028L270.939 164.703C272.497 162.585 271.632 159.165 271.632 160.305M257.266 160.142C256.919 162.259 257.266 163.888 258.65 165.028M344.328 167.96C345.366 165.843 345.713 163.237 344.155 161.119M331.866 161.771C331 163.4 331 165.191 331.173 166.494M244.63 158.025C249.304 154.767 254.323 151.672 260.035 150.206C265.92 148.741 272.497 149.229 278.209 151.672C281.325 152.975 284.267 155.093 285.652 158.187" stroke="black" stroke-width="1.73948"/>
<path d="M58.9111 687.534C68.4309 677.436 78.816 667.826 89.8935 659.193C92.8575 656.845 95.8214 654.496 98.025 651.551C76.922 646.217 64.013 658.353 58.2293 663.79L58.0987 663.913C53.3331 668.392 46.9791 670.631 41.684 672.497C40.625 672.871 39.6083 673.229 38.6552 673.587C32.9366 675.737 27.2179 680.037 22.643 689.711C18.983 697.451 12.5745 709.418 9.82765 714.435C9.52286 734.945 11.3452 755.373 19.7937 774.185C23.6015 782.655 29.4865 791.287 38.8331 794.545C48.1798 797.64 60.8151 792.265 61.1612 782.981C61.3343 773.697 50.603 767.996 43.8526 761.155C33.9867 751.057 32.2559 735.583 36.2368 722.39C40.2178 709.197 49.2183 697.795 58.9111 687.534Z" fill="#EEEEEE"/>
<path d="M184.571 531.011C186.129 531.174 187.86 530.522 189.071 529.545C190.283 528.568 190.802 526.939 190.802 525.31M89.3736 669.783C113.952 631.995 130.568 589.484 137.838 545.67C140.434 529.871 152.377 516.352 162.589 503.647C165.358 500.227 168.647 496.644 172.974 495.34C184.744 491.757 198.764 493.712 211.399 494.037H215.9C223.861 494.2 231.823 494.2 239.612 494.852C242.901 495.178 247.228 494.852 249.824 496.969C252.248 498.761 253.459 501.856 253.805 504.625C254.152 507.719 252.767 511.14 250.863 513.583C248.44 516.678 245.151 517.818 241.343 518.632C232.343 520.261 222.823 520.424 213.649 521.075C207.764 521.564 202.053 521.89 196.168 522.378C195.129 522.378 193.918 522.215 192.879 522.378C191.667 522.541 191.841 523.193 191.148 523.681C190.283 524.333 188.898 524.496 187.686 524.496C186.475 524.659 185.263 524.821 184.052 524.984M188.033 531.174C188.379 531.337 188.552 531.5 188.725 531.825C189.59 533.617 190.283 535.734 191.841 537.2C196.168 536.712 200.668 536.06 204.995 535.571C211.226 534.757 216.938 534.268 223.169 533.454C228.535 532.64 233.381 531.825 237.881 531.011C241.862 530.359 247.92 528.893 251.901 528.079C263.152 525.799 273.883 523.356 285.999 520.587C288.942 519.935 292.057 519.772 295.173 519.772C297.25 519.772 299.327 520.098 301.231 520.587C303.654 521.075 306.077 521.727 308.154 523.03C311.789 525.31 314.039 529.545 314.212 533.78V536.223C313.693 539.643 307.981 543.715 304.52 544.856C288.423 549.579 278.557 551.696 263.498 556.094C258.479 557.56 255.709 558.374 251.209 560.98C248.267 562.772 240.997 566.193 237.535 566.03C230.958 566.681 226.631 567.333 219.881 568.147C216.765 568.473 213.649 568.962 210.534 569.613C207.591 570.102 204.476 570.427 201.187 571.242M254.498 553.325C253.632 553.651 252.94 554.139 252.248 554.791C249.132 557.56 246.19 560.655 243.42 563.749M307.289 543.878C312.308 543.064 317.674 545.507 320.097 549.579C322.521 553.651 321.828 559.352 318.366 562.772C316.809 564.238 314.905 565.378 313.001 566.518C306.077 570.427 297.25 574.173 289.115 577.268C283.749 579.386 281.153 580.851 276.307 583.946C271.287 587.041 265.575 589.484 259.69 589.158C250.344 591.113 241.17 593.23 232.17 595.999C230.439 596.488 213.303 600.071 211.919 601.211M202.572 622.385C205.687 622.223 208.63 621.082 211.399 619.942C215.207 618.476 218.842 616.685 222.477 614.893C230.093 611.147 237.708 607.564 245.324 603.817C256.748 598.279 268.518 591.113 278.037 582.806M187.859 639.813C194.264 638.836 199.629 634.601 204.476 630.366C208.63 626.783 212.784 623.2 216.765 619.454M184.571 577.92C187.687 575.802 190.802 573.848 194.264 572.219M197.552 603.329C199.629 601.863 201.88 600.723 204.303 600.071M172.628 514.397C172.109 509.348 171.936 504.462 172.109 499.412M234.766 511.465C234.593 507.719 234.247 503.973 234.074 500.227M239.958 512.931C240.997 512.605 241.862 512.443 242.901 512.117C244.459 511.628 246.017 511.14 247.055 510.162C248.786 508.371 248.44 505.439 248.094 502.996M295.346 528.242C296.038 531.988 297.077 535.897 298.462 539.481M297.25 526.125C300.019 525.473 302.789 524.659 305.558 523.844M299.154 542.575C301.058 542.249 302.789 541.761 304.52 540.946M302.962 550.068C305.039 549.742 306.943 549.253 308.847 548.439M304.52 562.283C303.654 560.003 302.789 557.56 302.096 555.28M307.808 565.215C310.578 564.727 313.001 563.586 315.078 561.795M140.434 578.734C140.953 574.011 138.53 568.961 140.434 564.401C141.126 562.609 142.511 561.143 143.55 559.515C148.05 552.674 146.492 544.041 144.761 536.223M151.165 601.537V590.461M168.474 635.579C169.859 636.882 171.243 638.185 172.974 638.999C174.705 639.976 176.609 640.465 178.513 640.302M168.993 640.953C166.916 640.139 164.839 638.836 162.935 637.533M197.552 637.533C189.937 658.544 175.744 695.192 171.243 717.018C168.128 731.514 165.705 746.498 158.608 759.692C158.608 759.854 158.435 760.017 158.435 760.017C147.877 779.237 123.125 787.381 102.009 778.748C87.9889 772.885 75.0075 765.229 65.1416 754.48C50.4293 738.355 44.5443 713.597 56.4873 695.518C59.7759 690.468 64.4492 686.071 68.9495 681.999C76.9114 674.995 85.3927 668.317 94.3931 662.128M79.5078 751.873C84.1811 756.76 89.893 760.669 96.1241 763.275M168.474 738.68C168.993 750.082 169.686 761.483 170.205 772.722C170.378 774.676 165.012 782.657 162.07 783.798C140.088 792.593 116.894 801.551 93.3547 798.457C74.3152 796.013 57.1797 785.915 42.4674 774.025M84.7003 801.226C71.5457 801.714 58.3912 802.366 45.4098 802.854C40.2172 803.017 34.3322 803.18 30.3513 799.923C28.2742 798.294 27.0626 795.851 25.851 793.733C19.793 782.169 13.735 770.605 7.677 759.04C4.21528 752.362 0.753556 745.521 0.926642 738.192C1.09973 731.677 4.21528 725.487 7.15774 719.624C12.5234 709.037 18.0622 698.45 23.4278 687.863C25.1587 684.605 26.8895 681.347 29.4858 678.904C35.0246 673.855 43.6789 673.041 50.4292 669.294C55.968 666.363 59.949 661.476 64.9685 657.893C74.142 651.052 86.7773 648.609 98.201 651.215" stroke="black" stroke-width="1.73948"/>
<path fill-rule="evenodd" clip-rule="evenodd" d="M273.883 522.703C267.478 492.57 260.036 453.642 256.92 438.006C256.228 434.097 252.247 431.328 248.093 431.817C227.842 433.934 199.975 438.006 185.436 440.123C180.07 440.938 176.262 445.661 177.128 450.711C179.032 462.763 182.32 483.449 183.705 492.896C199.629 493.385 239.958 494.85 244.458 495.013C248.439 495.176 252.766 498.434 253.112 500.877C253.632 504.949 253.978 509.347 251.381 512.767C248.958 516.025 244.458 517.165 240.477 517.979C232.169 519.608 202.052 521.888 195.475 521.888C193.917 521.888 192.013 521.888 191.321 523.191C190.628 524.331 191.321 525.797 190.974 526.937C190.801 527.426 190.282 527.915 190.109 528.403C189.244 529.869 189.417 531.498 190.109 532.964C190.801 534.43 192.013 535.57 193.225 536.71C208.802 534.104 231.477 531.987 239.265 530.358C250.17 528.078 274.402 522.214 274.402 522.214" fill="black"/>
<path d="M207.418 449.734C208.565 449.734 209.495 448.859 209.495 447.779C209.495 446.7 208.565 445.825 207.418 445.825C206.27 445.825 205.341 446.7 205.341 447.779C205.341 448.859 206.27 449.734 207.418 449.734Z" fill="#7B7B7B"/>
<path fill-rule="evenodd" clip-rule="evenodd" d="M198.072 451.849L186.994 453.478C185.263 453.803 183.706 452.663 183.532 451.035V450.872C183.186 449.243 184.398 447.777 186.129 447.614L197.206 445.985C198.937 445.66 200.495 446.8 200.668 448.429V448.591C200.841 450.057 199.63 451.523 198.072 451.849Z" fill="#7B7B7B"/>
<path fill-rule="evenodd" clip-rule="evenodd" d="M222.304 474.489C222.304 474.489 219.015 479.701 216.419 480.027C213.65 480.353 211.054 478.724 210.707 476.118C210.361 473.512 212.265 471.232 215.034 470.906C217.631 470.417 222.304 474.489 222.304 474.489Z" stroke="#EEEEEE" stroke-width="1.62704"/>
<path fill-rule="evenodd" clip-rule="evenodd" d="M234.248 472.698C234.594 475.304 232.69 477.584 229.92 477.91C227.151 478.236 222.478 474.327 222.478 474.327C222.478 474.327 225.766 469.115 228.363 468.789C231.305 468.463 233.728 470.255 234.248 472.698Z" stroke="#EEEEEE" stroke-width="1.62704"/>
<path d="M608.458 766.691C603.266 756.755 596.169 750.077 592.188 746.819C580.072 737.21 566.918 728.903 554.629 719.619C542.34 710.498 530.224 701.051 521.396 688.998C509.107 672.384 510.838 677.433 504.953 660.82M512.223 704.634C509.453 699.911 508.415 694.536 508.761 689.324M479.682 751.054C492.837 771.577 495.606 784.933 506.165 803.827C515.338 820.278 529.012 831.19 548.744 829.725C563.11 828.584 575.226 823.047 588.034 816.532C593.919 813.6 599.804 810.505 604.824 806.433C608.112 803.827 610.882 800.569 612.613 796.986C616.421 788.516 613.305 778.907 610.016 770.437M504.78 660.983C497.164 645.184 495.78 635.574 490.241 623.195C488.683 619.612 484.875 616.843 480.894 615.703C470.336 612.445 457.527 614.237 446.277 614.563H442.296C435.199 614.725 427.93 614.725 420.833 615.214C417.891 615.54 414.083 615.214 411.66 617.169C409.583 618.797 408.371 621.566 408.198 624.009C408.025 626.941 409.063 629.873 410.967 632.153C413.217 634.922 416.16 636.063 419.622 636.551C427.757 638.017 436.411 638.18 444.546 638.831C449.739 639.157 455.104 639.646 460.297 639.972C461.335 639.972 462.201 639.809 463.239 639.972C464.278 640.134 464.105 640.623 464.797 641.112C465.489 641.763 466.874 641.763 467.913 641.926C468.951 642.089 470.163 642.252 471.201 642.415M470.509 647.627C469.124 647.79 467.566 647.138 466.528 646.324C465.489 645.509 464.97 643.881 464.97 642.578M467.393 647.79C467.047 647.953 467.047 648.115 466.874 648.441C466.009 650.07 465.316 651.862 464.105 653.327C460.297 652.839 456.143 652.35 452.335 651.862C446.796 651.21 441.604 650.721 435.892 649.907C431.045 649.256 426.718 648.441 422.737 647.79C419.102 647.138 413.564 645.835 410.102 645.184C399.89 643.229 390.37 640.949 379.466 638.343C376.869 637.691 373.927 637.528 371.331 637.528C369.427 637.528 367.696 637.854 365.792 638.18C363.542 638.669 361.465 639.32 359.561 640.46C356.272 642.578 354.195 646.324 354.022 650.07V652.35C354.541 655.445 359.561 659.191 362.676 660.005C377.042 664.24 386.043 666.195 399.544 670.104C404.044 671.407 406.64 672.058 410.621 674.502C413.217 676.13 418.41 677.596 422.91 679.062C428.968 679.714 432.776 680.202 438.834 680.854C441.604 681.18 446.104 681.668 448.873 682.157C451.643 682.646 452.681 682.808 455.797 683.623M407.679 667.824C408.371 667.987 409.063 668.638 409.756 669.127C412.698 671.57 415.294 674.339 417.718 677.271M359.907 659.191C355.407 658.377 350.56 660.657 348.483 664.403C346.233 668.149 346.925 673.199 350.041 676.293C351.426 677.759 353.157 678.737 354.887 679.714C361.119 683.297 364.58 683.786 374.965 686.718C379.466 689.486 383.447 692.581 387.947 695.35C391.755 697.793 397.294 699.748 402.14 700.074C404.217 700.236 406.121 700.399 408.198 700.888C414.948 702.354 420.833 704.145 427.757 706.263C429.314 706.752 444.719 709.846 445.931 710.823M454.239 729.88C451.469 729.717 448.873 728.74 446.277 727.763C442.815 726.297 439.527 724.831 436.238 723.202C429.314 719.945 422.564 716.524 415.641 713.267C405.256 708.218 394.87 701.702 386.216 694.21M467.567 745.516C461.855 744.539 457.008 740.793 452.681 737.047C448.873 733.789 445.238 730.532 441.604 727.274M470.509 689.812C467.739 687.858 464.797 686.066 461.855 684.6M458.739 712.778C457.008 711.475 454.931 710.498 452.681 709.846M481.24 632.805C481.759 628.407 481.933 623.846 481.759 619.286M425.16 630.036C425.334 626.616 425.68 623.195 425.853 619.938M420.66 631.339C419.795 631.013 418.929 630.85 418.064 630.524C416.679 630.199 415.295 629.71 414.429 628.733C412.871 627.104 413.044 624.498 413.564 622.218M370.638 645.184C369.946 648.604 369.08 652.025 367.869 655.282M369.08 643.229C366.657 642.577 364.061 641.926 361.638 641.275M367.35 658.051C365.619 657.725 364.061 657.236 362.503 656.585M363.888 664.729C362.157 664.403 360.253 663.914 358.695 663.263M362.503 675.805C363.196 673.687 364.061 671.57 364.753 669.452M359.561 678.411C357.138 677.922 354.887 676.945 352.984 675.479M485.048 741.77C483.837 742.91 482.452 744.05 481.067 744.865C479.682 745.679 477.779 746.168 476.048 746.005M484.356 746.494C486.26 745.679 488.164 744.702 489.721 743.399" stroke="black" stroke-width="1.73948"/>
<path fill-rule="evenodd" clip-rule="evenodd" d="M468.433 593.553C468.433 590.947 468.779 590.947 468.779 578.731C468.779 577.428 467.914 575.474 464.452 574.496C452.163 573.845 382.063 573.519 362.331 573.519C359.562 573.519 357.312 575.636 357.312 578.242V641.602C365.101 637.367 375.313 636.227 383.621 639.322C389.16 641.276 403.699 643.719 405.084 643.719C407.334 643.882 406.641 644.371 407.68 642.742C409.238 640.625 410.449 631.992 410.103 631.015C409.93 630.038 409.238 629.223 408.892 628.246C407.507 625.314 408.026 621.894 409.757 619.125C410.796 617.659 413.911 616.845 414.95 615.542C416.161 614.076 415.123 611.958 415.988 610.329C419.623 602.186 421.873 593.553 423.95 584.92C427.066 583.943 463.241 592.25 468.433 593.553Z" fill="#8E1010"/>
<path fill-rule="evenodd" clip-rule="evenodd" d="M405.948 708.054C404.39 707.891 366.311 707.239 361.119 707.077C358.176 706.914 357.83 703.656 357.657 701.702C357.484 694.698 357.311 688.509 357.138 681.505C362.85 683.622 368.734 685.088 374.792 686.228" fill="#8E1010"/>
<path d="M478.471 614.891C478.471 614.728 480.375 606.258 481.587 601.046C482.106 598.766 480.549 596.486 478.125 595.997L428.623 584.596C426.026 583.944 423.603 585.41 422.911 587.853C421.007 594.857 417.026 608.865 414.949 615.543" stroke="black" stroke-width="0.813521"/>
<path d="M410.276 631.175C408.891 638.179 408.199 640.134 407.506 644.206" stroke="black" stroke-width="0.813521"/>
<path fill-rule="evenodd" clip-rule="evenodd" d="M445.759 588.666C442.643 587.852 439.701 587.2 436.412 586.386L428.45 614.726C431.22 614.726 437.97 614.564 438.662 614.401" fill="black"/>
<path d="M445.759 588.666C442.643 587.852 439.701 587.2 436.412 586.386L428.45 614.726C431.22 614.726 437.97 614.564 438.662 614.401" stroke="black" stroke-width="0.813521"/>
<path d="M445.931 588.503L438.661 614.563" stroke="black" stroke-width="0.813521"/>
<path d="M432.084 637.854L429.142 648.441" stroke="black" stroke-width="0.813521"/>
<path fill-rule="evenodd" clip-rule="evenodd" d="M432.258 638.18C430.354 638.017 424.296 637.202 422.911 637.04L420.142 646.975C422.392 647.464 427.065 648.278 429.142 648.441" fill="black"/>
<path d="M432.258 638.18C430.354 638.017 424.296 637.202 422.911 637.04L420.142 646.975C422.392 647.464 427.065 648.278 429.142 648.441" stroke="black" stroke-width="0.813521"/>
<path d="M207.369 81.1463C204.242 85.3168 203.2 87.402 202.158 94.7003L202.099 94.5516C201.872 99.1276 202.431 108.275 206.326 114.51C207.368 138.49 213.264 162.47 216.39 165.598C218.41 165.598 218.69 154.286 218.916 145.152C219.04 140.147 216.379 135.796 216.748 134.32C217.313 132.055 218.801 130.713 220.376 129.292C221.702 128.095 223.09 126.842 224.043 124.936C224.962 123.096 224.461 116.788 223.883 109.508C223.735 107.642 223.582 105.712 223.446 103.776C219.561 103.187 215.604 103.813 212.579 106.941C215.494 102.758 219.566 100.914 223.223 100.259C223.152 98.9592 223.094 97.6733 223.058 96.4197C218.214 96.1904 213.243 97.416 210.495 101.999C213.097 95.491 218.828 92.7914 223.036 91.919C223.112 88.8603 223.402 86.1956 224.043 84.2742C227.167 74.8957 238.62 67.6002 254.239 84.2475C244.529 69.9476 229.343 54.896 216.748 65.5072C232.044 50.9687 243.973 64.5091 253.77 75.6294C257.322 79.6612 260.593 83.3748 263.644 85.3168C269.364 88.9585 278.625 90.6263 286.723 91.2814C299.028 88.8698 310.483 82.7888 314.708 76.9758C318.714 78.1208 322.484 78.637 325.954 78.6109C314.006 64.2431 289.647 41.8286 260.517 35.2714C278.98 35.2714 319.188 51.5878 336.365 76.6137C338.532 75.7128 340.462 74.5284 342.122 73.1043C337.192 66.0701 324.91 53.4072 303.245 42.5697C324.444 47.7111 339.167 59.7853 347.032 68.8717C355.173 70.092 364.906 58.2793 368.9 51.9531L366.815 76.9758C370.636 76.9758 378.279 80.3121 378.279 93.6576C378.279 99.9629 377.683 105.375 377.167 110.061C376.319 117.774 375.686 123.524 378.279 128.064C379.731 130.607 381.184 132.01 382.416 133.201C384.72 135.428 386.253 136.91 385.574 143.703C384.74 152.044 382.924 164.555 383.966 169.768L387.093 168.726L394.953 140.575C396.343 138.837 399.122 133.902 399.122 128.064C399.122 125.295 398.221 122.976 397.275 120.538C395.727 116.55 394.055 112.243 395.995 105.126C397.323 100.255 398.839 98.5813 400.064 97.2291C401.723 95.3978 402.847 94.1561 402.248 86.3593C401.206 72.8053 383.49 35.2713 370.984 43.6122C364.731 20.6747 356.394 15.4618 337.635 15.4618C328.618 15.4618 321.045 12.0884 313.18 8.58499C304.685 4.80091 295.85 0.865234 284.486 0.865234C271.497 0.865234 265.85 6.37485 259.919 12.1618C255.857 16.1246 251.663 20.2174 244.885 22.7601C231.546 27.7646 226.822 33.1862 226.127 35.2714C215.358 38.0517 193.821 49.0339 193.821 70.7202C193.821 82.3564 198.628 90.0845 201.537 93.0658C200.021 88.7975 198.288 81.1463 207.369 81.1463Z" fill="black"/>
</svg>
