<svg width="669" height="749" viewBox="0 0 669 749" fill="none" xmlns="http://www.w3.org/2000/svg">
<path fill-rule="evenodd" clip-rule="evenodd" d="M63.9129 553.849C63.9129 544.32 63.6648 535.748 63.4424 528.066C62.8591 507.91 62.4531 493.882 67.1714 484.791C69.504 480.296 71.0017 475.4 72.7104 469.813C75.7754 459.792 79.5195 447.551 89.9796 431.428C106.271 406.315 116.046 393.759 151.888 384.342C187.729 374.925 230.087 343.535 249.637 327.84C256.925 321.989 261.496 319.192 264.532 317.334C269.64 314.209 270.402 313.742 272.445 305.867C274.947 296.226 271.685 282.883 268.561 270.102L268.561 270.101C267.617 266.237 266.685 262.425 265.929 258.782C265.017 254.394 264.361 250.005 263.746 245.891C262.161 235.292 260.848 226.515 256.154 224.253C253.981 223.207 251.809 223.904 249.637 224.602C245.293 225.997 240.948 227.392 236.604 214.836C234.689 209.301 233.055 206.206 231.868 203.958C229.016 198.555 228.744 198.039 233.345 180.307C235.057 173.711 240.593 178.439 245.446 182.586C248.671 185.341 251.595 187.838 252.895 186.585C256.154 183.446 256.154 180.306 252.895 155.194C251.353 143.307 249.238 135.777 247.37 129.125C245.056 120.883 243.12 113.99 243.12 101.831C243.12 94.4353 242.382 88.462 241.775 83.5522C240.579 73.8743 239.894 68.3278 246.379 64.1628C256.154 57.8848 275.703 45.3288 295.253 42.1898C314.803 39.0508 370.195 35.9118 386.486 45.3288C389.802 47.2457 392.579 48.6424 394.952 49.8365C404.239 54.5084 407.363 56.0796 412.553 73.5798C419.069 95.5528 425.586 142.637 419.069 161.472C412.553 180.307 415.811 186.585 419.069 186.585C420.212 186.585 422.157 184.268 424.341 181.665C428.384 176.848 433.246 171.054 435.361 177.167C437.633 183.732 436.736 190.298 435.986 195.8C435.66 198.189 435.361 200.378 435.361 202.279C435.361 208.557 428.844 224.252 422.328 227.391C417.184 229.869 414.709 227.258 412.879 225.327C411.6 223.977 410.636 222.96 409.294 224.252C406.488 226.956 406.739 231.372 407.023 236.354C407.26 240.518 407.519 245.077 406.036 249.364C402.778 258.781 402.778 265.059 402.778 274.476C402.778 278.586 403.398 283.295 404.098 288.601C405.001 295.451 406.036 303.299 406.036 312.144C406.036 317.522 406.036 319.215 406.822 319.748C407.184 319.993 407.711 319.993 408.48 319.993C410.924 319.994 415.812 319.994 425.586 327.84C435.36 335.687 447.578 341.964 459.796 348.242C472.015 354.52 484.235 360.798 494.01 368.646C503.08 375.927 531.084 387.938 559.153 399.976C591.587 413.887 624.108 427.834 627.601 434.565C634.118 447.121 647.151 494.206 643.893 522.457C640.635 550.708 637.376 578.959 643.893 610.349C643.893 616.842 642.778 622.261 641.701 627.494C640.174 634.91 638.724 641.954 640.635 651.156C641.477 655.215 642.755 659.904 644.132 664.951C648.077 679.42 652.825 696.834 650.409 710.798C649.165 717.991 648.396 725.184 647.739 731.328L647.739 731.33C646.676 741.272 645.907 748.466 643.893 748.466L161.52 748.467C161.707 724.719 163.198 712.118 163.983 708.577C163.059 708.895 160.893 709.603 156.5 711C147.7 713.8 126.167 715.167 116.5 715.5L99.0001 716.5C93.5001 717 81.2001 718 76.0001 718C69.5001 718 66.0001 716 63.9129 713.938C55.4431 705.088 45.1783 684.218 41.1047 674.889C43.6566 656.398 48.4861 635.245 53.0464 615.272C58.6855 590.574 63.9129 567.679 63.9129 553.849Z" fill="white"/>
<path d="M320 249.143C321.656 250.095 327.381 252 337.032 252C346.684 252 351.699 249.333 353 248M306.234 229.511C308.873 229.708 311.22 229.82 313.576 229.811C316.074 229.801 318.421 228.734 321.17 228.145C322.882 227.761 324.604 227.293 326.347 227.377C328.069 227.49 329.821 228.201 331.533 228.763C333.276 229.212 334.968 229.474 336.579 228.847C337.606 228.538 338.291 227.93 339.298 227.424C340.718 226.676 342.662 226.769 344.425 226.909C346.187 227.143 347.97 227.686 349.662 227.948C352.381 228.444 355.161 228.575 357.971 228.351C360.781 228.154 363.671 227.742 366.572 227.181L368.566 226.713M300 227.667C302.528 228.491 303.473 228.585 306.021 229.811C308.59 230.99 312.983 232.568 314.303 233.059C315.624 233.55 320.67 234.749 323.486 235.118C326.206 235.473 328.885 235.838 331.594 235.932C334.303 236.026 337.002 236.026 339.701 235.913C342.4 235.801 345.079 235.389 347.758 235.033C350.437 234.678 353.126 233.779 355.765 232.974C358.404 232.169 360.866 231.189 363.434 230.113C366.498 228.829 369.774 226.676 372 225" stroke="black" stroke-width="1.65807"/>
<path fill-rule="evenodd" clip-rule="evenodd" d="M242.211 537.267C244.4 536.804 247.289 536.193 251.75 532.955L305.753 502.008C318.05 496.655 325.616 513.22 336.747 537.592C350.559 567.833 369.86 610.093 410.5 637.411C403.667 636.274 389.5 636.6 387.5 647C386.5 650.5 389 657 392 658C383.5 658.5 380 664 380 669.5C380 675 391.5 681.5 408 685.5C413.664 689.217 419.139 693.059 424.383 696.738C433.952 703.452 442.748 709.624 450.5 713.5C460.1 718.3 469.833 723.5 473.5 725.5C480.72 732.167 497.127 745.5 505 745.5H518.5C520.1 745.5 521.167 755.5 521.5 760.5L538.822 768.021C542.75 792.182 544.952 815.795 542.881 832.813C541.15 846.006 280.136 833.139 266.462 830.044C260.058 828.66 254.822 828.212 249.587 827.764C244.351 827.316 239.115 826.868 232.711 825.484C230.491 825.036 219.633 823.427 207.799 821.674C193.791 819.598 178.415 817.32 174.381 816.525C169.534 815.385 156.207 714.401 160.88 712.935C166.989 711.156 169.859 710.325 172.661 709.308C176.528 707.904 180.265 706.145 192.208 701.045C208.387 694.078 206.754 682.205 204.258 664.051C203.603 659.287 202.888 654.09 202.421 648.435C201.838 641.634 203.846 635.792 213.258 608.417C217.82 595.148 224.122 576.82 232.711 550.871C236.757 538.42 238.454 538.061 242.211 537.267Z" fill="#EEEEEE"/>
<path d="M92.0578 625.158C101.567 616.749 111.94 608.746 123.004 601.558C125.965 599.602 128.925 597.646 131.126 595.194C110.048 590.752 97.1539 600.858 91.3768 605.386L91.2463 605.488C86.4863 609.217 80.1396 611.082 74.8507 612.636C73.7929 612.947 72.7775 613.246 71.8254 613.544C66.1134 615.334 60.4014 618.915 55.8318 626.971C52.1761 633.416 45.7749 643.382 43.0313 647.559C42.7269 664.638 44.547 681.65 52.9857 697.315C56.7892 704.368 62.6673 711.556 72.0031 714.269C81.339 716.846 93.9596 712.37 94.3054 704.639C94.4782 696.908 83.7593 692.161 77.0168 686.464C67.1623 678.055 65.4335 665.17 69.4099 654.183C73.3862 643.197 82.3763 633.703 92.0578 625.158Z" fill="#EEEEEE"/>
<path fill-rule="evenodd" clip-rule="evenodd" d="M65.6064 438.12C69.0641 423.743 74.2506 409.637 81.1661 396.074C83.4136 391.734 85.834 387.393 89.9832 384.003C94.9 380.145 101.479 378.245 107.928 376.382L108.309 376.272L108.312 376.271C135.108 368.676 161.904 361.08 188.528 353.485L189.029 353.342C197.858 350.812 206.822 348.243 214.288 343.584C219.282 340.498 223.578 336.529 227.842 332.588C235.386 325.615 242.833 318.733 253.879 317C229.156 352.129 290.012 405.84 299.175 412.214C305.551 416.824 309.938 422.782 314.298 428.703C315.736 430.656 317.171 432.605 318.674 434.5L301.141 439C299.866 433.372 298.051 427.812 295.717 422.387C293.815 417.911 291.222 413.435 286.727 410.451C281.367 407.06 206.162 413.571 201.667 422.794C198.031 430.248 199.807 438.264 201.594 446.334C202.441 450.158 203.291 453.993 203.569 457.787C203.569 459.143 203.569 460.5 202.877 461.72C202.785 461.877 202.67 462.076 202.535 462.31C201.147 464.709 197.664 470.732 195.616 471.35C172.622 477.047 153.605 546.491 154.124 548.797C154.988 552.052 152.568 555.171 150.32 558.02C143.751 566.7 138.737 576.059 135.625 585.824C135.407 586.422 135.205 587.025 135.002 587.631C134.237 589.912 133.461 592.226 131.822 594.369C131.6 594.65 131.368 594.925 131.126 595.194C110.048 590.752 97.1539 600.858 91.3768 605.386L91.2463 605.488C86.4863 609.217 80.1396 611.082 74.8507 612.636C73.7929 612.947 72.7775 613.246 71.8254 613.544C66.1134 615.334 60.4014 618.915 55.8318 626.971C52.1761 633.416 45.7749 643.382 43.0313 647.559C43.1697 639.795 43.7471 632.016 44.3415 624.344L44.349 624.244C45.2109 612.748 46.0828 601.119 50.3925 590.165C51.7755 586.774 53.8502 582.84 58.3452 582.027C60.4967 581.544 62.6481 581.919 64.7996 582.295C65.0685 582.341 65.3374 582.388 65.6064 582.434C82.0305 585.417 99.6648 584.468 115.57 579.992C112.304 575.989 106.448 574.632 100.455 573.244C96.2959 572.281 92.0708 571.302 88.6001 569.413C81.339 565.479 78.3999 558.291 76.1524 551.645C71.8302 538.353 68.7183 524.654 66.9895 510.955C66.2979 506.208 65.9521 501.325 68.5454 496.985C70.0153 494.582 72.353 492.657 74.6978 490.725C75.6625 489.93 76.6283 489.135 77.5355 488.304C93.6138 473.656 88.773 448.157 68.0268 437.713L65.6064 438.12Z" fill="#EEEEEE"/>
<path fill-rule="evenodd" clip-rule="evenodd" d="M427.606 348.538C426.567 347.886 425.875 346.746 424.836 345.932C421.375 343.488 418.605 340.068 416.874 336.322C414.97 332.576 414.105 328.341 413.586 324.269C412.547 317.265 412.028 310.098 412.028 303.095C412.547 303.42 413.067 303.583 413.586 303.746C426.221 307.655 440.414 313.03 450.107 319.871C460.146 326.875 463.608 331.761 472.608 339.417C480.397 345.932 490.436 351.632 499.436 356.519C512.591 363.36 530.419 368.572 543.92 374.761C560.536 382.416 577.671 385.185 593.076 394.958C606.231 403.265 622.674 406.685 630.289 421.181C634.444 428.999 572.306 529.495 574.21 538.128C575.94 545.62 607.788 523.469 614.539 516.791C619.558 511.904 646.56 490.079 646.386 497.571C646.213 507.832 648.29 513.37 647.598 523.469C645.694 548.878 645.002 569.726 650.021 593.669C651.406 600.347 591.691 665.987 590.307 672.665C588.922 679.343 646.733 626.733 647.252 633.411C647.944 640.578 650.021 646.442 651.579 653.608C653.483 661.589 656.425 669.896 656.079 678.04C655.733 683.903 655.214 689.93 654.695 695.794C654.002 701.494 653.483 707.684 656.945 712.407C659.195 715.339 659.887 717.293 661.099 720.877C667.33 738.956 632.713 712.407 631.328 731.464C631.155 734.396 671.138 759.805 667.503 787.005C667.157 789.611 666.118 792.217 664.907 794.66C663.176 798.081 657.81 800.198 654.348 802.153C639.29 811.437 630.289 825.607 612.981 830.168C604.673 832.285 595.845 832.122 587.364 831.797C585.287 831.797 583.037 831.471 581.998 829.842C594.461 830.168 606.75 825.444 617.827 820.069C626.828 815.835 635.828 810.785 641.713 803.13C647.598 795.475 649.675 785.539 647.598 776.255C645.521 767.46 640.155 759.967 633.232 753.778C619.731 741.562 604.846 730.812 588.922 721.365C570.921 710.778 558.286 693.35 546.862 676.574C538.208 664.032 533.881 649.373 528.861 635.203C526.611 628.851 526.957 620.381 520.726 617.286C517.957 615.82 513.976 615.006 513.63 611.911C513.456 610.771 513.976 609.794 514.495 608.817C515.533 606.048 516.053 603.116 516.053 600.347C516.053 599.37 515.88 598.23 515.187 597.415C514.495 596.601 513.456 596.275 512.591 596.112C509.475 595.135 506.187 594.321 502.898 593.832C502.033 589.76 503.244 585.362 502.898 581.29C502.552 577.055 499.09 572.332 494.763 573.146C468.973 577.055 442.664 577.056 416.701 574.449C409.778 573.798 402.681 572.006 396.277 574.612C394.719 575.264 393.162 574.775 392.123 576.078C391.431 577.218 391.258 578.359 390.911 579.662C387.796 597.741 415.144 653.934 387.623 634.389C378.103 620.707 377.411 609.631 376.718 596.275C376.026 583.082 377.584 569.726 379.834 556.696C381.392 547.412 378.449 538.291 381.738 529.332C383.469 524.446 386.584 519.885 388.488 514.999C392.642 505.226 401.47 471.673 488.532 435.189C488.532 435.189 440.587 435.352 390.565 466.95C382.603 471.999 379.315 436.166 379.661 427.208C380.007 419.39 385.546 412.712 390.911 406.685C403.72 392.515 417.047 378.833 430.894 365.64C432.798 363.848 432.106 360.102 432.798 357.496C433.491 355.704 434.01 353.587 432.971 351.958C431.933 350.166 430.894 348.701 428.99 347.723" fill="#EEEEEE"/>
<path d="M426.393 348.213C425.355 347.561 424.662 346.421 423.624 345.607C420.162 343.163 417.393 339.743 415.662 335.997C413.758 332.251 412.893 328.016 412.373 323.944C411.335 316.94 410.816 309.773 410.816 302.77C411.335 303.095 411.854 303.258 412.373 303.421C425.009 307.33 439.202 312.705 448.895 319.546C458.934 326.55 462.395 331.436 471.396 339.092C479.185 345.607 489.224 351.307 498.224 356.194C511.379 363.035 529.206 368.247 542.707 374.436C559.323 382.091 576.459 384.86 591.864 394.633C605.018 402.94 621.461 406.36 629.077 420.856M132.147 430.955C136.614 461.431 144.169 491.492 154.812 520.5L138 558C131.25 549.368 127.3 542.2 121.416 533.079M95.972 411.409C100.818 423.462 106.357 435.189 112.761 446.591M91.991 440.727C116.742 456.201 121.069 490.08 144.263 507.507M97.8759 464.996C105.319 476.072 114.665 486.007 125.57 494.151M71.5669 615.821C81.952 626.408 98.049 631.946 113.281 630.317M45 625C47.7694 610.83 50.2773 581.617 52.1813 567.283C54.2583 551.158 56.3354 534.871 55.8161 518.583C55.643 510.113 54.6045 501.481 55.8161 493.011C57.0277 484.541 60.4894 475.909 67.5859 470.534M62.2202 467.276C61.1817 449.849 69.6629 431.769 76.5863 415.481C81.2597 404.243 80.0481 403.591 88.1831 394.307C90.9525 391.05 93.895 387.792 97.5298 385.349C101.857 382.743 107.049 381.603 112.069 380.462C133.705 375.413 153.437 365.152 174.726 359.125C205.535 350.493 217.478 341.046 226.479 330.622C238.422 316.614 253.134 304.236 269.231 302.607M210.555 344.792C200.862 349.678 192.727 357.171 187.361 366.129C201.728 368.898 215.055 362.057 229.248 358.799C231.325 358.311 233.575 357.985 235.306 359.125C236.691 359.94 237.21 361.568 237.73 363.034C241.191 372.97 245.172 383.068 252.442 391.049C259.019 398.216 287.059 403.754 289.828 412.712C290.348 414.341 290.694 416.133 291.732 417.599C292.598 418.739 293.636 419.553 294.848 420.53C299.348 423.788 303.848 427.208 308.522 430.466M248.115 334.857C244.653 345.607 243.441 357.008 244.307 368.247M573.69 700.681C605.364 695.469 612.807 695.143 644.482 699.866M567.285 699.54C590.998 685.696 616.269 674.294 642.578 665.499M547.9 679.832C548.246 665.662 553.438 651.98 558.458 638.624C569.189 609.958 580.094 581.454 592.729 553.602M557.766 670.385C560.189 660.287 566.074 651.328 571.786 642.533C584.94 621.522 596.537 599.696 606.403 577.056M541.323 655.238C538.553 627.711 536.13 599.045 545.823 572.984C557.42 541.875 585.633 517.606 593.941 485.519M555.169 570.215C554.65 566.143 557.419 562.56 560.016 559.302C569.709 547.086 579.401 534.871 590.306 523.795C600.691 513.208 612.461 503.272 618.692 490.079M630.512 420.654C636.917 432.87 641.763 462.025 644.705 475.381C653.014 513.332 641.071 553.237 650.417 591.024C653.706 604.38 644.532 617.899 647.821 631.255C653.014 652.429 658.206 673.929 655.783 695.592C654.091 701.415 655.078 707.357 655.783 709.6C656.995 713.509 659.764 716.766 661.668 720.35C669.803 735.823 661.668 754.717 665.476 771.493C667.207 779.311 670.841 788.921 664.437 794.133C660.283 797.391 624.801 829.804 597.28 830.944M386.584 520.701C398.527 494.314 422.586 473.792 450.106 461.413C464.645 454.735 480.742 449.848 492.685 439.587M288.271 676.738C299.002 662.893 310.253 649.374 322.022 636.018M350.582 916.168C352.486 858.835 345.389 627.06 335.177 570.378M345.216 523.307C347.985 514.185 350.409 504.901 352.139 495.454C352.832 491.382 353.524 487.473 353.178 483.401C352.991 481.199 352.449 478.997 351.498 477M306.618 428.511C309.196 430.549 311.425 433.306 313.505 436.5M368.236 569.401C367.371 551.159 373.256 533.405 376.718 515.488C380.352 497.083 381.391 478.352 379.833 459.784M380.699 921.869C382.776 875.286 380.006 641.719 371.525 595.787M269.404 302.118C269.058 315.637 266.981 314.986 262.308 327.853C257.634 340.72 255.73 356.031 264.212 366.944C269.404 373.622 277.712 377.531 285.328 381.928C296.233 388.118 306.445 396.099 312.503 406.686C317.417 415.165 319.484 425.058 323.249 434M421.028 314.66C429.336 323.129 438.336 333.391 436.086 344.629C434.528 351.959 428.47 357.822 422.586 362.872C407.008 376.228 389.872 388.932 380.006 406.523C375.333 414.83 372.391 423.951 367.371 431.932C363.044 438.61 357.332 444.474 353.178 451.315C351.683 453.678 350.601 456.703 349.861 459.784M350.582 457.341C355.255 446.102 369.275 435.19 378.622 428.023C387.968 420.856 398.18 414.504 405.277 405.383C410.642 398.542 413.931 390.561 418.604 383.394C423.624 375.739 430.374 369.061 437.125 362.546C444.221 355.705 441.971 348.213 452.01 349.679C458.414 350.656 463.607 367.107 466.722 372.482C469.665 377.856 473.473 385.023 476.761 390.072C481.262 397.076 486.454 396.425 488.012 405.546C488.358 375.25 484.723 373.459 474.511 357.171M166.918 818.161C163.457 780.862 161.899 748.775 162.072 711.313M548.938 914.54C546.688 886.688 554.823 858.672 552.746 830.82" stroke="black" stroke-width="1.73948"/>
<path d="M403.197 151.943C404.236 147.383 401.639 142.659 398.697 138.913C396.966 136.633 394.889 134.352 392.12 133.375C389.87 132.561 387.446 132.561 385.023 132.561H355.252" stroke="black" stroke-width="0.813521"/>
<path d="M315.615 134.192C304.019 132.074 292.422 130.771 280.652 129.957C278.921 129.794 277.19 129.794 275.633 130.283C273.209 131.26 271.652 133.54 270.44 135.658C268.19 139.404 265.767 143.313 263.517 147.059" stroke="black" stroke-width="0.813521"/>
<path d="M311.461 139.731C301.076 139.242 289.306 138.754 275.806 138.102C274.421 138.102 273.209 137.939 271.825 138.265C269.228 138.917 267.671 141.034 265.94 143.151" stroke="black" stroke-width="0.813521"/>
<path d="M357.329 139.404C365.464 139.404 373.599 137.286 381.734 137.449C389.869 137.612 398.87 140.544 402.678 147.385" stroke="black" stroke-width="0.813521"/>
<path fill-rule="evenodd" clip-rule="evenodd" d="M316.135 134.192C304.538 132.074 292.942 130.771 281.172 129.957C279.441 129.794 277.71 129.794 276.152 130.283C273.729 131.26 272.171 133.54 270.96 135.658C268.71 139.404 266.286 143.313 264.036 147.059C266.113 143.639 267.671 141.033 271.479 138.426C274.421 138.264 295.365 139.404 296.403 139.404C301.25 139.404 311.462 140.218 311.808 140.218" fill="black"/>
<path fill-rule="evenodd" clip-rule="evenodd" d="M356.463 139.243H356.809C358.887 139.08 360.964 139.08 362.867 138.755C370.656 137.94 378.272 137.289 386.061 137.126C390.215 137.94 394.369 139.406 397.658 141.849C400.946 144.292 403.197 147.876 403.023 151.785C404.062 147.224 401.466 142.501 398.523 138.755C396.792 136.474 394.715 134.194 391.946 133.217C389.696 132.402 387.273 132.402 384.849 132.402H355.079H354.386" fill="black"/>
<path d="M371.87 167.418C374.164 167.418 376.024 165.741 376.024 163.672C376.024 161.603 374.164 159.926 371.87 159.926C369.576 159.926 367.716 161.603 367.716 163.672C367.716 165.741 369.576 167.418 371.87 167.418Z" fill="black"/>
<path d="M297.615 164.649C299.909 164.649 301.769 162.971 301.769 160.902C301.769 158.833 299.909 157.156 297.615 157.156C295.321 157.156 293.461 158.833 293.461 160.902C293.461 162.971 295.321 164.649 297.615 164.649Z" fill="black"/>
<path d="M265.248 263.192C275.114 273.779 290.172 279.806 301.596 286.484M265.248 263.192C256.594 240.552 253.824 211.56 251.228 181.102M265.248 263.192C267.671 269.544 268.71 290.393 269.229 304.237M332.924 405.873C334.655 407.013 336.559 408.154 338.29 409.294M346.079 409.619C346.944 404.244 353.002 401.15 358.541 400.172C364.08 399.195 370.138 399.521 375.331 397.241M332.751 371.017C328.77 367.597 325.309 363.525 322.539 359.29M425.352 347.237C418.602 342.839 414.448 335.51 412.717 327.855C410.986 320.199 407.698 263.843 408.044 255.374M332.405 206.511C331.713 202.276 326.693 199.181 322.366 200.158C322.885 201.95 324.616 203.579 326.693 203.904M342.271 205.37C344.348 201.787 349.541 201.135 353.868 201.135C354.041 202.601 352.137 203.742 350.752 203.09M309.79 291.044C317.752 295.605 327.271 297.559 336.618 297.071C350.638 296.419 363.446 295.116 372.274 290.556C382.486 285.181 390.448 275.734 399.448 268.567C404.814 264.332 407.064 260.097 410.18 254.234C414.161 246.579 413.641 237.62 413.468 229.151C412.949 214.003 416.757 198.855 418.661 183.708M251.228 226.707C247.074 227.685 242.227 228.499 239.112 225.73C238.073 224.753 237.554 223.613 236.862 222.473C234.958 219.052 233.227 215.795 231.323 212.374C229.765 209.605 228.207 206.836 227.515 203.742C226.649 200.484 226.823 197.064 226.996 193.806C227.515 187.291 228.38 180.613 229.765 174.261C230.111 172.469 230.63 170.514 231.842 169.211C233.054 167.746 235.131 166.768 237.035 167.583C238.073 168.071 238.766 168.886 239.631 169.7C241.881 172.306 244.131 174.912 246.208 177.518M419.121 227.522C421.891 227.685 425.006 230.454 427.256 228.825C427.776 228.336 428.122 227.685 428.468 227.033C431.93 220.192 435.565 216.283 439.026 209.605C440.065 207.651 440.93 205.696 441.449 203.579C441.796 201.787 441.796 199.832 441.623 198.041C441.449 192.177 441.103 186.476 440.93 180.613C440.757 178.17 440.411 170.84 438.161 169.537C436.257 168.397 433.834 169.049 431.93 170.189C430.199 171.329 428.814 173.12 427.429 174.749C425.179 177.355 422.41 179.473 419.294 181.102M355.253 207.488C359.926 203.416 359.58 195.435 354.56 191.689C353.522 191.037 352.31 190.386 351.618 189.408C350.752 188.431 350.406 186.965 350.06 185.662C348.329 177.681 347.464 169.537 347.464 161.393C347.464 157.81 348.156 153.412 351.791 152.435M320.462 206.673C318.212 206.022 316.308 204.393 315.789 201.135C315.097 197.552 316.308 192.503 320.116 192.014M357.849 151.621C361.311 149.992 365.118 149.177 368.926 148.852C373.427 148.363 377.927 148.363 382.254 149.503C386.581 150.643 390.562 152.924 393.158 156.507M391.774 167.094C390.562 165.139 384.158 159.113 373.6 157.81C363.388 156.507 360.272 158.136 355.426 162.533M285.672 163.674C295.538 163.999 298.48 166.605 314.058 161.719C311.981 159.276 307.308 156.344 300.038 156.018C288.961 155.693 282.729 159.602 277.883 162.371M355.079 162.859C371.696 168.56 375.504 167.257 385.369 167.094M303.673 164.162L304.019 163.836C305.577 161.719 304.711 158.299 304.711 159.439M290.345 159.276C289.999 161.393 290.345 163.022 291.73 164.162M377.408 167.094C378.446 164.977 378.792 162.371 377.234 160.253M364.945 160.905C364.08 162.533 364.08 164.325 364.253 165.628M277.71 157.158C282.383 153.901 287.403 150.806 293.115 149.34C299 147.874 305.577 148.363 311.289 150.806C314.404 152.109 317.347 154.227 318.731 157.321" stroke="black" stroke-width="1.73948"/>
<path d="M91.9908 601.773C101.511 591.674 111.896 582.065 122.973 573.432C125.937 571.083 128.901 568.735 131.105 565.79C110.002 560.456 97.0927 572.591 91.3089 578.029L91.1783 578.152C86.4128 582.63 80.0587 584.87 74.7637 586.736C73.7047 587.109 72.688 587.468 71.7349 587.826C66.0162 589.976 60.2976 594.276 55.7226 603.95C52.0627 611.69 45.6541 623.657 42.9073 628.674C42.6025 649.184 44.4248 669.612 52.8733 688.424C56.6812 696.894 62.5661 705.526 71.9128 708.784C81.2594 711.878 93.8947 706.503 94.2409 697.219C94.414 687.935 83.6826 682.235 76.9323 675.394C67.0664 665.295 65.3355 649.822 69.3165 636.629C73.2975 623.436 82.298 612.034 91.9908 601.773Z" fill="#EEEEEE"/>
<path d="M217.651 445.251C219.208 445.414 220.939 444.762 222.151 443.785C223.363 442.808 223.882 441.179 223.882 439.55M122.453 584.023C147.032 546.235 163.648 503.724 170.917 459.91C173.514 444.11 185.457 430.592 195.669 417.887C198.438 414.467 201.727 410.883 206.054 409.58C217.824 405.997 231.844 407.951 244.479 408.277H248.979C256.941 408.44 264.903 408.44 272.692 409.092C275.981 409.417 280.308 409.092 282.904 411.209C285.327 413.001 286.539 416.095 286.885 418.864C287.231 421.959 285.847 425.379 283.943 427.823C281.519 430.917 278.231 432.057 274.423 432.872C265.422 434.501 255.903 434.663 246.729 435.315C240.844 435.804 235.132 436.129 229.247 436.618C228.209 436.618 226.997 436.455 225.959 436.618C224.747 436.781 224.92 437.432 224.228 437.921C223.362 438.573 221.978 438.735 220.766 438.735C219.555 438.898 218.343 439.061 217.131 439.224M221.112 445.414C221.459 445.576 221.632 445.739 221.805 446.065C222.67 447.857 223.363 449.974 224.92 451.44C229.247 450.951 233.748 450.3 238.075 449.811C244.306 448.997 250.018 448.508 256.249 447.694C261.615 446.879 266.461 446.065 270.961 445.251C274.942 444.599 281 443.133 284.981 442.319C296.232 440.039 306.963 437.595 319.079 434.826C322.022 434.175 325.137 434.012 328.253 434.012C330.33 434.012 332.407 434.338 334.311 434.826C336.734 435.315 339.157 435.967 341.234 437.27C344.869 439.55 347.119 443.785 347.292 448.02V450.463C346.773 453.883 341.061 457.955 337.599 459.095C321.502 463.819 311.636 465.936 296.578 470.334C291.558 471.8 288.789 472.614 284.289 475.22C281.346 477.012 274.077 480.432 270.615 480.269C264.038 480.921 259.711 481.572 252.96 482.387C249.845 482.713 246.729 483.201 243.614 483.853C240.671 484.341 237.556 484.667 234.267 485.482M287.577 467.565C286.712 467.891 286.02 468.379 285.327 469.031C282.212 471.8 279.269 474.894 276.5 477.989M340.369 458.118C345.388 457.303 350.754 459.747 353.177 463.819C355.6 467.891 354.908 473.591 351.446 477.012C349.888 478.478 347.984 479.618 346.08 480.758C339.157 484.667 330.33 488.413 322.195 491.508C316.829 493.625 314.233 495.091 309.386 498.186C304.367 501.281 298.655 503.724 292.77 503.398C283.423 505.353 274.25 507.47 265.249 510.239C263.518 510.727 246.383 514.311 244.998 515.451M235.652 536.625C238.767 536.462 241.71 535.322 244.479 534.182C248.287 532.716 251.922 530.924 255.557 529.133C263.172 525.387 270.788 521.803 278.404 518.057C289.828 512.519 301.597 505.353 311.117 497.046M220.939 554.053C227.343 553.076 232.709 548.841 237.555 544.606C241.71 541.023 245.864 537.44 249.845 533.693M217.651 492.159C220.766 490.042 223.882 488.087 227.343 486.459M230.632 517.568C232.709 516.103 234.959 514.963 237.382 514.311M205.708 428.637C205.189 423.588 205.015 418.701 205.189 413.652M267.846 425.705C267.673 421.959 267.326 418.213 267.153 414.467M273.038 427.171C274.077 426.845 274.942 426.682 275.981 426.357C277.538 425.868 279.096 425.379 280.135 424.402C281.866 422.61 281.519 419.679 281.173 417.235M328.426 442.482C329.118 446.228 330.157 450.137 331.541 453.72M330.33 440.364C333.099 439.713 335.868 438.898 338.638 438.084M332.234 456.815C334.138 456.489 335.868 456.001 337.599 455.186M336.041 464.307C338.119 463.982 340.022 463.493 341.926 462.679M337.599 476.523C336.734 474.243 335.868 471.8 335.176 469.519M340.888 479.455C343.657 478.966 346.081 477.826 348.158 476.034M173.514 492.974C174.033 488.25 171.61 483.201 173.514 478.641C174.206 476.849 175.591 475.383 176.629 473.754C181.129 466.913 179.572 458.281 177.841 450.463M184.245 515.777V504.701M201.554 549.818C202.938 551.121 204.323 552.424 206.054 553.239C207.785 554.216 209.689 554.705 211.593 554.542M202.073 555.193C199.996 554.379 197.919 553.076 196.015 551.773M230.632 551.773C223.016 572.784 208.823 609.432 204.323 631.257C201.208 645.753 198.784 660.738 191.688 673.931C191.688 674.094 191.515 674.257 191.515 674.257C180.956 693.477 156.205 701.621 135.089 692.988C121.069 687.124 108.087 679.469 98.2213 668.719C83.509 652.594 77.6241 627.837 89.567 609.757C92.8556 604.708 97.529 600.31 102.029 596.239C109.991 589.235 118.472 582.557 127.473 576.367M112.588 666.113C117.261 671 122.973 674.909 129.204 677.515M201.554 652.92C202.073 664.322 202.765 675.723 203.285 686.962C203.458 688.916 198.092 696.897 195.15 698.037C173.168 706.833 149.974 715.791 126.434 712.696C107.395 710.253 90.2594 700.155 75.5471 688.265M117.78 715.465C104.625 715.954 91.4709 716.606 78.4895 717.094C73.2969 717.257 67.412 717.42 63.431 714.162C61.3539 712.534 60.1423 710.09 58.9307 707.973C52.8727 696.409 46.8147 684.844 40.7567 673.28C37.295 666.602 33.8333 659.761 34.0064 652.432C34.1794 645.916 37.295 639.727 40.2375 633.864C45.6031 623.276 51.1419 612.689 56.5075 602.102C58.2384 598.845 59.9693 595.587 62.5655 593.144C68.1043 588.095 76.7586 587.28 83.509 583.534C89.0477 580.602 93.0287 575.716 98.0482 572.133C107.222 565.292 119.857 562.849 131.281 565.455" stroke="black" stroke-width="1.73948"/>
<path fill-rule="evenodd" clip-rule="evenodd" d="M306.962 436.942C300.558 406.809 293.115 367.882 290 352.245C289.308 348.336 285.327 345.567 281.173 346.056C260.921 348.173 233.055 352.245 218.515 354.363C213.15 355.177 209.342 359.901 210.207 364.95C212.111 377.003 215.4 397.688 216.785 407.135C232.708 407.624 273.037 409.09 277.538 409.253C281.519 409.415 285.846 412.673 286.192 415.116C286.711 419.188 287.057 423.586 284.461 427.006C282.038 430.264 277.538 431.404 273.557 432.218C265.249 433.847 235.132 436.127 228.554 436.127C226.997 436.127 225.093 436.128 224.4 437.431C223.708 438.571 224.4 440.037 224.054 441.177C223.881 441.665 223.362 442.154 223.189 442.643C222.323 444.109 222.496 445.737 223.189 447.203C223.881 448.669 225.093 449.809 226.304 450.949C241.882 448.343 264.556 446.226 272.345 444.597C283.25 442.317 307.482 436.453 307.482 436.453" fill="black"/>
<path d="M240.497 363.974C241.644 363.974 242.574 363.098 242.574 362.019C242.574 360.94 241.644 360.064 240.497 360.064C239.35 360.064 238.42 360.94 238.42 362.019C238.42 363.098 239.35 363.974 240.497 363.974Z" fill="#7B7B7B"/>
<path fill-rule="evenodd" clip-rule="evenodd" d="M231.151 366.088L220.074 367.717C218.343 368.043 216.785 366.903 216.612 365.274V365.111C216.266 363.482 217.478 362.016 219.208 361.853L230.286 360.225C232.017 359.899 233.575 361.039 233.748 362.668V362.831C233.921 364.297 232.709 365.762 231.151 366.088Z" fill="#7B7B7B"/>
<path fill-rule="evenodd" clip-rule="evenodd" d="M255.384 388.729C255.384 388.729 252.095 393.941 249.499 394.266C246.73 394.592 244.133 392.963 243.787 390.357C243.441 387.751 245.345 385.471 248.114 385.145C250.71 384.657 255.384 388.729 255.384 388.729Z" stroke="#EEEEEE" stroke-width="1.62704"/>
<path fill-rule="evenodd" clip-rule="evenodd" d="M267.327 386.938C267.673 389.544 265.77 391.824 263 392.15C260.231 392.475 255.557 388.566 255.557 388.566C255.557 388.566 258.846 383.354 261.442 383.029C264.385 382.703 266.808 384.494 267.327 386.938Z" stroke="#EEEEEE" stroke-width="1.62704"/>
<path d="M641.538 765.826C636.345 755.891 629.249 749.213 625.268 745.955C613.152 736.345 599.997 728.039 587.708 718.755C575.419 709.633 563.303 700.186 554.476 688.133C542.187 671.52 543.918 676.569 538.033 659.955M545.302 703.77C542.533 699.047 541.494 693.672 541.841 688.46M512.762 750.19C525.917 770.713 528.686 784.069 539.244 802.963C548.418 819.413 562.092 830.326 581.824 828.86C596.19 827.72 608.306 822.182 621.114 815.667C626.999 812.735 632.884 809.641 637.903 805.569C641.192 802.963 643.961 799.705 645.692 796.122C649.5 787.652 646.385 778.042 643.096 769.573M537.86 660.119C530.244 644.319 528.859 634.71 523.321 622.331C521.763 618.748 517.955 615.979 513.974 614.838C503.416 611.581 490.607 613.373 479.357 613.698H475.376C468.279 613.861 461.009 613.861 453.913 614.35C450.97 614.676 447.163 614.35 444.739 616.304C442.662 617.933 441.451 620.702 441.278 623.145C441.105 626.077 442.143 629.009 444.047 631.289C446.297 634.058 449.24 635.198 452.701 635.687C460.836 637.153 469.491 637.316 477.626 637.967C482.818 638.293 488.184 638.782 493.377 639.107C494.415 639.107 495.281 638.944 496.319 639.107C497.358 639.27 497.184 639.759 497.877 640.247C498.569 640.899 499.954 640.899 500.992 641.062C502.031 641.225 503.243 641.388 504.281 641.55M503.589 646.763C502.204 646.925 500.646 646.274 499.608 645.46C498.569 644.645 498.05 643.016 498.05 641.713M500.473 646.925C500.127 647.088 500.127 647.251 499.954 647.577C499.088 649.206 498.396 650.997 497.184 652.463C493.377 651.975 489.222 651.486 485.415 650.997C479.876 650.346 474.683 649.857 468.971 649.043C464.125 648.391 459.798 647.577 455.817 646.925C452.182 646.274 446.643 644.971 443.182 644.319C432.969 642.365 423.45 640.085 412.545 637.478C409.949 636.827 407.007 636.664 404.41 636.664C402.506 636.664 400.775 636.99 398.871 637.316C396.621 637.804 394.544 638.456 392.64 639.596C389.352 641.713 387.275 645.46 387.102 649.206V651.486C387.621 654.581 392.64 658.327 395.756 659.141C410.122 663.376 419.123 665.331 432.623 669.24C437.124 670.543 439.72 671.194 443.701 673.637C446.297 675.266 451.49 676.732 455.99 678.198C462.048 678.849 465.856 679.338 471.914 679.99C474.683 680.315 479.183 680.804 481.953 681.293C484.722 681.781 485.761 681.944 488.876 682.759M440.758 666.96C441.451 667.122 442.143 667.774 442.835 668.263C445.778 670.706 448.374 673.475 450.797 676.406M392.987 658.327C388.486 657.513 383.64 659.793 381.563 663.539C379.313 667.285 380.005 672.334 383.121 675.429C384.505 676.895 386.236 677.872 387.967 678.85C394.198 682.433 397.66 682.921 408.045 685.853C412.545 688.622 416.526 691.717 421.027 694.486C424.834 696.929 430.373 698.884 435.22 699.209C437.297 699.372 439.201 699.535 441.278 700.024C448.028 701.49 453.913 703.281 460.836 705.399C462.394 705.887 477.799 708.982 479.01 709.959M487.319 729.016C484.549 728.853 481.953 727.876 479.357 726.899C475.895 725.433 472.606 723.967 469.318 722.338C462.394 719.081 455.644 715.66 448.72 712.403C438.335 707.353 427.95 700.838 419.296 693.346M500.646 744.652C494.934 743.675 490.088 739.929 485.761 736.183C481.953 732.925 478.318 729.667 474.683 726.41M503.588 688.948C500.819 686.994 497.877 685.202 494.934 683.736M491.819 711.914C490.088 710.611 488.011 709.633 485.761 708.982M514.32 631.94C514.839 627.543 515.012 622.982 514.839 618.422M458.24 629.172C458.413 625.751 458.759 622.331 458.932 619.073M453.74 630.475C452.874 630.149 452.009 629.986 451.144 629.66C449.759 629.334 448.374 628.846 447.509 627.869C445.951 626.24 446.124 623.634 446.643 621.353M403.718 644.32C403.025 647.74 402.16 651.16 400.948 654.418M402.16 642.365C399.737 641.713 397.141 641.062 394.717 640.41M400.429 657.187C398.698 656.861 397.141 656.372 395.583 655.721M396.968 663.865C395.237 663.539 393.333 663.05 391.775 662.399M395.583 674.94C396.275 672.823 397.141 670.706 397.833 668.588M392.641 677.547C390.217 677.058 387.967 676.081 386.063 674.615M518.128 740.906C516.916 742.046 515.532 743.186 514.147 744C512.762 744.815 510.858 745.303 509.127 745.141M517.435 745.629C519.339 744.815 521.243 743.838 522.801 742.535" stroke="black" stroke-width="1.73948"/>
<path fill-rule="evenodd" clip-rule="evenodd" d="M501.513 592.688C501.513 590.082 501.859 590.082 501.859 577.866C501.859 576.563 500.994 574.609 497.532 573.632C485.243 572.98 415.143 572.654 395.411 572.654C392.642 572.654 390.392 574.772 390.392 577.378V640.737C398.18 636.502 408.393 635.362 416.701 638.457C422.239 640.412 436.779 642.855 438.163 642.855C440.413 643.018 439.721 643.506 440.76 641.877C442.317 639.76 443.529 631.127 443.183 630.15C443.01 629.173 442.317 628.359 441.971 627.381C440.587 624.449 441.106 621.029 442.837 618.26C443.875 616.794 446.991 615.98 448.029 614.677C449.241 613.211 448.202 611.094 449.068 609.465C452.703 601.321 454.953 592.688 457.03 584.056C460.145 583.078 496.32 591.385 501.513 592.688Z" fill="#8E1010"/>
<path fill-rule="evenodd" clip-rule="evenodd" d="M439.028 707.19C437.47 707.027 399.391 706.375 394.198 706.212C391.256 706.049 390.91 702.792 390.737 700.837C390.564 693.834 390.391 687.644 390.217 680.641C395.929 682.758 401.814 684.224 407.872 685.364" fill="#8E1010"/>
<path d="M511.551 614.026C511.551 613.863 513.455 605.394 514.667 600.182C515.186 597.901 513.628 595.621 511.205 595.132L461.703 583.731C459.106 583.079 456.683 584.545 455.991 586.989C454.087 593.992 450.106 608 448.029 614.678" stroke="black" stroke-width="0.813521"/>
<path d="M443.355 630.311C441.971 637.314 441.278 639.269 440.586 643.341" stroke="black" stroke-width="0.813521"/>
<path fill-rule="evenodd" clip-rule="evenodd" d="M478.839 587.801C475.723 586.986 472.781 586.335 469.492 585.521L461.53 613.861C464.299 613.861 471.05 613.698 471.742 613.535" fill="black"/>
<path d="M478.839 587.801C475.723 586.986 472.781 586.335 469.492 585.521L461.53 613.861C464.299 613.861 471.05 613.698 471.742 613.535" stroke="black" stroke-width="0.813521"/>
<path d="M479.011 587.638L471.741 613.698" stroke="black" stroke-width="0.813521"/>
<path d="M465.164 636.989L462.221 647.576" stroke="black" stroke-width="0.813521"/>
<path fill-rule="evenodd" clip-rule="evenodd" d="M465.337 637.315C463.433 637.152 457.375 636.338 455.991 636.175L453.221 646.11C455.471 646.599 460.145 647.413 462.222 647.576" fill="black"/>
<path d="M465.337 637.315C463.433 637.152 457.375 636.338 455.991 636.175L453.221 646.11C455.471 646.599 460.145 647.413 462.222 647.576" stroke="black" stroke-width="0.813521"/>
<path d="M240.448 80.2811C237.322 84.4516 236.279 86.5368 235.238 93.8351L235.179 93.6864C234.952 98.2624 235.511 107.41 239.406 113.645C240.448 137.625 246.343 161.605 249.47 164.733C251.489 164.733 251.769 153.42 251.996 144.287C252.119 139.282 249.458 134.931 249.827 133.454C250.393 131.19 251.88 129.848 253.455 128.426C254.781 127.23 256.169 125.977 257.122 124.071C258.042 122.23 257.541 115.923 256.963 108.643C256.815 106.777 256.661 104.846 256.526 102.911C252.641 102.322 248.684 102.947 245.659 106.076C248.574 101.893 252.646 100.049 256.303 99.394C256.231 98.094 256.174 96.8081 256.138 95.5545C251.294 95.3251 246.323 96.5508 243.574 101.133C246.176 94.6258 251.908 91.9261 256.116 91.0537C256.191 87.995 256.482 85.3304 257.122 83.4089C260.247 74.0304 271.7 66.7349 287.319 83.3823C277.609 69.0824 262.422 54.0308 249.827 64.6419C265.124 50.1034 277.053 63.6439 286.85 74.7642C290.401 78.796 293.673 82.5096 296.723 84.4516C302.444 88.0933 311.704 89.761 319.803 90.4161C332.108 88.0045 343.562 81.9236 347.788 76.1105C351.794 77.2555 355.564 77.7718 359.033 77.7457C347.086 63.3779 322.727 40.9634 293.597 34.4062C312.06 34.4062 352.268 50.7226 369.445 75.7485C371.612 74.8476 373.542 73.6632 375.202 72.239C370.272 65.2048 357.99 52.542 336.325 41.7045C357.523 46.8459 372.246 58.9201 380.112 68.0065C388.253 69.2268 397.986 57.414 401.979 51.0879L399.895 76.1105C403.716 76.1105 411.358 79.4469 411.358 92.7923C411.358 99.0977 410.763 104.509 410.247 109.196C409.398 116.909 408.766 122.659 411.358 127.199C412.811 129.741 414.263 131.145 415.495 132.336C417.799 134.563 419.332 136.044 418.653 142.838C417.82 151.179 416.004 163.69 417.046 168.903L420.172 167.86L428.033 139.71C429.422 137.972 432.201 133.037 432.201 127.199C432.201 124.429 431.301 122.11 430.354 119.672C428.806 115.685 427.135 111.378 429.075 104.261C430.403 99.3896 431.919 97.716 433.144 96.3638C434.802 94.5326 435.927 93.2909 435.328 85.494C434.285 71.9401 416.569 34.4061 404.064 42.747C397.811 19.8095 389.474 14.5966 370.715 14.5966C361.697 14.5966 354.124 11.2231 346.26 7.71975C337.765 3.93568 328.93 0 317.566 0C304.576 0 298.93 5.50961 292.999 11.2965C288.937 15.2593 284.742 19.3522 277.965 21.8948C264.626 26.8994 259.901 32.321 259.206 34.4062C248.438 37.1865 226.9 48.1687 226.9 69.855C226.9 81.4911 231.708 89.2192 234.616 92.2006C233.101 87.9323 231.368 80.2811 240.448 80.2811Z" fill="black"/>
</svg>
