<svg width="122" height="64" viewBox="0 0 122 64" fill="none" xmlns="http://www.w3.org/2000/svg">
<rect width="52.9751" height="80.0647" rx="4.21393" transform="matrix(4.37114e-08 1 1 -4.37114e-08 41.9336 4.6123)" fill="#E5613E"/>
<rect width="51.1692" height="78.8607" rx="4.21393" transform="matrix(4.37114e-08 1 1 -4.37114e-08 42.5391 5.21387)" fill="#EAEAEA"/>
<mask id="path-3-inside-1_243_4419" fill="white">
<path d="M50.7451 8.27832C51.465 8.27832 51.6912 8.80066 51.8803 9.32292C51.9606 9.54422 53.8303 14.7307 53.886 14.8863C53.9017 14.9293 53.8914 15.001 53.8253 15.0266C53.7591 15.0517 52.7875 15.4347 52.7339 15.4552C52.6802 15.4755 52.6197 15.4453 52.6 15.3912C52.58 15.3374 52.1773 14.2067 52.1319 14.0803C51.9979 14.0803 49.4954 14.0803 49.3617 14.0803C49.3161 14.2067 48.9092 15.3397 48.8905 15.3912C48.872 15.4432 48.8135 15.4779 48.7568 15.4552C48.6998 15.4324 47.7239 15.0493 47.6662 15.0266C47.6104 15.0049 47.5847 14.9405 47.6047 14.8863C47.6732 14.6918 49.5145 9.58894 49.6087 9.32292C49.791 8.80897 50.0255 8.27832 50.7451 8.27832ZM47.4565 17.5578C47.3984 17.5578 47.3516 17.6068 47.3516 17.6669V18.8787C47.3516 18.9392 47.3985 18.9875 47.4565 18.9875H54.0339C54.0915 18.9875 54.1379 18.9392 54.1379 18.8787V17.6669C54.1379 17.6069 54.0915 17.5578 54.0339 17.5578H47.4565ZM50.7396 9.97181L49.8027 12.8208H51.6912L50.7511 9.97181H50.7396ZM64.7936 14.6428C64.6558 14.6906 64.5648 14.7022 64.4561 14.7022C64.2323 14.7022 64.1076 14.6124 64.1076 14.3795C64.1076 14.1372 64.266 14.0556 64.5761 14.0556C64.6509 14.0556 64.7262 14.0668 64.761 14.079V14.2524C64.761 14.44 64.7707 14.5629 64.7936 14.6428ZM65.5894 14.9212C65.4243 14.6665 65.3812 14.5166 65.3812 14.1955V13.5451C65.3812 13.1938 65.3411 13.0677 65.2491 12.9394C65.1221 12.7584 64.9102 12.68 64.5195 12.68C64.2437 12.68 63.9754 12.7104 63.716 12.7771L63.8088 13.2403C63.9848 13.2155 64.1687 13.1938 64.2985 13.1938C64.7133 13.1938 64.7611 13.2549 64.7611 13.5698V13.6875C64.669 13.6626 64.565 13.6446 64.4447 13.6446C63.8207 13.6446 63.4912 13.9537 63.4912 14.4653C63.4912 14.9454 63.8428 15.2071 64.2721 15.2071C64.4329 15.2071 64.6 15.1772 64.7324 15.1229C64.8122 15.0872 64.8469 15.0667 64.951 14.9982C65.0127 15.0906 65.1382 15.1844 65.1891 15.2013L65.5894 14.9212ZM71.7622 14.6428C71.6241 14.6906 71.5337 14.7022 71.4246 14.7022C71.2004 14.7022 71.0737 14.6124 71.0737 14.3795C71.0737 14.1372 71.234 14.0556 71.5448 14.0556C71.6197 14.0556 71.6946 14.0668 71.7287 14.079V14.2524C71.7287 14.44 71.7389 14.5629 71.7622 14.6428ZM72.5582 14.9212C72.3922 14.6665 72.3496 14.5166 72.3496 14.1955V13.5451C72.3496 13.1938 72.3093 13.0677 72.2171 12.9394C72.0904 12.7584 71.8785 12.68 71.4875 12.68C71.2113 12.68 70.9407 12.7104 70.682 12.7771L70.7743 13.2403C70.9502 13.2155 71.1348 13.1938 71.2673 13.1938C71.6808 13.1938 71.7287 13.2549 71.7287 13.5698V13.6875C71.6371 13.6626 71.5338 13.6446 71.4126 13.6446C70.7866 13.6446 70.4567 13.9537 70.4567 14.4653C70.4567 14.9454 70.8087 15.2071 71.2404 15.2071C71.401 15.2071 71.5681 15.1772 71.7002 15.1229C71.7808 15.0872 71.815 15.0667 71.9185 14.9982C71.9809 15.0906 72.1067 15.1844 72.1574 15.2013L72.5582 14.9212ZM77.4173 15.1529C77.4173 15.1529 77.0756 14.4141 76.9923 14.2467C76.8977 14.057 76.8108 13.926 76.6179 13.88V13.8686C76.747 13.8439 76.8499 13.7644 76.9606 13.523C77.0684 13.2872 77.0997 13.2364 77.162 13.1808C77.2238 13.1243 77.3078 13.1454 77.3078 13.1454L77.3398 12.7091C77.2499 12.6972 77.1505 12.6968 77.048 12.7028C76.8786 12.7131 76.7905 12.7619 76.7071 12.8475C76.6424 12.9128 76.5978 13.0102 76.5431 13.1218C76.4843 13.2438 76.4381 13.3423 76.3784 13.4667C76.3187 13.5937 76.289 13.6507 76.1269 13.6507H76.0218V11.7221H75.3957V15.1529H76.0218V14.1666L76.1067 14.1648C76.2862 14.1648 76.3173 14.2097 76.4118 14.4011C76.5231 14.6296 76.7348 15.1529 76.7348 15.1529H77.4173ZM59.8162 15.1529H60.5375L59.4472 11.78C59.3328 11.7409 59.19 11.7164 59.0384 11.7164C58.8728 11.7164 58.814 11.7388 58.6842 11.78L57.5309 15.1529H58.2224C58.2224 15.1529 58.3155 14.8572 58.4261 14.4899H59.6215C59.7287 14.8569 59.8162 15.1529 59.8162 15.1529ZM58.6017 13.9243C58.6017 13.9243 58.8007 13.2477 58.8314 13.1419C58.9121 12.8695 59.0323 12.4361 59.0323 12.4361H59.0524C59.0524 12.4361 59.1633 12.8853 59.2364 13.1378C59.2641 13.2376 59.4549 13.9243 59.4549 13.9243H58.6017ZM66.6541 13.5392C66.4333 13.5392 66.2543 13.7212 66.2543 13.9448C66.2543 14.1694 66.4333 14.3501 66.6541 14.3501C66.8747 14.3501 67.0534 14.1694 67.0534 13.9448C67.0534 13.7212 66.8746 13.5392 66.6541 13.5392ZM61.3939 11.7221H60.7676V15.1529H61.3939V11.7221ZM73.8399 13.2251C74.1855 13.2331 74.228 13.305 74.228 13.5996V15.1529H74.8485V13.545C74.8485 13.1938 74.8083 13.0676 74.7163 12.9394C74.5894 12.7583 74.3383 12.6799 73.9152 12.6799C73.4965 12.6799 73.2301 12.725 72.8863 12.8286V15.1529H73.5133V13.2549C73.6786 13.2307 73.7068 13.2251 73.8399 13.2251ZM62.9426 11.6613C62.5519 11.6613 62.3395 11.7392 62.2127 11.9203C62.1208 12.0485 62.0805 12.178 62.0805 12.5295V12.8286H61.7693V13.3414H62.0805V15.1529H62.7008L62.6994 13.3414H63.3191V12.8286H62.6994L62.7008 12.5536C62.7008 12.2391 62.749 12.1781 63.1636 12.1781C63.2081 12.1781 63.2585 12.1805 63.3125 12.1847L63.4104 11.6922C63.2569 11.6712 63.1003 11.6613 62.9426 11.6613ZM67.9273 11.6929C68.1404 11.6804 68.6162 11.6624 68.9158 11.6624C68.9691 11.6624 69.025 11.6629 69.0823 11.6655C69.6708 11.6655 70.0072 12.0994 70.0072 12.608C70.0072 12.9539 69.8509 13.1835 69.4844 13.3206C69.9163 13.4173 70.1423 13.7588 70.1423 14.1757C70.1423 14.482 70.0561 14.7249 69.899 14.891C69.6966 15.0939 69.3897 15.2071 68.9812 15.2069C68.6161 15.2069 68.16 15.1959 67.9272 15.1818L67.9273 11.6929ZM68.9159 12.2554C68.811 12.2554 68.684 12.2571 68.5563 12.2618C68.5563 12.3178 68.5563 13.0298 68.5563 13.0856C68.6078 13.0856 68.9165 13.0856 68.9165 13.0856C69.0576 13.0856 69.1727 13.0454 69.2511 12.9679C69.3249 12.8953 69.3632 12.7919 69.3632 12.6692C69.3632 12.4063 69.2228 12.2567 68.9614 12.2554C68.9397 12.2554 68.9303 12.2554 68.9159 12.2554ZM68.9278 14.616C68.9374 14.616 68.9471 14.616 68.9567 14.616C69.2805 14.616 69.4814 14.4402 69.4834 14.0865C69.4798 13.9588 69.4321 13.842 69.3467 13.7573C69.2517 13.6615 69.1185 13.6113 68.9623 13.6113C68.9623 13.6113 68.6089 13.6113 68.5563 13.6113C68.5563 13.6681 68.5563 14.5551 68.5563 14.612C68.6708 14.6145 68.7966 14.6154 68.9278 14.616Z"/>
</mask>
<path d="M50.7451 8.27832C51.465 8.27832 51.6912 8.80066 51.8803 9.32292C51.9606 9.54422 53.8303 14.7307 53.886 14.8863C53.9017 14.9293 53.8914 15.001 53.8253 15.0266C53.7591 15.0517 52.7875 15.4347 52.7339 15.4552C52.6802 15.4755 52.6197 15.4453 52.6 15.3912C52.58 15.3374 52.1773 14.2067 52.1319 14.0803C51.9979 14.0803 49.4954 14.0803 49.3617 14.0803C49.3161 14.2067 48.9092 15.3397 48.8905 15.3912C48.872 15.4432 48.8135 15.4779 48.7568 15.4552C48.6998 15.4324 47.7239 15.0493 47.6662 15.0266C47.6104 15.0049 47.5847 14.9405 47.6047 14.8863C47.6732 14.6918 49.5145 9.58894 49.6087 9.32292C49.791 8.80897 50.0255 8.27832 50.7451 8.27832ZM47.4565 17.5578C47.3984 17.5578 47.3516 17.6068 47.3516 17.6669V18.8787C47.3516 18.9392 47.3985 18.9875 47.4565 18.9875H54.0339C54.0915 18.9875 54.1379 18.9392 54.1379 18.8787V17.6669C54.1379 17.6069 54.0915 17.5578 54.0339 17.5578H47.4565ZM50.7396 9.97181L49.8027 12.8208H51.6912L50.7511 9.97181H50.7396ZM64.7936 14.6428C64.6558 14.6906 64.5648 14.7022 64.4561 14.7022C64.2323 14.7022 64.1076 14.6124 64.1076 14.3795C64.1076 14.1372 64.266 14.0556 64.5761 14.0556C64.6509 14.0556 64.7262 14.0668 64.761 14.079V14.2524C64.761 14.44 64.7707 14.5629 64.7936 14.6428ZM65.5894 14.9212C65.4243 14.6665 65.3812 14.5166 65.3812 14.1955V13.5451C65.3812 13.1938 65.3411 13.0677 65.2491 12.9394C65.1221 12.7584 64.9102 12.68 64.5195 12.68C64.2437 12.68 63.9754 12.7104 63.716 12.7771L63.8088 13.2403C63.9848 13.2155 64.1687 13.1938 64.2985 13.1938C64.7133 13.1938 64.7611 13.2549 64.7611 13.5698V13.6875C64.669 13.6626 64.565 13.6446 64.4447 13.6446C63.8207 13.6446 63.4912 13.9537 63.4912 14.4653C63.4912 14.9454 63.8428 15.2071 64.2721 15.2071C64.4329 15.2071 64.6 15.1772 64.7324 15.1229C64.8122 15.0872 64.8469 15.0667 64.951 14.9982C65.0127 15.0906 65.1382 15.1844 65.1891 15.2013L65.5894 14.9212ZM71.7622 14.6428C71.6241 14.6906 71.5337 14.7022 71.4246 14.7022C71.2004 14.7022 71.0737 14.6124 71.0737 14.3795C71.0737 14.1372 71.234 14.0556 71.5448 14.0556C71.6197 14.0556 71.6946 14.0668 71.7287 14.079V14.2524C71.7287 14.44 71.7389 14.5629 71.7622 14.6428ZM72.5582 14.9212C72.3922 14.6665 72.3496 14.5166 72.3496 14.1955V13.5451C72.3496 13.1938 72.3093 13.0677 72.2171 12.9394C72.0904 12.7584 71.8785 12.68 71.4875 12.68C71.2113 12.68 70.9407 12.7104 70.682 12.7771L70.7743 13.2403C70.9502 13.2155 71.1348 13.1938 71.2673 13.1938C71.6808 13.1938 71.7287 13.2549 71.7287 13.5698V13.6875C71.6371 13.6626 71.5338 13.6446 71.4126 13.6446C70.7866 13.6446 70.4567 13.9537 70.4567 14.4653C70.4567 14.9454 70.8087 15.2071 71.2404 15.2071C71.401 15.2071 71.5681 15.1772 71.7002 15.1229C71.7808 15.0872 71.815 15.0667 71.9185 14.9982C71.9809 15.0906 72.1067 15.1844 72.1574 15.2013L72.5582 14.9212ZM77.4173 15.1529C77.4173 15.1529 77.0756 14.4141 76.9923 14.2467C76.8977 14.057 76.8108 13.926 76.6179 13.88V13.8686C76.747 13.8439 76.8499 13.7644 76.9606 13.523C77.0684 13.2872 77.0997 13.2364 77.162 13.1808C77.2238 13.1243 77.3078 13.1454 77.3078 13.1454L77.3398 12.7091C77.2499 12.6972 77.1505 12.6968 77.048 12.7028C76.8786 12.7131 76.7905 12.7619 76.7071 12.8475C76.6424 12.9128 76.5978 13.0102 76.5431 13.1218C76.4843 13.2438 76.4381 13.3423 76.3784 13.4667C76.3187 13.5937 76.289 13.6507 76.1269 13.6507H76.0218V11.7221H75.3957V15.1529H76.0218V14.1666L76.1067 14.1648C76.2862 14.1648 76.3173 14.2097 76.4118 14.4011C76.5231 14.6296 76.7348 15.1529 76.7348 15.1529H77.4173ZM59.8162 15.1529H60.5375L59.4472 11.78C59.3328 11.7409 59.19 11.7164 59.0384 11.7164C58.8728 11.7164 58.814 11.7388 58.6842 11.78L57.5309 15.1529H58.2224C58.2224 15.1529 58.3155 14.8572 58.4261 14.4899H59.6215C59.7287 14.8569 59.8162 15.1529 59.8162 15.1529ZM58.6017 13.9243C58.6017 13.9243 58.8007 13.2477 58.8314 13.1419C58.9121 12.8695 59.0323 12.4361 59.0323 12.4361H59.0524C59.0524 12.4361 59.1633 12.8853 59.2364 13.1378C59.2641 13.2376 59.4549 13.9243 59.4549 13.9243H58.6017ZM66.6541 13.5392C66.4333 13.5392 66.2543 13.7212 66.2543 13.9448C66.2543 14.1694 66.4333 14.3501 66.6541 14.3501C66.8747 14.3501 67.0534 14.1694 67.0534 13.9448C67.0534 13.7212 66.8746 13.5392 66.6541 13.5392ZM61.3939 11.7221H60.7676V15.1529H61.3939V11.7221ZM73.8399 13.2251C74.1855 13.2331 74.228 13.305 74.228 13.5996V15.1529H74.8485V13.545C74.8485 13.1938 74.8083 13.0676 74.7163 12.9394C74.5894 12.7583 74.3383 12.6799 73.9152 12.6799C73.4965 12.6799 73.2301 12.725 72.8863 12.8286V15.1529H73.5133V13.2549C73.6786 13.2307 73.7068 13.2251 73.8399 13.2251ZM62.9426 11.6613C62.5519 11.6613 62.3395 11.7392 62.2127 11.9203C62.1208 12.0485 62.0805 12.178 62.0805 12.5295V12.8286H61.7693V13.3414H62.0805V15.1529H62.7008L62.6994 13.3414H63.3191V12.8286H62.6994L62.7008 12.5536C62.7008 12.2391 62.749 12.1781 63.1636 12.1781C63.2081 12.1781 63.2585 12.1805 63.3125 12.1847L63.4104 11.6922C63.2569 11.6712 63.1003 11.6613 62.9426 11.6613ZM67.9273 11.6929C68.1404 11.6804 68.6162 11.6624 68.9158 11.6624C68.9691 11.6624 69.025 11.6629 69.0823 11.6655C69.6708 11.6655 70.0072 12.0994 70.0072 12.608C70.0072 12.9539 69.8509 13.1835 69.4844 13.3206C69.9163 13.4173 70.1423 13.7588 70.1423 14.1757C70.1423 14.482 70.0561 14.7249 69.899 14.891C69.6966 15.0939 69.3897 15.2071 68.9812 15.2069C68.6161 15.2069 68.16 15.1959 67.9272 15.1818L67.9273 11.6929ZM68.9159 12.2554C68.811 12.2554 68.684 12.2571 68.5563 12.2618C68.5563 12.3178 68.5563 13.0298 68.5563 13.0856C68.6078 13.0856 68.9165 13.0856 68.9165 13.0856C69.0576 13.0856 69.1727 13.0454 69.2511 12.9679C69.3249 12.8953 69.3632 12.7919 69.3632 12.6692C69.3632 12.4063 69.2228 12.2567 68.9614 12.2554C68.9397 12.2554 68.9303 12.2554 68.9159 12.2554ZM68.9278 14.616C68.9374 14.616 68.9471 14.616 68.9567 14.616C69.2805 14.616 69.4814 14.4402 69.4834 14.0865C69.4798 13.9588 69.4321 13.842 69.3467 13.7573C69.2517 13.6615 69.1185 13.6113 68.9623 13.6113C68.9623 13.6113 68.6089 13.6113 68.5563 13.6113C68.5563 13.6681 68.5563 14.5551 68.5563 14.612C68.6708 14.6145 68.7966 14.6154 68.9278 14.616Z" stroke="black" stroke-width="0.60199" mask="url(#path-3-inside-1_243_4419)"/>
<path d="M105.335 43.9999L103.285 49.0019H102.161L100.98 44.4186L100.956 44.3237L100.872 44.2729C100.697 44.1668 100.528 44.0765 100.369 43.9999H101.522C101.752 43.9999 101.847 44.0869 101.893 44.1488C101.92 44.1849 101.936 44.2218 101.945 44.2497C101.949 44.2634 101.951 44.274 101.953 44.28L101.953 44.2841L101.954 44.2896L101.956 44.2984L102.431 46.7644L102.435 46.7637L102.431 46.7648L102.59 47.577L102.759 48.4362L103.054 47.6116L104.343 43.9999H105.335ZM111.917 49.0017L113.886 44.2599L113.89 44.2499L113.892 44.2427C113.892 44.2421 113.893 44.2413 113.893 44.2403C113.895 44.2358 113.899 44.2272 113.904 44.2159C113.916 44.1931 113.937 44.1613 113.967 44.1295C114.023 44.0709 114.124 43.9998 114.315 43.9998H115.255L116.286 49.0017H115.482L115.355 48.3801L115.316 48.1872H115.119H113.323H113.154L113.097 48.3461L112.86 49.0017H111.917ZM108.034 48.1802C108.149 48.2318 108.274 48.2747 108.4 48.3091C108.666 48.3814 108.96 48.4218 109.238 48.4213C109.511 48.4207 109.789 48.3804 110.009 48.273C110.237 48.1613 110.427 47.9599 110.427 47.6547C110.427 47.3458 110.218 47.1424 110.019 47.0025C109.882 46.9065 109.707 46.8128 109.538 46.7224C109.465 46.6836 109.394 46.6453 109.327 46.6078C108.847 46.3379 108.473 46.0409 108.473 45.4764C108.473 44.8355 108.817 44.4528 109.264 44.2172C109.723 43.9753 110.273 43.9019 110.598 43.9019C110.895 43.9019 111.191 43.957 111.417 44.0141C111.485 44.0311 111.545 44.0481 111.596 44.0635L111.481 44.7349C111.163 44.6251 110.778 44.5678 110.441 44.5802C110.214 44.5886 109.981 44.6295 109.797 44.7287C109.602 44.8333 109.446 45.0155 109.446 45.2814V45.2815C109.446 45.5747 109.678 45.7628 109.862 45.8839C109.964 45.951 110.079 46.0155 110.195 46.0785C110.216 46.0902 110.237 46.1018 110.259 46.1135C110.356 46.1661 110.453 46.219 110.55 46.2762C111.033 46.5588 111.417 46.8864 111.417 47.4598C111.417 48.0442 111.114 48.4437 110.684 48.7082C110.245 48.9779 109.687 49.0963 109.239 49.0963C108.783 49.0963 108.407 49.023 108.145 48.9503C108.054 48.9248 107.976 48.8993 107.915 48.8773L108.034 48.1802ZM113.504 47.2209L113.387 47.5436H113.73H114.89H115.185L115.126 47.2548L114.708 45.2028L114.538 44.363L114.246 45.1689L113.504 47.2209ZM107.375 43.9999L106.569 49.0017H105.645L106.45 43.9999H107.375Z" stroke="black" stroke-width="0.481592"/>
<path d="M60.2947 61.2531C59.6927 60.6511 58.7897 59.4471 57.8867 58.5442C59.3917 57.4562 65.2877 55.6544 68.1205 58.5442" stroke="black" stroke-width="0.60199"/>
<path d="M112.336 22.626C112.991 23.2809 112.991 24.2633 112.445 24.9182" stroke="black" stroke-width="0.722388" stroke-linecap="round"/>
<path d="M113.43 21.9707C114.56 23.0311 114.56 24.6216 113.618 25.6819" stroke="black" stroke-width="0.722388" stroke-linecap="round"/>
<path d="M114.52 21.0977C116.216 22.657 116.216 24.996 114.802 26.5554" stroke="black" stroke-width="0.722388" stroke-linecap="round"/>
<path d="M114.52 21.0977C116.216 22.657 116.216 24.996 114.802 26.5554" stroke="black" stroke-width="0.722388" stroke-linecap="round"/>
<path d="M115.832 20.2246C118.094 22.2829 118.094 25.3705 116.209 27.4288" stroke="black" stroke-width="0.722388" stroke-linecap="round"/>
<path d="M48.6409 49.8057V49.5485L48.8687 49.5044V47.9685L48.6409 47.9244V47.6658H49.5257V47.9244L49.2979 47.9685V49.5044L49.5257 49.5485V49.8057H48.6409ZM50.9883 49.8057L50.3005 47.948L50.1094 47.9244V47.6658H50.9604V47.9244L50.7679 47.9538L51.1882 49.2163L51.2205 49.3339H51.2293L51.2602 49.2193L51.6805 47.9538L51.4557 47.9244V47.6658H52.2669V47.9244L52.0729 47.948L51.4277 49.8057H50.9883ZM52.5053 49.8057V49.5485L52.6582 49.5264L53.3387 47.6658H53.7781L54.4542 49.5264L54.607 49.5485V49.8057H53.878V49.5485L54.0265 49.522L53.9324 49.2281H53.1799L53.0859 49.522L53.2343 49.5485V49.8057H52.5053ZM53.2813 48.9121H53.831L53.5812 48.1787L53.5606 48.114H53.5518L53.5297 48.1831L53.2813 48.9121ZM55.2011 49.8057V49.5485L55.4289 49.5044V47.9685L55.2011 47.9244V47.6658H55.4289H55.8639L56.7957 49.1502L56.8045 49.1487V47.9685L56.5311 47.9244V47.6658H57.1881H57.4174V47.9244L57.1881 47.9685V49.8057H56.7736L55.8213 48.336L55.8125 48.3374V49.5044L56.0873 49.5485V49.8057H55.2011ZM58.9902 49.8365C58.8462 49.8365 58.7149 49.8096 58.5964 49.7557C58.4778 49.7018 58.3754 49.6264 58.2892 49.5294C58.204 49.4314 58.1383 49.3167 58.0923 49.1854C58.0462 49.0532 58.0232 48.9087 58.0232 48.7519V48.7196C58.0232 48.5638 58.0462 48.4202 58.0923 48.2889C58.1383 48.1567 58.204 48.0415 58.2892 47.9436C58.3744 47.8456 58.4763 47.7696 58.5949 47.7157C58.7135 47.6619 58.8447 47.6349 58.9888 47.6349C59.1338 47.6349 59.2661 47.6619 59.3856 47.7157C59.5051 47.7696 59.608 47.8456 59.6942 47.9436C59.7805 48.0415 59.8466 48.1567 59.8926 48.2889C59.9397 48.4202 59.9632 48.5638 59.9632 48.7196V48.7519C59.9632 48.9087 59.9397 49.0532 59.8926 49.1854C59.8466 49.3167 59.7805 49.4314 59.6942 49.5294C59.608 49.6264 59.5051 49.7018 59.3856 49.7557C59.267 49.8096 59.1353 49.8365 58.9902 49.8365ZM58.9902 49.5029C59.1117 49.5029 59.2127 49.4716 59.293 49.4088C59.3733 49.3461 59.4336 49.2584 59.4738 49.1458C59.5149 49.0331 59.5355 48.9018 59.5355 48.7519V48.7166C59.5355 48.5687 59.5149 48.4388 59.4738 48.3271C59.4326 48.2145 59.3714 48.1268 59.2901 48.0641C59.2097 48.0014 59.1093 47.97 58.9888 47.97C58.8692 47.97 58.7698 48.0014 58.6904 48.0641C58.6111 48.1258 58.5513 48.2125 58.5111 48.3242C58.4719 48.4359 58.4523 48.5667 58.4523 48.7166V48.7519C58.4523 48.9018 58.4719 49.0331 58.5111 49.1458C58.5513 49.2584 58.6111 49.3461 58.6904 49.4088C58.7708 49.4716 58.8707 49.5029 58.9902 49.5029ZM61.4009 49.8057L60.713 47.948L60.522 47.9244V47.6658H61.3729V47.9244L61.1804 47.9538L61.6007 49.2163L61.6331 49.3339H61.6419L61.6727 49.2193L62.0931 47.9538L61.8682 47.9244V47.6658H62.6795V47.9244L62.4855 47.948L61.8403 49.8057H61.4009ZM66.8311 49.8057V49.5485L67.0589 49.5044V47.9685L66.8311 47.9244V47.6658H67.7159V47.9244L67.4881 47.9685V49.5044L67.7159 49.5485V49.8057H66.8311ZM69.1785 49.8057L68.4907 47.948L68.2996 47.9244V47.6658H69.1506V47.9244L68.9581 47.9538L69.3784 49.2163L69.4107 49.3339H69.4195L69.4504 49.2193L69.8707 47.9538L69.6459 47.9244V47.6658H70.4572V47.9244L70.2632 47.948L69.618 49.8057H69.1785ZM70.6955 49.8057V49.5485L70.8484 49.5264L71.5289 47.6658H71.9683L72.6444 49.5264L72.7972 49.5485V49.8057H72.0682V49.5485L72.2167 49.522L72.1226 49.2281H71.3701L71.2761 49.522L71.4245 49.5485V49.8057H70.6955ZM71.4715 48.9121H72.0212L71.7714 48.1787L71.7508 48.114H71.742L71.7199 48.1831L71.4715 48.9121ZM73.3913 49.8057V49.5485L73.6191 49.5044V47.9685L73.3913 47.9244V47.6658H73.6191H74.0541L74.9859 49.1502L74.9947 49.1487V47.9685L74.7214 47.9244V47.6658H75.3783H75.6076V47.9244L75.3783 47.9685V49.8057H74.9639L74.0115 48.336L74.0027 48.3374V49.5044L74.2775 49.5485V49.8057H73.3913Z" fill="black"/>
<path d="M100.175 39.5947C99.9546 39.5947 99.755 39.5547 99.5759 39.4745C99.3969 39.3926 99.2553 39.275 99.1513 39.1215C99.0489 38.9663 99.0003 38.7786 99.0054 38.5586L99.0106 38.5433L99.6169 38.5228C99.6169 38.7036 99.668 38.8452 99.7704 38.9475C99.8744 39.0481 100.009 39.0984 100.175 39.0984C100.366 39.0984 100.51 39.0311 100.607 38.8963C100.706 38.7599 100.755 38.5791 100.755 38.354C100.755 38.1288 100.704 37.9463 100.602 37.8065C100.501 37.6666 100.355 37.5967 100.164 37.5967C100.001 37.5967 99.8778 37.6248 99.796 37.6811C99.7141 37.7374 99.6553 37.8176 99.6194 37.9216L99.0592 37.8781L99.2741 35.8161H101.344V36.6169H100.919L100.86 36.3508H99.8113L99.6987 37.2897C99.7465 37.2539 99.8002 37.2223 99.8599 37.1951C99.9196 37.1661 99.9844 37.143 100.054 37.126C100.124 37.1089 100.199 37.0995 100.279 37.0978C100.515 37.0961 100.716 37.1456 100.883 37.2462C101.05 37.3451 101.177 37.4884 101.264 37.676C101.353 37.8636 101.397 38.0879 101.397 38.3488C101.397 38.5927 101.351 38.8085 101.257 38.9961C101.163 39.182 101.025 39.3287 100.842 39.4361C100.662 39.5419 100.439 39.5947 100.175 39.5947ZM103.936 39.5947C103.683 39.5947 103.459 39.535 103.263 39.4157C103.067 39.2963 102.913 39.124 102.802 38.8989C102.692 38.672 102.636 38.3992 102.636 38.0802V37.4918C102.636 37.1217 102.698 36.8087 102.82 36.5529C102.945 36.2954 103.115 36.0992 103.332 35.9645C103.55 35.8298 103.801 35.7624 104.084 35.7624C104.219 35.7624 104.347 35.776 104.468 35.8033C104.589 35.8306 104.702 35.869 104.806 35.9185L104.688 36.3917C104.601 36.3559 104.509 36.3269 104.412 36.3048C104.314 36.2809 104.21 36.2689 104.097 36.2689C103.845 36.2689 103.649 36.3576 103.511 36.535C103.373 36.7107 103.3 36.9733 103.294 37.323L103.304 37.3358C103.393 37.2488 103.503 37.1797 103.634 37.1285C103.767 37.0774 103.913 37.0518 104.071 37.0518C104.293 37.0518 104.485 37.1055 104.647 37.213C104.809 37.3187 104.934 37.4654 105.021 37.653C105.108 37.8406 105.151 38.0538 105.151 38.2926C105.151 38.5467 105.1 38.7718 104.998 38.968C104.897 39.1624 104.755 39.3159 104.573 39.4285C104.39 39.5393 104.178 39.5947 103.936 39.5947ZM103.928 39.0984C104.049 39.0984 104.152 39.0626 104.238 38.991C104.323 38.9193 104.389 38.8221 104.435 38.6993C104.482 38.5765 104.506 38.4392 104.506 38.2874C104.506 38.0674 104.452 37.8875 104.343 37.7476C104.235 37.6078 104.083 37.5379 103.887 37.5379C103.795 37.5379 103.71 37.5507 103.631 37.5762C103.553 37.6001 103.484 37.6351 103.424 37.6811C103.364 37.7255 103.315 37.7792 103.276 37.8423V38.1109C103.276 38.4282 103.336 38.672 103.457 38.8426C103.58 39.0132 103.737 39.0984 103.928 39.0984ZM107.59 39.5947C107.209 39.5947 106.908 39.4677 106.686 39.2136C106.466 38.9577 106.356 38.5876 106.356 38.1032V37.2565C106.356 36.7721 106.466 36.402 106.686 36.1461C106.907 35.8903 107.206 35.7624 107.584 35.7624C107.961 35.7624 108.261 35.8903 108.482 36.1461C108.704 36.402 108.815 36.7721 108.815 37.2565V38.1032C108.815 38.5893 108.705 38.9594 108.485 39.2136C108.265 39.4677 107.966 39.5947 107.59 39.5947ZM107.59 39.0984C107.779 39.0984 107.923 39.0242 108.022 38.8759C108.121 38.7275 108.17 38.4981 108.17 38.1877V37.1669C108.17 36.8599 108.12 36.6322 108.019 36.4838C107.919 36.3355 107.774 36.2613 107.584 36.2613C107.393 36.2613 107.248 36.3355 107.147 36.4838C107.048 36.6305 106.999 36.8582 106.999 37.1669V38.1877C106.999 38.4981 107.049 38.7275 107.15 38.8759C107.25 39.0242 107.397 39.0984 107.59 39.0984ZM111.154 39.5947C111.024 39.5947 110.891 39.5819 110.755 39.5564C110.618 39.5308 110.494 39.4924 110.381 39.4412L110.463 38.968C110.569 39.0123 110.677 39.0456 110.788 39.0677C110.899 39.0882 111.015 39.0984 111.136 39.0984C111.364 39.0984 111.544 39.0166 111.676 38.8528C111.807 38.6874 111.874 38.4273 111.878 38.0726L111.87 38.0342C111.793 38.145 111.695 38.2295 111.576 38.2874C111.457 38.3454 111.323 38.3744 111.177 38.3744C110.948 38.3744 110.749 38.3241 110.578 38.2235C110.409 38.1212 110.278 37.9745 110.184 37.7835C110.092 37.5907 110.046 37.3605 110.046 37.0927C110.046 36.8369 110.099 36.6092 110.205 36.4097C110.31 36.2084 110.455 36.0506 110.637 35.9364C110.821 35.8204 111.028 35.7624 111.256 35.7624C111.512 35.7624 111.735 35.8195 111.924 35.9338C112.115 36.0464 112.263 36.2127 112.369 36.4327C112.475 36.651 112.528 36.9188 112.528 37.236V37.9881C112.528 38.3361 112.47 38.6303 112.354 38.8707C112.238 39.1095 112.076 39.2903 111.87 39.4131C111.665 39.5342 111.427 39.5947 111.154 39.5947ZM111.271 37.8909C111.416 37.8909 111.541 37.8611 111.645 37.8014C111.749 37.74 111.828 37.6598 111.883 37.5609V37.1644C111.883 36.8676 111.828 36.6433 111.719 36.4915C111.612 36.338 111.46 36.2613 111.264 36.2613C111.155 36.2613 111.057 36.2979 110.97 36.3713C110.883 36.4429 110.814 36.5418 110.765 36.668C110.715 36.7925 110.691 36.9341 110.691 37.0927C110.691 37.2547 110.713 37.3955 110.757 37.5148C110.802 37.6342 110.867 37.7272 110.954 37.7937C111.041 37.8585 111.147 37.8909 111.271 37.8909Z" fill="black"/>
<path d="M78.3906 26.9912C79.0456 27.6461 80.3554 29.7856 80.3554 33.1038C80.3554 36.4221 79.0456 39.2893 78.3906 40.308" stroke="black" stroke-width="0.60199"/>
<path d="M76.6445 33.4317C76.6445 28.8909 77.7361 27.028 78.2818 26.6641C78.9732 26.4458 81.5783 25.8564 86.4684 25.2451C90.398 26.1184 93.0177 30.4845 93.0177 33.4317C93.0177 36.3788 91.2712 41.3999 87.9966 41.8366C85.3769 42.1859 80.4285 41.3272 78.2818 40.8542C77.7361 40.272 76.6445 37.9725 76.6445 33.4317Z" stroke="black" stroke-width="0.60199"/>
<path d="M42.7277 48.6113C40.1444 49.2663 34.3228 50.9036 31.7031 52.2134" stroke="black" stroke-width="0.60199"/>
<path d="M1 32.5585C6.2394 27.3555 17.8316 16.2727 22.2851 13.5656C27.8519 10.1819 33.528 8.87201 35.0561 7.78047C36.5843 6.68892 44.9891 0.685442 50.4469 1.0129C54.813 1.27487 60.489 3.96006 62.7813 5.26991" stroke="black" stroke-width="0.60199"/>
<path d="M31.7834 18.4775C35.1672 19.3508 38.1144 18.805 39.97 19.1325C41.8256 19.4599 48.7023 22.6254 56.1248 22.2979C63.5473 21.9705 66.0578 20.9881 73.6986 22.2979C81.3394 23.6078 87.3429 23.9352 90.2901 25.9C93.2372 27.8648 94.5471 31.1394 94.5471 33.9774C94.5471 36.8154 94.1105 42.0548 83.1951 44.7837C72.2796 47.5126 67.1494 46.7485 58.5262 45.7661C49.903 44.7837 46.5192 45.002 39.97 45.7661C33.4207 46.5302 25.6708 47.5126 19.3398 44.8929" stroke="black" stroke-width="0.60199"/>
<path d="M42.8059 55.1533C38.0395 57.5183 27.3715 62.3357 22.8307 62.685C18.2898 63.0343 15.3354 60.5019 14.4258 59.192" stroke="black" stroke-width="0.60199"/>
<path d="M59.1803 56.3543L52.6311 58.8648C51.3212 59.5197 47.7191 59.1268 45.9727 56.2451" stroke="black" stroke-width="0.60199"/>
<path d="M73.0438 56.3545C70.2422 57.7735 62.3904 61.4192 59.5087 61.5939C56.627 61.7685 54.7059 59.4472 54.1602 58.3193" stroke="black" stroke-width="0.60199"/>
<path d="M42.4805 45.3V53.1885C42.4805 54.997 43.9466 56.4631 45.7551 56.4631H118.015C119.824 56.4631 121.29 54.997 121.29 53.1885V8.65353C121.29 6.84501 119.824 5.37891 118.015 5.37891H45.7551C43.9466 5.37891 42.4805 6.845 42.4805 8.65353V20.0164" stroke="black" stroke-width="0.60199"/>
<path d="M14.4258 56.245C17.3002 56.7544 24.3806 56.8781 29.7074 53.2979C35.0341 49.7176 37.4573 47.9493 38.0031 47.5127" stroke="black" stroke-width="0.60199"/>
<path d="M61.1462 24.918C60.4185 25.9004 58.8758 28.7602 58.5265 32.3405C58.1772 35.9207 58.0898 38.1984 58.0898 38.8897" stroke="black" stroke-width="0.218308"/>
<path d="M65.1809 24.8086C65.5812 26.4095 66.338 30.2226 66.1633 32.6677C65.9887 35.1128 64.5624 37.6888 63.8711 38.6712" stroke="black" stroke-width="0.218308"/>
<path d="M69.0039 26.4463C69.4769 28.3747 70.1391 33.3012 69.0039 37.58" stroke="black" stroke-width="0.218308"/>
<path d="M71.0781 30.2666C71.3328 31.1035 71.6894 33.1919 71.0781 34.8511" stroke="black" stroke-width="0.218308"/>
<path d="M52.3039 39.8719C51.8673 37.9799 51.125 33.4754 51.649 30.5938" stroke="black" stroke-width="0.218308"/>
</svg>
