<svg width="56" height="56" viewBox="0 0 56 56" fill="none" xmlns="http://www.w3.org/2000/svg">
<path d="M54.5606 18.1931L37.8068 1.4393C35.8877 -0.479876 32.7649 -0.479658 30.8459 1.4393L9.82305 22.4623H4.92208C2.20805 22.4623 0 24.6704 0 27.3844V51.0779C0 53.7919 2.20805 56 4.92208 56H42.6165C45.3305 56 47.5386 53.7919 47.5386 51.0779V32.176L54.5606 25.1539C56.4798 23.2349 56.4798 20.1123 54.5606 18.1931ZM33.1663 3.75957C33.4862 3.43975 33.9064 3.27972 34.3265 3.27972C34.7466 3.27972 35.1667 3.43975 35.4866 3.75957L44.1194 12.3924L34.0494 22.4623H14.4635L33.1663 3.75957ZM44.2572 51.0779C44.2572 51.9826 43.5212 52.7186 42.6165 52.7186H4.92208C4.0174 52.7186 3.28139 51.9826 3.28139 51.0779V27.3844C3.28139 26.4797 4.0174 25.7437 4.92208 25.7437H42.6165C43.5212 25.7437 44.2572 26.4797 44.2572 27.3844V51.0779ZM43.2841 22.5088C43.0656 22.479 42.843 22.4623 42.6165 22.4623H38.69L46.4396 14.7125L48.76 17.0329L43.2841 22.5088ZM52.2404 22.8338L47.5386 27.5356V27.3844C47.5386 26.1372 47.0714 24.9976 46.3041 24.1294L51.0803 19.3532L52.2404 20.5133C52.8801 21.153 52.8801 22.194 52.2404 22.8338Z" fill="#2C2B39"/>
<path d="M6.56278 44.4709H12.6682V47.7523H6.56278V44.4709Z" fill="#2C2B39"/>
<path d="M15.9986 44.4709H22.1041V47.7523H15.9986V44.4709Z" fill="#2C2B39"/>
<path d="M25.4345 44.4709H31.54V47.7523H25.4345V44.4709Z" fill="#2C2B39"/>
<path d="M34.8703 44.4709H40.9758V47.7523H34.8703V44.4709Z" fill="#2C2B39"/>
<path d="M17.6393 30.7101H6.56278V40.5543H17.6393V30.7101ZM14.3579 37.2729H9.84416V33.9915H14.3579V37.2729Z" fill="#2C2B39"/>
</svg>
