<svg width="26" height="25" viewBox="0 0 26 25" fill="none" xmlns="http://www.w3.org/2000/svg">
<g clip-path="url(#clip0_327_3217)">
<path d="M19.5679 24.4923H1.8229C1.28441 24.4923 0.8479 24.0558 0.8479 23.5173V1.48232C0.8479 0.943832 1.28441 0.507324 1.8229 0.507324H19.5679C20.1064 0.507324 20.5429 0.943832 20.5429 1.48232V23.5173C20.5429 24.0558 20.1064 24.4923 19.5679 24.4923Z" fill="white"/>
<path d="M10.6955 11.1351C12.9033 11.1351 14.693 9.34539 14.693 7.13764C14.693 4.92988 12.9033 3.14014 10.6955 3.14014C8.48774 3.14014 6.698 4.92988 6.698 7.13764C6.698 9.34539 8.48774 11.1351 10.6955 11.1351Z" fill="#454B60"/>
<path d="M11.963 6.62541V6.94229C11.963 7.64229 11.3955 8.20979 10.6955 8.20979C9.99548 8.20979 9.42798 7.64229 9.42798 6.94229V6.62541C9.42798 5.92541 9.99548 5.35791 10.6955 5.35791C11.3955 5.35791 11.963 5.92541 11.963 6.62541Z" fill="#FFCDAC"/>
<path d="M10.6954 8.20996C9.45817 8.20996 8.40107 8.9786 7.97363 10.0641C8.68733 10.7281 9.64366 11.135 10.6954 11.135C11.7472 11.135 12.7035 10.7281 13.4172 10.0641C12.9898 8.9786 11.9327 8.20996 10.6954 8.20996Z" fill="#21CA50"/>
<path d="M21.6428 7.84867L21.9214 7.36619C22.3522 6.62007 23.3062 6.36443 24.0524 6.79518C24.7985 7.22598 25.0542 8.18002 24.6234 8.92619L18.4886 19.5519L15.7866 17.9919L18.4329 13.4084L21.6428 7.84867Z" fill="#E5613E"/>
<path d="M24.0526 6.79521C23.3064 6.36441 22.3524 6.62005 21.9215 7.36622L21.1973 8.62071L23.8993 10.1807L24.6236 8.92622C25.0543 8.1801 24.7987 7.22602 24.0526 6.79521Z" fill="#21CA50"/>
<path d="M18.4888 19.5522L15.355 21.8602L15.7868 17.9922L18.4888 19.5522Z" fill="white"/>
<path d="M15.1804 7.13734C15.1804 4.6643 13.1685 2.65234 10.6954 2.65234C8.22241 2.65234 6.21045 4.6643 6.21045 7.13734C6.21045 8.4203 6.75206 9.57899 7.61845 10.3972C7.63468 10.4146 7.65194 10.431 7.6708 10.446C8.46889 11.1762 9.531 11.6223 10.6954 11.6223C11.8598 11.6223 12.9219 11.1761 13.72 10.446C13.7389 10.431 13.7561 10.4145 13.7723 10.3972C14.6388 9.57899 15.1804 8.4203 15.1804 7.13734ZM10.6954 3.62734C12.6309 3.62734 14.2054 5.20192 14.2054 7.13734C14.2054 7.91573 13.9504 8.63543 13.52 9.21814C13.1605 8.68491 12.6622 8.2702 12.0837 8.01416C12.3133 7.71742 12.4504 7.3457 12.4504 6.94234V6.62547C12.4504 5.65773 11.6632 4.87047 10.6954 4.87047C9.72771 4.87047 8.94045 5.65773 8.94045 6.62547V6.94234C8.94045 7.3457 9.07758 7.71742 9.30719 8.01416C8.72868 8.2702 8.2304 8.68491 7.87087 9.21814C7.44046 8.63543 7.18545 7.91573 7.18545 7.13734C7.18545 5.20192 8.76002 3.62734 10.6954 3.62734ZM9.91545 6.94234V6.62547C9.91545 6.1954 10.2654 5.84547 10.6954 5.84547C11.1255 5.84547 11.4754 6.1954 11.4754 6.62547V6.94234C11.4754 7.37242 11.1255 7.72234 10.6954 7.72234C10.2654 7.72234 9.91545 7.37242 9.91545 6.94234ZM8.57526 9.93228C9.00372 9.17251 9.80327 8.69734 10.6954 8.69734C11.5876 8.69734 12.3872 9.17251 12.8156 9.93228C12.2261 10.3806 11.4915 10.6473 10.6954 10.6473C9.89941 10.6473 9.16475 10.3806 8.57526 9.93228Z" fill="#454B60"/>
<path d="M20.5431 19.4385C20.2739 19.4385 20.0556 19.6568 20.0556 19.926V23.5175C20.0556 23.7863 19.8369 24.005 19.5681 24.005H1.8231C1.55429 24.005 1.3356 23.7863 1.3356 23.5175V1.48252C1.3356 1.21371 1.55429 0.995019 1.8231 0.995019H19.5681C19.8369 0.995019 20.0556 1.21371 20.0556 1.48252V6.78408C20.0556 7.05333 20.2739 7.27158 20.5431 7.27158C20.8123 7.27158 21.0306 7.05333 21.0306 6.78408V1.48252C21.0306 0.676097 20.3745 0.0200195 19.5681 0.0200195H1.8231C1.01667 0.0200195 0.360596 0.676097 0.360596 1.48252V23.5175C0.360596 24.3239 1.01667 24.98 1.8231 24.98H19.5681C20.3745 24.98 21.0306 24.3239 21.0306 23.5175V19.926C21.0306 19.6568 20.8123 19.4385 20.5431 19.4385Z" fill="#454B60"/>
<path d="M13.328 21.3725H10.6955C10.4263 21.3725 10.208 21.5908 10.208 21.86C10.208 22.1293 10.4263 22.3475 10.6955 22.3475H13.328C13.5972 22.3475 13.8155 22.1293 13.8155 21.86C13.8155 21.5908 13.5972 21.3725 13.328 21.3725Z" fill="#454B60"/>
<path d="M13.328 18.6425H6.40549C6.13629 18.6425 5.91799 18.8608 5.91799 19.13C5.91799 19.3993 6.13629 19.6175 6.40549 19.6175H13.328C13.5972 19.6175 13.8155 19.3993 13.8155 19.13C13.8155 18.8608 13.5972 18.6425 13.328 18.6425Z" fill="#454B60"/>
<path d="M13.328 15.9125H6.40549C6.13629 15.9125 5.91799 16.1308 5.91799 16.4C5.91799 16.6693 6.13629 16.8875 6.40549 16.8875H13.328C13.5972 16.8875 13.8155 16.6693 13.8155 16.4C13.8155 16.1308 13.5972 15.9125 13.328 15.9125Z" fill="#454B60"/>
<path d="M4.66797 13.3254C4.57734 13.2347 4.45157 13.1825 4.32287 13.1825C4.19461 13.1825 4.06883 13.2347 3.97821 13.3254C3.88753 13.416 3.83537 13.5418 3.83537 13.67C3.83537 13.7982 3.88748 13.924 3.97821 14.0147C4.06937 14.1054 4.19461 14.1575 4.32287 14.1575C4.45157 14.1575 4.57686 14.1054 4.66797 14.0147C4.75864 13.924 4.81085 13.7982 4.81085 13.67C4.81085 13.5418 4.75869 13.416 4.66797 13.3254Z" fill="#454B60"/>
<path d="M4.66797 16.0554C4.57686 15.9647 4.45157 15.9125 4.32287 15.9125C4.19461 15.9125 4.06937 15.9647 3.97821 16.0554C3.88753 16.146 3.83537 16.2718 3.83537 16.4C3.83537 16.5282 3.88748 16.654 3.97821 16.7447C4.06937 16.8354 4.19461 16.8875 4.32287 16.8875C4.45157 16.8875 4.57686 16.8354 4.66797 16.7447C4.75864 16.654 4.81085 16.5282 4.81085 16.4C4.81085 16.2718 4.75869 16.146 4.66797 16.0554Z" fill="#454B60"/>
<path d="M4.32287 18.6425C4.19461 18.6425 4.06937 18.6947 3.97821 18.7854C3.88753 18.876 3.83537 19.0018 3.83537 19.13C3.83537 19.2582 3.88748 19.384 3.97821 19.4747C4.06883 19.5654 4.19461 19.6175 4.32287 19.6175C4.45157 19.6175 4.57734 19.5654 4.66797 19.4747C4.75864 19.384 4.81085 19.2582 4.81085 19.13C4.81085 19.0018 4.75869 18.876 4.66797 18.7854C4.57686 18.6947 4.45157 18.6425 4.32287 18.6425Z" fill="#454B60"/>
<path d="M13.328 13.1825H6.40549C6.13629 13.1825 5.91799 13.4008 5.91799 13.67C5.91799 13.9393 6.13629 14.1575 6.40549 14.1575H13.328C13.5972 14.1575 13.8155 13.9393 13.8155 13.67C13.8155 13.4008 13.5972 13.1825 13.328 13.1825Z" fill="#454B60"/>
<path d="M24.2964 6.37308C23.8228 6.09964 23.2711 6.02701 22.7427 6.16853C22.2145 6.3101 21.7729 6.64891 21.4995 7.12252L15.3647 17.7482C15.3311 17.8065 15.3099 17.8711 15.3024 17.9379L14.8706 21.8059C14.8491 21.9984 14.9436 22.1853 15.1113 22.2822C15.187 22.3259 15.2711 22.3475 15.355 22.3475C15.457 22.3475 15.5586 22.3156 15.6441 22.2526L18.778 19.9445C18.8322 19.9047 18.8775 19.854 18.9111 19.7958L25.0458 9.17006C25.6104 8.19234 25.2742 6.93761 24.2964 6.37308ZM16.1887 18.7869L17.5996 19.6015L15.9632 20.8067L16.1887 18.7869ZM18.3105 18.886L16.4529 17.8135L21.3759 9.28667L23.2335 10.3592L18.3105 18.886ZM24.2015 8.68252L23.7209 9.51482L21.8633 8.44232L22.3439 7.61002C22.4871 7.36193 22.7184 7.18448 22.9951 7.11033C23.2719 7.03613 23.5609 7.07425 23.8089 7.21748C24.057 7.36071 24.2344 7.59198 24.3086 7.86868C24.3827 8.14539 24.3447 8.43443 24.2015 8.68252Z" fill="#454B60"/>
</g>
<defs>
<clipPath id="clip0_327_3217">
<rect width="24.96" height="24.96" fill="white" transform="translate(0.360107 0.0200195)"/>
</clipPath>
</defs>
</svg>
