<svg width="69" height="91" viewBox="0 0 69 91" fill="none" xmlns="http://www.w3.org/2000/svg">
<mask id="mask0_243_4459" style="mask-type:alpha" maskUnits="userSpaceOnUse" x="0" y="0" width="69" height="91">
<rect x="0.75" width="68.25" height="91" rx="10" fill="#C4C4C4"/>
</mask>
<g mask="url(#mask0_243_4459)">
<rect x="-2.09375" y="-2.37012" width="71.0938" height="47.8698" fill="#F8F8F8"/>
<rect x="-2.09375" y="45.5" width="71.0938" height="47.8698" fill="#EAEAEA"/>
<rect x="9.28125" y="51.1875" width="17.5365" height="23.224" fill="white"/>
<mask id="mask1_243_4459" style="mask-type:alpha" maskUnits="userSpaceOnUse" x="9" y="51" width="18" height="24">
<rect x="9.28125" y="51.1875" width="17.5365" height="23.224" fill="white"/>
</mask>
<g mask="url(#mask1_243_4459)">
<path d="M13.7333 67.8543C14.3427 67.5265 15.1826 67.1391 15.2651 66.9939C15.4893 66.5997 15.5712 65.7834 15.585 65.089M22.7812 67.8543C22.1748 67.5205 21.2698 67.0898 21.2067 66.9939C20.9438 66.5939 20.8934 65.6706 20.9081 64.9424" stroke="black" stroke-width="0.334876"/>
<path d="M14.715 60.8416L14.8823 60.8356L14.8963 61.2221L14.6049 60.9678C14.4341 60.8187 14.332 60.7683 14.2808 60.7574C14.2746 60.7561 14.2701 60.7556 14.2671 60.7554C14.2664 60.7564 14.2657 60.7575 14.2649 60.7589C14.2476 60.7882 14.2321 60.8509 14.226 60.9531C14.2208 61.0411 14.2234 61.1363 14.226 61.2296C14.2263 61.239 14.2265 61.2483 14.2268 61.2576L14.2268 61.258C14.2399 61.7955 14.3408 62.2943 14.4886 62.6068C14.5078 62.6475 14.5274 62.6941 14.5455 62.7371C14.554 62.7574 14.5622 62.7769 14.5699 62.7946C14.5961 62.8552 14.6213 62.9076 14.6497 62.9516C14.703 63.0342 14.758 63.0748 14.8461 63.0784L14.8461 63.0784C14.8586 63.0789 14.8729 63.0743 14.8889 63.0634C14.8965 63.0582 14.9024 63.053 14.9061 63.0494L14.9087 63.0467L15.1761 62.7146L15.2043 63.143L15.0372 63.154L15.2043 63.143L15.2043 63.1431L15.2043 63.1432L15.2043 63.1436L15.2044 63.1453L15.2049 63.1519L15.2066 63.1772L15.2128 63.2693C15.2181 63.3464 15.2254 63.4516 15.2336 63.5635C15.2501 63.7896 15.2695 64.0362 15.2825 64.1398C15.2989 64.2703 15.3875 64.4837 15.5425 64.7473C15.6939 65.0048 15.8974 65.2918 16.1229 65.5643C16.3486 65.837 16.5931 66.0913 16.8253 66.2855C17.0626 66.4839 17.2681 66.6031 17.417 66.6331C17.456 66.6409 17.5589 66.649 17.7102 66.6543C17.8559 66.6595 18.0335 66.6619 18.2122 66.6614C18.3909 66.6608 18.5694 66.6574 18.7171 66.6512C18.87 66.6448 18.9763 66.6357 19.0195 66.6267C19.1711 66.5952 19.3763 66.4744 19.6112 66.2751C19.8412 66.08 20.082 65.8251 20.3035 65.5526C20.5249 65.2803 20.7241 64.9942 20.872 64.7385C21.0235 64.4767 21.1097 64.2661 21.1255 64.1397L21.1256 64.1396C21.1386 64.036 21.1581 63.7895 21.1746 63.5633C21.1828 63.4514 21.1901 63.3463 21.1954 63.2691L21.2016 63.177L21.2033 63.1517L21.2037 63.1451L21.2039 63.1434L21.2039 63.143L21.2039 63.1429L21.2039 63.1429L21.371 63.1539L21.2039 63.1429L21.2321 62.7139L21.4996 63.0466L21.5022 63.0493C21.5058 63.0529 21.5117 63.0581 21.5192 63.0633C21.5352 63.0741 21.5495 63.0787 21.5621 63.0782L21.5621 63.0782C21.6539 63.0745 21.7198 63.0297 21.7828 62.9435C21.8367 62.8697 21.8758 62.784 21.919 62.6894C21.9313 62.6625 21.9439 62.6348 21.9573 62.6065C22.1034 62.2976 22.1474 61.9181 22.1945 61.3637L22.1945 61.3637C22.203 61.2647 22.2102 61.1504 22.2066 61.0435C22.2029 60.932 22.1877 60.8494 22.1648 60.802C22.1565 60.7848 22.1501 60.7786 22.1483 60.777C22.1466 60.7767 22.143 60.7764 22.1365 60.7771C22.0952 60.7814 21.9987 60.8191 21.8286 60.9677L21.598 60.7253C21.5661 60.7723 21.5515 60.8289 21.5514 60.8306L21.5514 60.8295L21.552 60.8165L21.5542 60.7657C21.5561 60.7216 21.5587 60.6576 21.5618 60.5785C21.5681 60.4201 21.5761 60.201 21.5836 59.9579C21.5987 59.4705 21.6112 58.8916 21.6018 58.5128L21.6018 58.5128C21.592 58.1143 21.5286 57.7934 21.4003 57.5082C21.272 57.223 21.0745 56.9634 20.7826 56.6935C20.3508 56.2945 19.9253 56.0193 19.3481 55.8355C19.2466 55.8033 18.7634 55.7068 18.2645 55.7055L18.2645 55.7055C17.9986 55.7048 17.7274 55.7283 17.5066 55.7572C17.2816 55.7866 17.121 55.8199 17.0721 55.8355L17.0721 55.8355C15.9578 56.1902 15.4172 56.6702 15.1458 57.1381C14.8715 57.6108 14.8551 58.0971 14.8449 58.5128L14.8449 58.5128C14.8355 58.8923 14.8448 59.4717 14.8565 59.9591C14.8624 60.2022 14.8688 60.4214 14.8738 60.5798L14.88 60.7672L14.8817 60.818L14.8822 60.8311L14.8823 60.8345L14.8823 60.8353L14.8823 60.8355L14.8823 60.8356L14.715 60.8416ZM14.909 63.0463C14.9091 63.0463 14.9091 63.0463 14.909 63.0463L14.909 63.0463ZM22.1496 60.7774C22.1496 60.7774 22.1493 60.7772 22.1486 60.7771L22.1496 60.7774Z" stroke="black" stroke-width="0.334876"/>
<path d="M18.828 63.82C18.828 63.82 18.8313 63.7907 18.7964 63.7708C18.7382 63.7381 18.6138 63.7206 18.4854 63.82C18.4853 63.82 18.538 63.8958 18.828 63.82Z" fill="black"/>
<path d="M17.5793 63.82C17.5793 63.82 17.5761 63.7907 17.611 63.7708C17.6692 63.7381 17.7934 63.7206 17.9219 63.82C17.922 63.82 17.8692 63.8958 17.5793 63.82Z" fill="black"/>
<path fill-rule="evenodd" clip-rule="evenodd" d="M21.6998 62.0702C21.6818 62.0689 21.8395 61.4754 21.9327 61.2398C22.0336 60.9846 22.1362 60.9283 22.1986 60.9318C22.3173 60.939 22.3594 61.5075 22.3594 61.5075C22.3594 61.5075 22.2722 60.896 22.0078 61.3871C21.9336 61.5265 21.7209 62.0717 21.6998 62.0702Z" fill="black"/>
<path fill-rule="evenodd" clip-rule="evenodd" d="M22.1152 61.4924C22.108 61.452 22.0669 61.2183 22.035 61.2168C21.9974 61.2151 21.9961 61.3838 22.0047 61.411C22.0323 61.4949 22.0553 61.5804 22.0735 61.667C22.0918 61.7595 22.0925 61.8493 22.0908 61.9468C22.0865 62.0363 22.0749 62.1252 22.056 62.2125C22.1188 62.1493 22.1343 61.8964 22.136 61.8019C22.1391 61.6377 22.1319 61.5852 22.1152 61.4924Z" fill="black"/>
<path fill-rule="evenodd" clip-rule="evenodd" d="M21.6431 62.5472C21.6484 62.5325 21.7322 62.3358 21.7388 62.3204C21.8003 62.1755 21.6694 62.3619 21.6575 62.3791C21.5939 62.4718 21.5476 62.524 21.5029 62.603C21.4649 62.6705 21.4834 62.7754 21.5716 62.7858C21.6445 62.7943 21.7385 62.7204 21.7695 62.6137C21.7734 62.5994 21.5774 62.7341 21.6431 62.5472Z" fill="black"/>
<path fill-rule="evenodd" clip-rule="evenodd" d="M14.7173 62.0702C14.7354 62.0691 14.5777 61.4754 14.4845 61.2398C14.3836 60.9846 14.281 60.9283 14.2185 60.9318C14.0998 60.9388 14.0577 61.5075 14.0577 61.5075C14.0577 61.5075 14.1449 60.896 14.4092 61.3871C14.4841 61.5265 14.6964 62.0717 14.7173 62.0702Z" fill="black"/>
<path fill-rule="evenodd" clip-rule="evenodd" d="M14.2992 61.4924C14.3064 61.452 14.3475 61.2181 14.3794 61.2168C14.417 61.2151 14.4183 61.3838 14.4097 61.411C14.382 61.4947 14.3589 61.5801 14.3406 61.6666C14.3224 61.7592 14.3217 61.8488 14.3234 61.9464C14.3276 62.0358 14.3393 62.1247 14.3581 62.2121C14.2954 62.1489 14.2797 61.8959 14.2781 61.8015C14.2753 61.6377 14.2825 61.5852 14.2992 61.4924Z" fill="black"/>
<path fill-rule="evenodd" clip-rule="evenodd" d="M14.7748 62.5472C14.7696 62.5325 14.6857 62.3358 14.6792 62.3204C14.6178 62.1755 14.7485 62.3619 14.7604 62.3791C14.8241 62.4718 14.8705 62.524 14.915 62.603C14.9529 62.6705 14.9343 62.7754 14.8463 62.7858C14.7733 62.7943 14.6794 62.7204 14.6485 62.6137C14.6444 62.5994 14.8398 62.7341 14.7748 62.5472Z" fill="black"/>
<path d="M17.5835 65.7068C17.5059 65.775 17.8401 65.6974 18.1564 65.6974C18.4727 65.6974 18.7782 65.7503 18.7292 65.7068C18.668 65.6523 18.4728 65.5557 18.1564 65.5557C17.8399 65.5557 17.6452 65.6528 17.5835 65.7068Z" fill="black"/>
<path d="M17.0366 64.9533C17.1779 64.9429 17.4961 64.792 17.7242 64.792C17.9369 64.792 18.1421 64.8622 18.174 64.88C18.2058 64.8615 18.4297 64.792 18.6425 64.792C18.8707 64.792 19.1701 64.943 19.3114 64.9533C19.4527 64.9635 19.4961 64.9116 19.4961 64.9116C19.4961 64.9116 19.4919 64.9798 19.4634 64.9996C19.3313 65.0947 19.0939 64.9871 18.8115 64.9975C18.5615 65.0068 18.4037 65.0691 18.1815 65.0814C18.1765 65.0818 18.1715 65.0818 18.1665 65.0814C17.9442 65.0692 17.7865 65.0068 17.5365 64.9975C17.2538 64.9871 17.0167 65.0949 16.8844 64.9996C16.8562 64.9792 16.8519 64.9116 16.8519 64.9116C16.8519 64.9116 16.8953 64.9632 17.0366 64.9533Z" fill="#5B5B5B"/>
<path d="M17.0013 65.0055C17.1371 65.0046 17.3236 64.9233 17.5358 64.9312C17.7858 64.9404 17.9435 65.0027 18.1658 65.0151C18.1708 65.0155 18.1758 65.0155 18.1808 65.0151C18.4029 65.0027 18.5608 64.9404 18.8108 64.9312C19.0218 64.9234 19.2077 65.0045 19.3432 65.0054C19.3674 65.0067 19.3917 65.0067 19.416 65.0054C19.4491 65.0019 19.4718 64.9939 19.4629 65C19.3275 65.0903 19.0933 64.9875 18.811 64.9979C18.561 65.0071 18.4031 65.0694 18.1809 65.0818C18.1759 65.0821 18.1709 65.0821 18.1659 65.0818C17.9436 65.0696 17.7859 65.0071 17.5359 64.9979C17.2532 64.9875 17.0174 65.0932 16.8838 65C16.8767 64.995 16.8999 65.0036 16.9299 65.0064C16.9537 65.0074 16.9775 65.0071 17.0013 65.0055Z" fill="black"/>
<path fill-rule="evenodd" clip-rule="evenodd" d="M19.4829 61.6469C19.4829 61.7958 19.6066 61.9163 19.759 61.9163C19.9115 61.9163 20.0352 61.7958 20.0352 61.6469C20.0352 61.4981 19.9115 61.4258 19.759 61.4258C19.6066 61.4258 19.4829 61.4981 19.4829 61.6469Z" fill="black"/>
<path fill-rule="evenodd" clip-rule="evenodd" d="M19.2019 61.6411C19.4809 61.3863 19.7373 61.3682 20.0274 61.4663C20.2217 61.5317 20.3868 61.6677 20.4922 61.8493C20.4749 61.8559 19.7081 61.2473 19.0557 61.8346C19.0469 61.825 19.145 61.6933 19.2019 61.6411Z" fill="black"/>
<path fill-rule="evenodd" clip-rule="evenodd" d="M19.4875 61.3308C19.681 61.2311 20.0528 61.2333 20.3404 61.4704C20.3993 61.5189 20.5007 61.6417 20.4916 61.6513C19.7475 60.9679 19.169 61.622 19.1511 61.6154C19.1595 61.6044 19.2143 61.472 19.4875 61.3308Z" fill="black"/>
<path fill-rule="evenodd" clip-rule="evenodd" d="M16.3227 61.6469C16.3227 61.7957 16.4464 61.9163 16.5989 61.9163C16.7514 61.9163 16.875 61.7957 16.875 61.6469C16.875 61.4981 16.7514 61.4258 16.5989 61.4258C16.4464 61.4258 16.3227 61.4982 16.3227 61.6469Z" fill="black"/>
<path fill-rule="evenodd" clip-rule="evenodd" d="M16.3322 61.4662C16.6223 61.3682 16.8787 61.3864 17.1577 61.6411C17.2142 61.6932 17.3132 61.825 17.3041 61.8353C16.6514 61.2472 15.8846 61.8558 15.8674 61.85C15.9726 61.6681 16.1377 61.5318 16.3322 61.4662Z" fill="black"/>
<path fill-rule="evenodd" clip-rule="evenodd" d="M16.8707 61.3308C16.6772 61.2311 16.3054 61.2333 16.0178 61.4704C15.9589 61.519 15.8577 61.6417 15.8666 61.6514C16.6107 60.9679 17.1892 61.622 17.207 61.6154C17.1988 61.6044 17.1437 61.472 16.8707 61.3308Z" fill="black"/>
<path fill-rule="evenodd" clip-rule="evenodd" d="M20.2834 60.7033C20.488 60.7112 20.9624 61.3457 20.752 61.265C20.5788 61.199 20.306 61.0438 20.2245 61.0523C19.4869 61.1235 18.7605 61.2839 18.7598 61.2764C18.7471 61.1431 18.8416 61.0085 18.9086 60.9051C18.9691 60.8106 19.924 60.6891 20.2834 60.7033Z" fill="black"/>
<path fill-rule="evenodd" clip-rule="evenodd" d="M16.0611 60.7032C16.4185 60.712 17.387 60.8107 17.4478 60.9044C17.5147 61.008 17.6092 61.1425 17.5965 61.2758C17.5956 61.2833 16.8576 61.1228 16.1201 61.0517C16.0385 61.0437 15.8162 61.185 15.6158 61.2649C15.3898 61.355 15.8563 60.698 16.0611 60.7032Z" fill="black"/>
<path d="M14.378 57.8388C14.3639 56.748 15.2018 56.0056 15.2018 56.0056L15.2188 56.7657C15.2359 56.765 15.6851 55.4605 16.0818 55.2199C16.7991 54.7846 17.3323 54.3957 17.3323 54.3957L16.7861 55.2438L17.9653 54.0312C17.9565 54.3756 17.9315 55.2033 17.9394 54.9618C17.9934 54.6685 18.0966 54.3595 18.1831 54.0387C18.4233 54.8485 18.5166 55.12 18.5166 55.0519C18.5166 54.9761 18.5166 54.8026 18.5245 54.3707L19.1247 55.1971L18.6312 54.2159C19.0976 54.7855 19.8715 54.7385 20.2039 55.3994C20.4583 55.9043 20.5922 55.7994 20.8777 56.2724L20.3849 55.1995C20.3849 55.1995 21.5843 56.3129 21.8418 57.0713C21.9297 57.3303 22.1137 57.8759 22.0143 59.1403C21.9271 60.2482 21.9482 60.3924 21.6626 61.1842C21.5637 61.5046 21.3174 62.5187 21.3153 62.5071C21.3031 62.531 21.2953 62.5408 21.2931 62.5348C21.2143 62.331 21.3567 59.2481 21.3274 59.1748C21.1886 58.8273 20.4888 58.1973 20.4653 58.1831C20.2928 58.0774 19.2489 58.0241 18.2012 58.0237C17.1534 58.0232 16.1095 58.0774 15.937 58.1831C15.914 58.1978 15.214 58.8273 15.0749 59.1748C15.0456 59.2481 15.0993 62.531 15.0871 62.5071C15.0855 62.5166 15.0832 62.5258 15.08 62.5348C15.0715 62.5568 14.8397 61.5046 14.7398 61.1842C14.3021 59.9714 14.3994 59.4681 14.378 57.8388Z" fill="black"/>
<path fill-rule="evenodd" clip-rule="evenodd" d="M9.77403 69.0999V69.342C9.936 69.2804 10.1084 69.2178 10.2918 69.1544C10.55 69.0651 10.9827 68.9306 11.4407 68.7882C11.8845 68.6503 12.3521 68.505 12.7077 68.3862C12.7406 68.3752 12.8487 68.4902 13.0189 68.6711C13.3657 69.0397 13.9701 69.682 14.7201 70.0917C15.3779 70.4509 16.1436 70.6928 17.0023 70.7998C17.3554 70.8432 17.7109 70.8648 18.0667 70.8643C18.5161 70.8635 18.9648 70.8322 19.41 70.7708C20.1569 70.669 20.899 70.4847 21.5556 70.2382C22.1828 70.0027 22.6338 69.7048 22.9489 69.4322C23.348 69.1166 23.6285 68.7951 23.8048 68.5932C23.9227 68.4582 23.9938 68.3766 24.0225 68.3862C24.3779 68.5047 24.8447 68.6499 25.2879 68.7877C25.7466 68.9304 26.1801 69.0652 26.4385 69.1544L26.4567 69.1607V68.8921C25.7357 68.6237 23.5429 67.8154 23.5429 67.8154C23.5429 67.8154 23.2722 67.5114 22.9654 67.3217L22.7288 67.1755L22.7259 67.1738C22.7304 67.1888 22.7628 67.5058 22.7599 67.537C22.5723 68.3595 21.1131 69.4953 18.7524 69.4973L18.3657 69.5062L17.979 69.4973C15.6182 69.4953 14.0611 68.4593 13.9715 67.537C13.9685 67.5061 14.0009 67.1894 14.0055 67.1738L13.998 67.1783H13.9969L13.7971 67.3018C13.4934 67.4893 13.2129 67.8146 13.2129 67.8146C13.2129 67.8146 10.9505 68.6394 10.253 68.8994C10.1191 68.9493 9.95559 69.0177 9.77403 69.0999ZM21.5134 70.1227C21.7351 70.0399 21.9507 69.9415 22.1585 69.8282C22.3956 69.6727 22.6188 69.4972 22.8259 69.3036C23.4056 68.7652 23.4698 68.1631 23.4698 68.1631C23.4698 68.1631 23.2437 67.8539 22.9905 67.6874C22.8448 68.6312 21.2225 69.6655 18.7851 69.6669C18.7809 69.6669 18.695 69.6689 18.5927 69.6712L18.5922 69.6712L18.5915 69.6712L18.3775 69.6761L18.1632 69.6712L18.1626 69.6712L18.1621 69.6712L18.1615 69.6712L18.161 69.6712C18.0592 69.6689 17.9741 69.6669 17.9699 69.6669C15.5191 69.6649 13.8945 68.6193 13.7615 67.6718C13.4875 67.848 13.2966 68.1436 13.2966 68.1436C13.2966 68.1436 13.3256 68.7651 13.9054 69.3034C14.134 69.5153 14.3463 69.6957 14.5423 69.8446C16.6212 71.1539 19.6263 70.8312 21.5134 70.1227Z" fill="black"/>
</g>
<rect x="-0.671875" y="79.625" width="71.0938" height="13.7448" fill="white"/>
</g>
<rect x="1.75" y="1" width="66.25" height="89" rx="9" stroke="#E5613E" stroke-width="2"/>
<path d="M16.3906 10.9014H57.151V13.2712H16.3906V10.9014Z" fill="#C4C4C4"/>
<path d="M16.3906 14.693H57.151V17.0628H16.3906V14.693Z" fill="#C4C4C4"/>
<path d="M16.3906 18.4847H57.151V20.8545H16.3906V18.4847Z" fill="#C4C4C4"/>
<path d="M32.0312 51.1878H57.151V53.5576H32.0312V51.1878Z" fill="#C4C4C4"/>
<path d="M32.0312 54.9795H57.151V57.3493H32.0312V54.9795Z" fill="#C4C4C4"/>
<path d="M32.0312 58.7712H57.151V61.1409H32.0312V58.7712Z" fill="#C4C4C4"/>
<path d="M32.0312 62.5628H51.9375V64.9326H32.0312V62.5628Z" fill="#C4C4C4"/>
<path d="M32.0312 66.3545H51.9375V68.7243H32.0312V66.3545Z" fill="#C4C4C4"/>
<path d="M46.724 27.4899H57.151V29.8597H46.724V27.4899Z" fill="#C4C4C4"/>
<path d="M46.724 31.2816H57.151V33.6514H46.724V31.2816Z" fill="#C4C4C4"/>
<path fill-rule="evenodd" clip-rule="evenodd" d="M36.7695 38.8643C40.6959 38.8643 43.8789 35.6813 43.8789 31.7549C43.8789 27.8285 40.6959 24.6455 36.7695 24.6455C32.8431 24.6455 29.6602 27.8285 29.6602 31.7549C29.6602 35.6813 32.8431 38.8643 36.7695 38.8643ZM36.7695 37.4424C39.9107 37.4424 42.457 34.896 42.457 31.7549C42.457 28.6138 39.9107 26.0674 36.7695 26.0674C33.6284 26.0674 31.082 28.6138 31.082 31.7549C31.082 34.896 33.6284 37.4424 36.7695 37.4424Z" fill="#C4C4C4"/>
<ellipse cx="36.7721" cy="31.7555" rx="3.79167" ry="3.79167" fill="#C4C4C4"/>
</svg>
