<svg width="207" height="46" viewBox="0 0 207 46" fill="none" xmlns="http://www.w3.org/2000/svg">
<path fill-rule="evenodd" clip-rule="evenodd" d="M6.46699 3.54451L0.712657 31.9851C0.297395 33.8694 0.000779888 35.6947 0.000779888 37.6379C-0.0585432 42.7018 3.26355 45.9993 10.9755 45.9993C24.6199 45.9993 30.7301 35.3414 30.7301 25.7435C30.7301 20.5618 27.8826 15.7333 21.9503 15.7333C18.5096 15.7333 15.4248 17.1465 13.4671 19.0897H13.3485L16.6112 3.54451H6.46699ZM63.7463 23.2811C63.8082 23.2298 63.8708 23.1783 63.9339 23.1266C73.8856 14.988 78.193 14.988 81.9564 14.988C89.787 14.988 94.7108 20.0519 94.7108 26.8824C94.7108 38.1291 86.9988 45.254 76.7953 45.254C69.6477 45.254 66.9307 41.3873 62.6426 37.1317C62.5862 37.0757 62.527 37.0187 62.4655 36.9608C62.4037 37.0121 62.3411 37.0636 62.278 37.1153C52.3263 45.254 47.9422 45.254 44.2555 45.254C36.4249 45.254 31.5011 40.19 31.5011 33.3595C31.5011 22.1128 39.2131 14.988 49.4166 14.988C56.355 14.988 59.2812 18.8546 63.5693 23.1102C63.6257 23.1662 63.6849 23.2232 63.7463 23.2811ZM11.2128 30.6308C12.0434 26.3323 14.5349 23.8592 17.0265 23.8592C19.1028 23.8592 20.1113 25.5079 20.1113 27.981C20.1113 32.4562 17.0265 38.4623 13.1705 38.4623C11.6281 38.4623 10.5603 37.5201 10.501 35.7536C10.3823 34.6348 10.6196 33.6338 10.7976 32.6917L11.2128 30.6308ZM46.9702 35.4219C43.7324 35.4219 42.3856 32.7281 42.3856 30.3138C42.3856 27.479 44.7253 24.2419 48.8779 24.2419C52.8379 24.2419 56.9561 30.4601 56.9561 30.3138C56.9561 30.1284 51.3007 35.4219 46.9702 35.4219ZM79.4049 24.2419C82.6426 24.2419 83.9894 26.9358 83.9894 29.35C83.9894 32.1848 81.6498 35.4219 77.4971 35.4219C73.5371 35.4219 69.4189 29.2038 69.4189 29.35C69.4189 29.5355 75.0743 24.2419 79.4049 24.2419ZM92.848 43.5851C94.7463 44.9394 98.543 45.8815 102.458 45.9993C110.823 46.0582 116.814 42.3485 116.814 35.4592C116.814 31.1019 112.959 28.9232 109.814 27.4511C107.56 26.4501 106.492 25.5668 106.492 24.7425C106.492 23.5648 107.738 22.976 109.636 22.976C112.365 22.976 114.501 23.6826 115.806 24.2125L118.12 17.2643C116.577 16.4399 113.789 15.7333 110.052 15.7333C101.984 15.7333 96.2887 19.7374 96.2887 26.1557C96.2887 29.9831 99.4922 32.3973 102.814 33.9871C105.365 35.1059 106.255 35.9303 106.255 36.9902C106.255 37.9323 105.424 38.6978 103.407 38.6978C100.382 38.7567 97.0006 37.4612 95.2209 36.6369L92.848 43.5851ZM124.838 10.9049L123.83 16.3811H120.27L118.787 23.977H122.347L120.33 34.1049C119.915 36.4013 119.737 37.9323 119.737 39.4633C119.737 43.3496 122.465 45.9993 127.982 45.9993C129.94 45.9993 132.313 45.7638 133.559 45.2927L134.864 37.4024C134.033 37.5201 133.203 37.5201 132.491 37.5201C130.652 37.5201 130.118 36.5191 130.118 35.2237C130.118 34.3993 130.355 32.9272 130.533 31.9851L132.194 23.977H138.127L139.61 16.3811H133.677L135.22 8.1374L124.838 10.9049ZM146.625 45.3516L148.464 35.4592C149.473 30.1597 151.49 25.5079 157.481 25.5079H158.786L160.803 15.7922C160.21 15.7333 159.676 15.7333 159.083 15.7333C155.049 15.7333 151.786 18.3831 149.651 22.1516H149.473C149.651 20.2085 149.769 18.3242 149.888 16.3811H141.167C140.871 18.7953 140.515 24.0947 139.684 28.6876L136.481 45.3516H146.625ZM185.319 45.3516C185.2 41.5831 185.853 35.6359 186.446 32.5151L189.531 17.3232C186.921 16.4988 182.946 15.7333 179.149 15.7333C164.081 15.7333 157.971 26.0968 157.971 35.6947C157.971 41.9952 161.708 45.9993 166.988 45.9993C170.073 45.9993 173.692 44.645 176.183 40.3465H176.302C176.243 41.9953 176.124 43.7029 176.065 45.3516H185.319ZM177.014 29.2765C175.709 36.1069 173.276 37.9323 171.437 37.9323C169.658 37.9323 168.531 36.5191 168.531 33.8105C168.531 29.5709 171.615 23.2704 176.361 23.2704C176.836 23.2704 177.548 23.3293 178.2 23.447L177.014 29.2765Z" fill="#282735"/>
<path d="M191.961 7.7281C191.961 6.33491 192.284 5.04172 192.93 3.84853C193.584 2.65535 194.483 1.71736 195.63 1.03455C196.783 0.344851 198.027 0 199.361 0C200.695 0 201.936 0.344851 203.082 1.03455C204.229 1.71736 205.125 2.65535 205.771 3.84853C206.424 5.04172 206.751 6.33491 206.751 7.7281C206.751 9.08681 206.438 10.3593 205.813 11.5456C205.188 12.7319 204.298 13.6871 203.145 14.4113C201.998 15.1286 200.737 15.4872 199.361 15.4872C197.992 15.4872 196.731 15.132 195.578 14.4217C194.431 13.7044 193.542 12.7526 192.91 11.5663C192.277 10.38 191.961 9.10061 191.961 7.7281ZM193.16 7.7281C193.16 8.91439 193.438 10.0145 193.993 11.0283C194.549 12.0353 195.303 12.825 196.255 13.3974C197.214 13.9699 198.249 14.2561 199.361 14.2561C200.48 14.2561 201.519 13.9664 202.478 13.3871C203.437 12.8009 204.187 12.0077 204.729 11.0076C205.278 10.0076 205.552 8.91439 205.552 7.7281C205.552 6.54871 205.278 5.46243 204.729 4.46926C204.187 3.4692 203.437 2.68294 202.478 2.11049C201.519 1.53114 200.48 1.24146 199.361 1.24146C198.249 1.24146 197.214 1.52769 196.255 2.10014C195.296 2.6657 194.539 3.45195 193.983 4.45892C193.434 5.46588 193.16 6.55561 193.16 7.7281ZM197.829 8.50402V12.0008H196.359V3.21746H199.236C200.299 3.21746 201.123 3.44506 201.706 3.90026C202.297 4.34857 202.592 5.00378 202.592 5.86591C202.592 6.71424 202.148 7.36256 201.258 7.81087C202.106 8.15572 202.533 8.85921 202.54 9.92135V10.5524C202.54 11.1456 202.599 11.5732 202.717 11.8353V12.0008H201.206C201.109 11.7525 201.06 11.3111 201.06 10.6766C201.06 10.0352 201.05 9.65582 201.029 9.53857C200.918 8.87645 200.463 8.5316 199.663 8.50402H197.829ZM197.829 7.17979H199.455C199.955 7.166 200.358 7.0453 200.664 6.8177C200.97 6.5901 201.123 6.29008 201.123 5.91764C201.123 5.41416 200.987 5.05896 200.716 4.85205C200.445 4.63824 199.962 4.53134 199.267 4.53134H197.829V7.17979Z" fill="#282735"/>
</svg>
