<svg width="101" height="23" viewBox="0 0 101 23" fill="none" xmlns="http://www.w3.org/2000/svg">
<path fill-rule="evenodd" clip-rule="evenodd" d="M3.15919 1.77225L0.34814 15.9926C0.145281 16.9347 0.000380983 17.8474 0.000380983 18.8189C-0.0285989 21.3509 1.59428 22.9997 5.36167 22.9997C12.0271 22.9997 15.012 17.6707 15.012 12.8717C15.012 10.2809 13.6209 7.86667 10.723 7.86667C9.04212 7.86667 7.53516 8.57327 6.57882 9.54484H6.52087L8.11476 1.77225H3.15919ZM31.1407 11.6405C31.171 11.6149 31.2015 11.5891 31.2324 11.5633C36.0939 7.49399 38.1981 7.49399 40.0365 7.49399C43.8619 7.49399 46.2672 10.026 46.2672 13.4412C46.2672 19.0645 42.4998 22.627 37.5153 22.627C34.0236 22.627 32.6963 20.6937 30.6016 18.5659C30.574 18.5378 30.5451 18.5094 30.5151 18.4804C30.4848 18.5061 30.4543 18.5318 30.4234 18.5577C25.562 22.627 23.4203 22.627 21.6193 22.627C17.7939 22.627 15.3886 20.095 15.3886 16.6798C15.3886 11.0564 19.156 7.49399 24.1405 7.49399C27.53 7.49399 28.9595 9.42732 31.0542 11.5551C31.0818 11.5831 31.1107 11.6116 31.1407 11.6405ZM5.47759 15.3154C5.88331 13.1662 7.10046 11.9296 8.31762 11.9296C9.33192 11.9296 9.82458 12.754 9.82458 13.9905C9.82458 16.2281 8.31762 19.2311 6.43393 19.2311C5.68045 19.2311 5.15881 18.7601 5.12983 17.8768C5.07187 17.3174 5.18779 16.8169 5.27473 16.3459L5.47759 15.3154ZM22.9454 17.711C21.3637 17.711 20.7058 16.364 20.7058 15.1569C20.7058 13.7395 21.8487 12.121 23.8773 12.121C25.8118 12.121 27.8237 15.23 27.8237 15.1569C27.8237 15.0642 25.0609 17.711 22.9454 17.711ZM38.7901 12.121C40.3718 12.121 41.0297 13.4679 41.0297 14.675C41.0297 16.0924 39.8867 17.711 37.8582 17.711C35.9237 17.711 33.9118 14.6019 33.9118 14.675C33.9118 14.7677 36.6746 12.121 38.7901 12.121ZM45.3572 21.7925C46.2845 22.4697 48.1393 22.9408 50.0519 22.9997C54.1381 23.0291 57.0651 21.1743 57.0651 17.7296C57.0651 15.5509 55.1814 14.4616 53.6455 13.7255C52.5442 13.225 52.0226 12.7834 52.0226 12.3712C52.0226 11.7824 52.6311 11.488 53.5585 11.488C54.8916 11.488 55.9349 11.8413 56.5724 12.1063L57.7026 8.63215C56.9492 8.21997 55.5871 7.86667 53.7614 7.86667C49.8201 7.86667 47.038 9.8687 47.038 13.0778C47.038 14.9915 48.6029 16.1986 50.2258 16.9936C51.472 17.553 51.9067 17.9651 51.9067 18.4951C51.9067 18.9662 51.5009 19.3489 50.5156 19.3489C49.0376 19.3783 47.3858 18.7306 46.5164 18.3184L45.3572 21.7925ZM60.9848 5.45246L60.4921 8.19053H58.7533L58.0289 11.9885H59.7677L58.7823 17.0525C58.5795 18.2007 58.4925 18.9662 58.4925 19.7316C58.4925 21.6748 59.8256 22.9997 62.5207 22.9997C63.4771 22.9997 64.6363 22.8819 65.2449 22.6464L65.8824 18.7012C65.4767 18.7601 65.071 18.7601 64.7232 18.7601C63.8248 18.7601 63.564 18.2596 63.564 17.6118C63.564 17.1997 63.6799 16.4636 63.7669 15.9926L64.5783 11.9885H67.4763L68.2008 8.19053H65.3028L66.0563 4.0687L60.9848 5.45246ZM71.6279 22.6758L72.5262 17.7296C73.0189 15.0799 74.0042 12.754 76.9312 12.754H77.5688L78.5541 7.89611C78.2643 7.86667 78.0035 7.86667 77.7137 7.86667C75.743 7.86667 74.1491 9.19154 73.1058 11.0758H73.0189C73.1058 10.1042 73.1638 9.1621 73.2218 8.19053H68.9617C68.8168 9.39763 68.6429 12.0474 68.2372 14.3438L66.6723 22.6758H71.6279ZM90.5302 22.6758C90.4723 20.7915 90.791 17.8179 91.0808 16.2575L92.5878 8.66159C91.3127 8.24941 89.371 7.86667 87.5163 7.86667C80.1554 7.86667 77.1705 13.0484 77.1705 17.8474C77.1705 20.9976 78.9962 22.9997 81.5754 22.9997C83.0824 22.9997 84.8501 22.3225 86.0673 20.1733H86.1253C86.0963 20.9976 86.0383 21.8514 86.0093 22.6758H90.5302ZM86.473 14.6382C85.8355 18.0535 84.6473 18.9662 83.7489 18.9662C82.8795 18.9662 82.3289 18.2596 82.3289 16.9052C82.3289 14.7854 83.8358 11.6352 86.1542 11.6352C86.3861 11.6352 86.7338 11.6646 87.0526 11.7235L86.473 14.6382Z" fill="#282735"/>
<path d="M93.7749 3.86405C93.7749 3.16745 93.9328 2.52086 94.2485 1.92427C94.5675 1.32768 95.0071 0.858678 95.5672 0.517276C96.1307 0.172425 96.7383 0 97.39 0C98.0417 0 98.6476 0.172425 99.2077 0.517276C99.7678 0.858678 100.206 1.32768 100.521 1.92427C100.84 2.52086 101 3.16745 101 3.86405C101 4.54341 100.847 5.17966 100.542 5.7728C100.236 6.36594 99.8018 6.84356 99.2383 7.20566C98.6782 7.5643 98.0621 7.74362 97.39 7.74362C96.7213 7.74362 96.1052 7.56602 95.5417 7.21083C94.9817 6.85218 94.5472 6.37629 94.2383 5.78314C93.9294 5.19 93.7749 4.5503 93.7749 3.86405ZM94.3605 3.86405C94.3605 4.45719 94.4963 5.00723 94.7678 5.51416C95.0394 6.01764 95.4077 6.4125 95.8727 6.69872C96.3411 6.98495 96.8469 7.12806 97.39 7.12806C97.9365 7.12806 98.444 6.98323 98.9124 6.69355C99.3808 6.40043 99.7475 6.00385 100.012 5.50382C100.28 5.00378 100.414 4.45719 100.414 3.86405C100.414 3.27436 100.28 2.73122 100.012 2.23463C99.7475 1.7346 99.3808 1.34147 98.9124 1.05524C98.444 0.765568 97.9365 0.620731 97.39 0.620731C96.8469 0.620731 96.3411 0.763844 95.8727 1.05007C95.4043 1.33285 95.0343 1.72598 94.7627 2.22946C94.4946 2.73294 94.3605 3.27781 94.3605 3.86405ZM96.6415 4.25201V6.0004H95.9236V1.60873H97.3289C97.8483 1.60873 98.2505 1.72253 98.5356 1.95013C98.8242 2.17428 98.9684 2.50189 98.9684 2.93295C98.9684 3.35712 98.7512 3.68128 98.3167 3.90543C98.7308 4.07786 98.9396 4.42961 98.943 4.96068V5.27621C98.943 5.57279 98.9718 5.78659 99.0295 5.91764V6.0004H98.2912C98.2437 5.87625 98.2199 5.65555 98.2199 5.33829C98.2199 5.01758 98.2149 4.82791 98.2047 4.76928C98.1504 4.43823 97.928 4.2658 97.5377 4.25201H96.6415ZM96.6415 3.5899H97.4358C97.6802 3.583 97.8771 3.52265 98.0265 3.40885C98.1758 3.29505 98.2505 3.14504 98.2505 2.95882C98.2505 2.70708 98.1843 2.52948 98.0519 2.42602C97.9195 2.31912 97.6836 2.26567 97.3442 2.26567H96.6415V3.5899Z" fill="#282735"/>
</svg>
