<svg width="61" height="61" viewBox="0 0 61 61" fill="none" xmlns="http://www.w3.org/2000/svg">
<path d="M46.5193 0H14.4807C6.48324 0 0 6.48324 0 14.4807V46.5193C0 54.5168 6.48324 61 14.4807 61H46.5193C54.5168 61 61 54.5168 61 46.5193V14.4807C61 6.48324 54.5168 0 46.5193 0Z" fill="url(#paint0_linear_757_1575)"/>
<path fill-rule="evenodd" clip-rule="evenodd" d="M21.6775 9.59375L16.4958 37.5061C15.5537 42.7102 15.5537 51.2258 25.917 51.2258C38.7207 51.2258 43.6263 42.7101 45.2305 32.7752C47.3693 19.5287 31.9618 18.5825 28.6644 24.2596C29.6065 19.5287 30.3659 15.7439 30.9242 12.8003C31.2033 11.3284 31.4127 10.2245 31.5697 9.59375H21.6775ZM32.5118 29.4636C29.4971 29.4636 27.4872 33.2483 26.8591 35.1407C25.917 37.2261 24.0328 43.6563 28.2723 43.6563C31.6639 43.6563 33.5396 39.3985 34.3961 37.0331C35.4239 34.1945 35.5266 29.4636 32.5118 29.4636Z" fill="black"/>
<defs>
<linearGradient id="paint0_linear_757_1575" x1="30.5" y1="0" x2="30.5" y2="61" gradientUnits="userSpaceOnUse">
<stop stop-color="white"/>
<stop offset="1" stop-color="#D9D9D9"/>
</linearGradient>
</defs>
</svg>
