<svg width="56" height="34" viewBox="0 0 56 34" fill="none" xmlns="http://www.w3.org/2000/svg">
<path d="M17 34C26.3888 34 34 26.3888 34 17C34 7.61116 26.3888 0 17 0C7.61116 0 0 7.61116 0 17C0 26.3888 7.61116 34 17 34Z" fill="#2285DD"/>
<path fill-rule="evenodd" clip-rule="evenodd" d="M27.6252 30.26C27.8228 30.1006 28.0013 29.9179 28.1925 29.75H27.0557C27.249 29.9179 27.4275 30.1006 27.6252 30.26Z" fill="#376BD1"/>
<path fill-rule="evenodd" clip-rule="evenodd" d="M38.25 0C32.8844 0 28.1074 2.49262 24.99 6.375H30.26C30.7934 7.04012 31.2587 7.75838 31.6901 8.5H23.5578H23.5408C23.1455 9.18213 22.7928 9.88762 22.4953 10.625H22.5144H32.7335C33.014 11.3135 33.2563 12.019 33.4454 12.75H21.8068C21.6283 13.4427 21.4859 14.1504 21.3966 14.875H33.8597C33.9469 15.572 34 16.2796 34 17H21.25C21.25 17.7204 21.3095 18.428 21.3966 19.125H33.8597C33.7684 19.8496 33.6239 20.5572 33.4454 21.25H21.8068C21.9938 21.9767 22.219 22.6886 22.4974 23.375H22.5165H32.7356C32.436 24.1103 32.0875 24.82 31.6922 25.5H23.5599H23.5429C23.9743 26.2459 24.4545 26.9578 24.99 27.625H30.26C29.6395 28.3964 28.9361 29.0976 28.1924 29.75H27.0555H27.03C30.0241 32.3871 33.9448 34 38.2479 34C47.6361 34 55.2479 26.3883 55.2479 17C55.2479 7.61175 47.6383 0 38.25 0Z" fill="#F01524"/>
</svg>
