<svg width="56" height="34" viewBox="0 0 56 34" fill="none" xmlns="http://www.w3.org/2000/svg">
<path d="M17.5 34C26.8888 34 34.5 26.3888 34.5 17C34.5 7.61116 26.8888 0 17.5 0C8.11116 0 0.5 7.61116 0.5 17C0.5 26.3888 8.11116 34 17.5 34Z" fill="#F01524"/>
<path fill-rule="evenodd" clip-rule="evenodd" d="M28.1252 30.26C28.3228 30.1006 28.5013 29.9179 28.6925 29.75H27.5557C27.749 29.9179 27.9275 30.1006 28.1252 30.26Z" fill="#376BD1"/>
<path fill-rule="evenodd" clip-rule="evenodd" d="M38.75 0C33.3844 0 28.6074 2.49262 25.49 6.375H30.76C31.2934 7.04012 31.7587 7.75838 32.1901 8.5H24.0578H24.0408C23.6455 9.18213 23.2928 9.88762 22.9953 10.625H23.0144H33.2335C33.514 11.3135 33.7563 12.019 33.9454 12.75H22.3068C22.1283 13.4427 21.9859 14.1504 21.8966 14.875H34.3597C34.4469 15.572 34.5 16.2796 34.5 17H21.75C21.75 17.7204 21.8095 18.428 21.8966 19.125H34.3597C34.2684 19.8496 34.1239 20.5572 33.9454 21.25H22.3068C22.4938 21.9767 22.719 22.6886 22.9974 23.375H23.0165H33.2356C32.936 24.1103 32.5875 24.82 32.1922 25.5H24.0599H24.0429C24.4743 26.2459 24.9545 26.9578 25.49 27.625H30.76C30.1395 28.3964 29.4361 29.0976 28.6924 29.75H27.5555H27.53C30.5241 32.3871 34.4448 34 38.7479 34C48.1361 34 55.7479 26.3883 55.7479 17C55.7479 7.61175 48.1383 0 38.75 0Z" fill="#FEB415"/>
<path d="M17.5 34C26.8888 34 34.5 26.3888 34.5 17C34.5 7.61116 26.8888 0 17.5 0C8.11116 0 0.5 7.61116 0.5 17C0.5 26.3888 8.11116 34 17.5 34Z" fill="#F01524"/>
<path fill-rule="evenodd" clip-rule="evenodd" d="M38.75 0C33.3844 0 28.6074 2.49262 25.49 6.375H30.76C31.2934 7.04012 31.7587 7.75838 32.1901 8.5H24.0578H24.0408C23.6455 9.18213 23.2928 9.88762 22.9953 10.625H23.0144H33.2335C33.514 11.3135 33.7563 12.019 33.9454 12.75H22.3068C22.1283 13.4427 21.9859 14.1504 21.8966 14.875H34.3597C34.4469 15.572 34.5 16.2796 34.5 17H21.75C21.75 17.7204 21.8095 18.428 21.8966 19.125H34.3597C34.2684 19.8496 34.1239 20.5572 33.9454 21.25H22.3068C22.4938 21.9767 22.719 22.6886 22.9974 23.375H23.0165H33.2356C32.936 24.1103 32.5875 24.82 32.1922 25.5H24.0599H24.0429C24.4743 26.2459 24.9545 26.9578 25.49 27.625H30.76C30.1395 28.3964 29.4361 29.0976 28.6924 29.75H27.5555H27.53C30.5241 32.3871 34.4448 34 38.7479 34C48.1361 34 55.7479 26.3883 55.7479 17C55.7479 7.61175 48.1383 0 38.75 0Z" fill="#FEB415"/>
</svg>
