<svg width="27" height="27" viewBox="0 0 27 27" fill="none" xmlns="http://www.w3.org/2000/svg">
<g clip-path="url(#clip0_314_3228)">
<path d="M0.830449 4.86816H10.1355V18.4421H0.830449V4.86816Z" fill="#21CA50"/>
<path d="M16.8651 4.86865H26.1702V18.4425H16.8651V4.86865Z" fill="#21CA50"/>
<path d="M16.8648 7.28467H21.7206L21.7407 7.53133C21.8255 8.57068 22.5563 9.4619 23.5593 9.74896L23.7539 9.80464V13.506L23.5593 13.5617C22.5563 13.8488 21.8255 14.74 21.7407 15.7794L21.7206 16.026H16.8648V7.28467Z" fill="white"/>
<path d="M3.44047 9.74896C4.44347 9.46179 5.17432 8.57058 5.25906 7.53132L5.27916 7.28467H10.135V16.0261H5.27916L5.25906 15.7794C5.17432 14.74 4.44347 13.8488 3.44047 13.5617L3.24587 13.506V9.80469L3.44047 9.74896Z" fill="white"/>
<path d="M16.8654 20.5068H26.1704V22.5714H16.8654V20.5068Z" fill="#23AD4A"/>
<path d="M0.830693 20.5068H10.1357V22.5714H0.830693V20.5068Z" fill="#23AD4A"/>
<path d="M16.8651 18.4424H26.1702V20.5069H16.8651V18.4424Z" fill="#23AD4A"/>
<path d="M0.830693 18.4424H10.1357V20.5069H0.830693V18.4424Z" fill="#23AD4A"/>
<path d="M5.66209 12.1571C5.70042 12.1571 5.73942 12.1529 5.77713 12.1452C5.81489 12.1382 5.85203 12.1264 5.88746 12.1116C5.92341 12.0969 5.95759 12.0786 5.98945 12.0573C6.02187 12.0361 6.05202 12.0114 6.07916 11.9842C6.1063 11.9571 6.13106 11.927 6.1523 11.8946C6.17348 11.8627 6.19182 11.8285 6.20658 11.7925C6.22134 11.7571 6.23305 11.7199 6.24014 11.6822C6.24781 11.6444 6.25195 11.6055 6.25195 11.5671C6.25195 11.5288 6.24781 11.4899 6.24014 11.4521C6.23305 11.4143 6.22134 11.3772 6.20658 11.3418C6.19182 11.3058 6.17348 11.2716 6.1523 11.2397C6.13106 11.2073 6.1063 11.1772 6.07916 11.1501C6.05202 11.1229 6.02187 11.0982 5.98945 11.0769C5.95759 11.0557 5.92341 11.0374 5.88746 11.0227C5.85203 11.0079 5.81489 10.9961 5.77713 10.989C5.70161 10.9737 5.62319 10.9737 5.54648 10.989C5.50934 10.9961 5.47215 11.0079 5.43615 11.0227C5.40078 11.0374 5.36654 11.0557 5.33468 11.0769C5.30226 11.0982 5.27211 11.1229 5.24497 11.1501C5.21783 11.1772 5.19307 11.2073 5.17189 11.2397C5.15065 11.2716 5.13236 11.3058 5.1176 11.3418C5.10284 11.3772 5.09108 11.4143 5.08399 11.4521C5.07632 11.4899 5.07218 11.5288 5.07218 11.5671C5.07218 11.6055 5.07632 11.6444 5.08399 11.6822C5.09108 11.7199 5.10284 11.7571 5.1176 11.7925C5.13236 11.8285 5.15065 11.8627 5.17189 11.8946C5.19307 11.927 5.21783 11.9571 5.24497 11.9842C5.27211 12.0114 5.30226 12.0361 5.33468 12.0573C5.36654 12.0786 5.40072 12.0969 5.43615 12.1116C5.47215 12.1264 5.50929 12.1382 5.54648 12.1452C5.58481 12.153 5.62371 12.1571 5.66209 12.1571Z" fill="#454B60"/>
<path d="M10.1353 4.13281H16.865V23.3068H10.1353V4.13281Z" fill="#E5613E"/>
<path d="M0.829874 4.27854H9.54537V4.13283C9.54537 3.80703 9.80954 3.54297 10.1352 3.54297H16.8648C17.1906 3.54297 17.4546 3.80703 17.4546 4.13283V4.27854H26.1701C26.4959 4.27854 26.76 4.5426 26.76 4.8684V18.4422V20.5067V22.5712C26.76 22.897 26.4959 23.1611 26.1701 23.1611H17.4546V23.3068C17.4546 23.6326 17.1906 23.8967 16.8648 23.8967H10.1352C9.80948 23.8967 9.54532 23.6326 9.54532 23.3068V23.1611H0.829823C0.504124 23.1611 0.23996 22.897 0.23996 22.5712V20.5067V18.4422V4.8684C0.240013 4.5426 0.504072 4.27854 0.829874 4.27854ZM9.54537 12.1566H7.68234C7.35664 12.1566 7.09248 11.8926 7.09248 11.5668C7.09248 11.241 7.35664 10.9769 7.68234 10.9769H9.54537V7.87443H5.80854C5.61482 8.94833 4.86003 9.85519 3.83591 10.2391V13.0715C4.86003 13.4554 5.61482 14.3622 5.80854 15.4362H9.54537V12.1566ZM9.54537 19.032H1.41974V19.9168H9.54537V19.032ZM1.41974 5.45826V17.8524H9.54537V16.6159H5.27938C4.97217 16.6159 4.7164 16.3802 4.69149 16.074L4.67139 15.8274C4.60644 15.0314 4.04662 14.3488 3.27842 14.1289L3.08382 14.0732C2.83068 14.0008 2.65623 13.7693 2.65623 13.5061V9.80474C2.65623 9.54151 2.83074 9.31008 3.08382 9.23767L3.27836 9.18204C4.04662 8.96206 4.60649 8.27948 4.67139 7.48352L4.69149 7.23686C4.71645 6.93074 4.97223 6.69491 5.27938 6.69491H9.54537V5.45826H1.41974ZM25.5803 19.032H17.4546V19.9168H25.5803V19.032ZM17.4546 10.9769H23.1641V10.2391C22.1399 9.85519 21.3852 8.94828 21.1914 7.87443H17.4546V10.9769ZM23.1641 12.1566H17.4547V15.4361H21.1915C21.3852 14.3623 22.14 13.4555 23.1642 13.0714C23.1641 13.0714 23.1641 12.1566 23.1641 12.1566ZM25.5803 5.45826H17.4546V6.69471H21.7206C22.0278 6.69471 22.2835 6.93048 22.3085 7.2366L22.3286 7.48326C22.3935 8.27927 22.9533 8.96185 23.7216 9.18178L23.9162 9.23746C24.1693 9.30988 24.3437 9.54131 24.3437 9.80454V13.5059C24.3437 13.7691 24.1692 14.0005 23.9162 14.073L23.7217 14.1286C22.9534 14.3486 22.3935 15.0312 22.3286 15.8272L22.3085 16.0738C22.2835 16.3799 22.0277 16.6157 21.7206 16.6157H17.4546V17.8522H25.5803V5.45826ZM25.5803 21.9814V21.0966H17.4546V21.9814H25.5803ZM10.7251 22.7169H12.9102V9.14086C12.9102 8.81506 13.1744 8.551 13.5001 8.551C13.8259 8.551 14.0899 8.81506 14.0899 9.14086V22.7169H16.275V22.5712V20.5067V18.4422V16.026V7.28457V4.8684V4.72269H10.7251V4.8684V7.28457V16.026V18.4421V20.5067V22.5712L10.7251 22.7169ZM1.41974 21.9814H9.54537V21.0966H1.41974V21.9814Z" fill="#454B60"/>
<path d="M13.4999 7.71023C13.5383 7.71023 13.5772 7.70609 13.615 7.69842C13.6527 7.69132 13.6899 7.67957 13.7253 7.6648C13.7613 7.65004 13.7955 7.63176 13.8273 7.61052C13.8598 7.58928 13.8899 7.56452 13.917 7.53738C13.9441 7.51024 13.9689 7.48015 13.9901 7.44772C14.0114 7.41587 14.0297 7.38168 14.0444 7.34568C14.0592 7.31031 14.0709 7.27312 14.078 7.23536C14.0857 7.1976 14.0898 7.1587 14.0898 7.12031C14.0898 6.96518 14.0267 6.813 13.917 6.7033C13.8899 6.67616 13.8598 6.6514 13.8273 6.63016C13.7955 6.60892 13.7613 6.59064 13.7253 6.57588C13.6899 6.56111 13.6527 6.54936 13.615 6.54226C13.5389 6.52693 13.4604 6.52693 13.3849 6.54226C13.3472 6.54936 13.31 6.56111 13.2747 6.57588C13.2387 6.59064 13.2045 6.60892 13.1727 6.63016C13.1403 6.6514 13.1102 6.67616 13.083 6.7033C12.9733 6.813 12.9101 6.96518 12.9101 7.12031C12.9101 7.15864 12.9143 7.1976 12.9219 7.23536C12.929 7.27312 12.9408 7.31025 12.9555 7.34568C12.9703 7.38168 12.9886 7.41587 13.0098 7.44772C13.031 7.48015 13.0558 7.51024 13.083 7.53738C13.1101 7.56452 13.1402 7.58928 13.1726 7.61052C13.2045 7.63176 13.2387 7.65004 13.2747 7.6648C13.31 7.67957 13.3472 7.69132 13.3849 7.69842C13.4226 7.70609 13.4616 7.71023 13.4999 7.71023Z" fill="#454B60"/>
</g>
<defs>
<clipPath id="clip0_314_3228">
<rect width="26.52" height="26.52" fill="white" transform="matrix(-1 0 0 1 26.76 0.459961)"/>
</clipPath>
</defs>
</svg>
