<svg width="45" height="56" viewBox="0 0 45 56" fill="none" xmlns="http://www.w3.org/2000/svg">
<path d="M36.7546 0H0V56H36.7546C41.3011 56 45 52.2717 45 47.689V8.31097C45 3.72827 41.3011 0 36.7546 0ZM3.25199 3.27786H30.2506C33.0039 3.27786 35.244 5.53569 35.244 8.31097V47.689C35.244 50.4643 33.0039 52.7223 30.2506 52.7223H3.25199V3.27786ZM41.748 47.689C41.748 50.4463 39.537 52.6927 36.8082 52.7218C37.8668 51.324 38.496 49.5791 38.496 47.689V8.31097C38.496 6.42075 37.8668 4.676 36.8082 3.27819C39.537 3.30739 41.748 5.55373 41.748 8.31097V47.689Z" fill="#2C2B39"/>
<path d="M19.248 9.20347C12.564 9.20347 7.12609 14.6846 7.12609 21.4218C7.12609 28.1589 12.564 33.64 19.248 33.64C25.932 33.64 31.3699 28.1589 31.3699 21.4218C31.3699 14.6846 25.932 9.20347 19.248 9.20347ZM19.248 12.4813C22.2674 12.4813 24.9392 14.0098 26.5419 16.3395H11.9541C13.5568 14.0098 16.2286 12.4813 19.248 12.4813ZM28.1179 21.4218C28.1179 22.0397 28.0554 22.6431 27.9364 23.2261H10.5595C10.4405 22.6431 10.378 22.0397 10.378 21.4218C10.378 20.8038 10.4405 20.2004 10.5595 19.6174H27.9364C28.0554 20.2004 28.1179 20.8038 28.1179 21.4218ZM19.248 30.3622C16.2286 30.3622 13.5568 28.8337 11.9541 26.504H26.542C24.9392 28.8337 22.2674 30.3622 19.248 30.3622Z" fill="#2C2B39"/>
<path d="M11.2312 36.9143H27.2649V40.1921H11.2312V36.9143Z" fill="#2C2B39"/>
<path d="M13.828 43.4605H24.668V46.7383H13.828V43.4605Z" fill="#2C2B39"/>
</svg>
