<svg width="48" height="56" viewBox="0 0 48 56" fill="none" xmlns="http://www.w3.org/2000/svg">
<path d="M48 29.0664C48 35.7229 43.0211 41.2336 36.6057 42.0432V56H0V0H36.6055V16.0896C43.0211 16.8992 48 22.41 48 29.0664ZM3.26851 45.9922H9.51365L11.1977 43.2214H25.4077L27.0919 45.9922H33.337V42.0432C26.9216 41.2336 21.9427 35.7229 21.9427 29.0664C21.9427 22.41 26.9216 16.8992 33.337 16.0896V12.1406H3.26851V45.9922ZM33.337 52.7188V49.2734H25.2573L23.5732 46.5026H13.0323L11.3483 49.2734H3.26851V52.7188H33.337ZM3.26851 3.28125V8.85938H33.337V3.28125H3.26851ZM34.9713 19.2683C29.5896 19.2683 25.2112 23.6637 25.2112 29.0664C25.2112 34.4691 29.5896 38.8645 34.9713 38.8645C40.353 38.8645 44.7314 34.4691 44.7314 29.0664C44.7314 23.6637 40.3531 19.2683 34.9713 19.2683Z" fill="#2C2B39"/>
<path d="M27.3042 30.0635L29.9281 27.4396L35.564 33.0755L32.9401 35.6994L27.3042 30.0635Z" fill="#2C2B39"/>
<path d="M32.9401 35.6994L30.3162 33.0755L40.3796 23.0122L43.0035 25.636L32.9401 35.6994Z" fill="#2C2B39"/>
</svg>
