<svg width="117" height="115" viewBox="0 0 117 115" fill="none" xmlns="http://www.w3.org/2000/svg">
<path d="M38.5355 92.5036C33.4284 105.596 36.2141 110.93 36.4462 114.809C39.1546 114.243 46.2427 113.451 52.9284 114.809C42.7141 91.2913 52.4641 76.017 67.3212 72.3803C79.207 69.4709 81.7141 89.2709 81.482 99.5346C81.482 98.8073 81.1105 95.4615 79.6248 87.8971C77.7677 78.4415 69.8748 73.3501 60.1248 79.1689C52.3248 83.8239 54.2439 104.868 56.1784 114.809C56.2558 113.758 57.757 111.948 63.1427 113.112C69.8748 114.566 73.5891 114.809 77.9998 113.112C81.5284 111.754 82.4105 112.546 82.4105 113.112C82.9522 108.829 84.0355 98.5163 84.0355 91.5338C84.0355 82.8056 82.1784 80.3811 78.9284 74.5623C75.6784 68.7435 77.3034 67.2888 75.9105 64.6219C74.5177 61.9549 71.732 64.137 67.3212 64.6219C62.9105 65.1068 55.0177 70.6831 51.0712 72.3803C47.1248 74.0774 48.982 73.1076 47.357 74.5623C45.732 76.017 43.6427 79.4113 38.5355 92.5036Z" fill="#EEEEEE"/>
<mask id="mask0_243_4465" style="mask-type:alpha" maskUnits="userSpaceOnUse" x="0" y="0" width="117" height="114">
<rect y="0.130859" width="117" height="112.981" fill="#C4C4C4"/>
</mask>
<g mask="url(#mask0_243_4465)">
<path d="M48.9745 65.4083C48.5763 63.8268 47.9705 63.0778 47.3821 60.859C46.3814 57.0883 46.5342 57.8932 42.1851 57.425C40.9796 57.281 37.5585 56.966 37.2042 56.8523C34.7038 56.05 35.1835 52.9974 35.5364 52.203C35.7839 51.6474 35.9233 50.5801 35.4503 50.2447C34.7699 49.9895 34.6584 49.5108 34.6444 49.0689C34.64 48.7365 34.6792 48.4049 34.7612 48.0825C34.3055 47.8043 34.0413 47.0652 34.2488 46.6581C34.3883 46.4931 34.4049 45.5067 34.3989 45.289C34.3556 43.6161 34.525 43.7239 33.551 43.3294C32.7184 42.9946 32.4889 42.9591 31.6623 42.3942C31.3521 42.1818 30.9685 41.0245 31.2887 40.4911C34.3302 35.4342 35.2702 33.7514 35.1882 32.6335C35.1381 31.9607 34.3589 30.7613 34.559 30.0932C34.9306 28.8694 35.1114 27.4884 35.3543 26.6191C35.888 24.712 36.349 23.5316 37.1495 21.5956C37.0248 21.5568 39.5546 17.6093 41.6647 16.2033C44.9017 14.0464 48.0746 12.1584 52.3389 11.6507C55.5532 11.266 58.3825 10.5591 61.6788 10.8715" stroke="black"/>
<path d="M46.3649 55.0455C49.4684 53.4942 51.2403 52.1337 53.0156 50.301C56.6535 46.5468 56.3432 46.2443 56.3733 45.106C56.4093 43.7454 56.5067 42.5052 56.3953 41.8535C56.7289 43.8592 56.8182 45.0402 56.7389 46.0957C56.6054 47.8975 55.548 48.7596 55.1057 49.3179C54.1684 50.5015 52.3631 52.452 49.0128 55.1047C46.932 56.7539 45.2768 57.7877 44.5596 57.5832C44.1333 57.4615 43.4328 57.6404 42.188 57.4194C40.9931 57.207 37.5614 56.9591 37.2071 56.8467C36.7586 56.7015 36.3569 56.4419 36.043 56.0944C36.7802 56.921 41.8117 57.3214 46.3649 55.0455Z" fill="black"/>
<path d="M72.0266 43.7188C71.6056 44.5388 71.5516 46.1887 70.9912 47.0179C69.6716 48.9704 73.9326 57.775 74.1975 58.3175C77.1562 64.3898 77.3577 65.1632 78.8561 69.0608" stroke="black" stroke-width="1.04982"/>
<path d="M48.2664 63.3604C48.2664 63.3604 49.063 65.7935 48.2344 66.7391L49.7721 66.3794C49.7721 66.3794 50.8622 65.9585 51.0524 65.174C51.3025 64.1422 52.2599 58.8033 52.1798 58.9269C51.2959 60.2954 50.927 63.3656 49.2117 64.6479C48.8034 64.9517 48.6393 63.751 48.2664 63.3604Z" fill="black"/>
<path d="M31.8879 41.7454C33.2742 41.4304 33.2889 41.4304 34.1562 41.8013C35.4417 42.3504 36.4711 42.77 37.1089 42.3675C37.309 42.2426 37.4258 41.9578 37.4305 41.7099C37.4345 41.4942 38.1223 42.6141 36.8681 43.0508C36.2403 43.2691 35.285 43.6058 34.2422 43.715C34.1088 43.6012 34.0841 43.5282 33.5978 43.3316C33.4357 43.2658 33.3029 43.2205 33.1881 43.1863C32.6311 42.9706 32.3576 42.868 31.6671 42.3971C31.4756 42.2656 31.2561 41.775 31.1914 41.293C31.3035 41.5179 31.3982 41.8566 31.8879 41.7454Z" fill="black"/>
<path d="M35.1936 42.8691C34.4884 42.6396 34.5084 42.3674 33.1694 42.489C32.6637 42.535 32.6171 42.6817 33.3789 42.9131C33.6432 43.0036 33.9136 43.0754 34.1882 43.1282C35.2676 43.2919 35.7479 43.0492 35.1936 42.8691Z" fill="black"/>
<path d="M34.2092 46.8552C34.7909 46.658 35.2626 46.9907 35.5194 47.0992C36.2399 47.4036 37.0125 47.6909 37.9772 48.0953C38.5983 48.3583 38.9338 48.0473 38.9338 48.0473C38.9338 48.0473 38.9925 48.4543 38.5089 48.4793C37.9451 48.5083 37.3654 48.1466 36.6916 47.9862C36.0178 47.8257 34.7602 48.0822 34.7602 48.0822C34.6292 47.9617 34.5056 47.8337 34.3899 47.6988C34.2545 47.474 34.1378 47.1288 34.2092 46.8552Z" fill="black"/>
<path d="M38.53 48.3545C37.9056 48.3466 37.2845 47.9506 36.55 47.7494C35.8154 47.5481 34.4218 47.7257 34.4218 47.7257L34.3984 47.704C34.5126 47.8369 34.6344 47.9632 34.7634 48.0822C34.7634 48.0822 36.0189 47.8263 36.6921 47.9861C37.3652 48.146 37.945 48.5064 38.5094 48.4794C38.7622 48.4676 38.8689 48.363 38.9096 48.2519C38.8369 48.313 38.7195 48.3571 38.53 48.3545Z" fill="black"/>
<path d="M35.5392 52.2005C35.7867 51.6449 35.9095 50.5618 35.4531 50.2422C35.4538 50.2415 38.5173 50.3592 35.5392 52.2005Z" fill="black"/>
<path d="M40.2235 33.9033C40.2081 33.7829 38.8184 33.5389 38.4435 33.8118C38.4435 33.8118 38.0092 34.532 38.8258 35.1679C39.0606 35.3514 40.3749 35.1219 40.2235 33.9033Z" fill="black"/>
<path fill-rule="evenodd" clip-rule="evenodd" d="M40.8104 33.6593C39.8304 33.1595 38.7049 32.7597 37.8477 33.6797C37.7076 33.8941 37.6028 34.0145 37.4961 34.3729C39.2186 32.5558 42.3162 35.2146 42.3849 35.191C42.3502 35.1364 42.02 34.2769 40.8104 33.6593Z" fill="black"/>
<path fill-rule="evenodd" clip-rule="evenodd" d="M38.566 32.6491C39.47 32.1887 40.8729 32.4202 42.1018 33.6224C42.3533 33.8683 42.7776 34.3931 42.7309 34.4313C39.3132 30.8038 37.5273 33.8394 37.4492 33.8026C37.4953 33.7578 37.62 33.1278 38.566 32.6491Z" fill="black"/>
<path fill-rule="evenodd" clip-rule="evenodd" d="M41.9424 30.0009C40.3606 29.7201 36.3424 29.9878 36.0362 30.3837C35.6987 30.8203 36.2297 31.9007 37.1037 31.9586C37.5767 31.9901 38.4293 31.568 41.8944 31.7896C42.262 31.8132 43.3087 32.2183 44.1753 32.6444C45.15 33.1291 43.5435 30.2857 41.9424 30.0009Z" fill="black"/>
<path d="M56.4062 40.8738C56.4062 40.8738 57.5884 43.0478 60.3731 40.3411C60.8781 39.8506 61.8541 38.9858 62.4839 38.2197C62.4839 38.2197 61.5772 39.6197 60.6159 40.7383C59.2449 42.327 57.8306 43.6804 56.4062 40.8738Z" fill="black"/>
<path d="M57.2905 38.3118C57.4967 37.741 58.0844 36.6973 58.0844 36.6973C57.5947 38.6702 58.0717 38.2144 58.899 37.8074C59.5928 37.4654 62.1593 35.4669 62.0519 35.6754C62.0245 35.7267 60.2313 37.7324 60.0565 37.8534C57.7388 39.4514 56.9623 39.2206 57.2905 38.3118Z" fill="black"/>
<path d="M62 30.9541C62 30.9541 62.7892 31.1382 63.1341 32.5837C63.2622 33.1183 63.0948 34.5519 62.5584 35.005C62.5604 35.005 63.0534 31.6624 62 30.9541Z" fill="black"/>
<path fill-rule="evenodd" clip-rule="evenodd" d="M58.1175 35.6172C57.9774 35.6547 58.2309 32.7896 58.5652 31.577C58.9274 30.2658 59.6046 29.6174 60.1036 29.6549C62.2297 29.8153 62.554 31.4961 62.554 31.4961C62.554 31.4961 60.6099 29.33 59.3777 32.0196C59.0281 32.7804 58.2796 35.5738 58.1175 35.6172Z" fill="black"/>
<path fill-rule="evenodd" clip-rule="evenodd" d="M60.2892 31.8079C60.1404 31.6763 59.2885 30.8925 59.053 30.9898C58.7774 31.1049 59.1704 31.7684 59.2965 31.8447C59.6851 32.0749 60.0551 32.3344 60.4032 32.6207C60.7555 32.9238 60.9743 33.2724 61.1945 33.6578C61.3853 33.9925 61.4967 34.4383 61.5761 34.8092C61.879 34.3594 61.3899 33.3204 61.1758 32.9475C60.8082 32.2998 60.6301 32.1169 60.2892 31.8079Z" fill="black"/>
<path d="M39.2559 9.48894C38.7569 11.3375 38.6875 11.6123 38.4147 13.2169C38.2279 14.3138 38.4627 15.5777 38.4627 15.5777C38.6668 12.9683 39.5161 10.6108 41.0405 9.00166C43.8171 6.06941 44.9099 4.79893 44.9099 4.79893L42.6437 10.0216L46.6925 3.13585C47.0734 4.68187 47.9707 8.40456 47.7119 7.3182C47.6051 5.94052 47.7119 4.43527 47.7239 2.89648C49.8414 6.20751 50.6153 7.30242 50.5319 6.99598C50.4391 6.65797 50.227 5.8866 49.7313 3.94865L53.5627 6.88089L50.0442 3.12467C52.9349 5.07907 58.6169 7.79365 61.8298 7.7509C63.3282 7.73183 65.1228 8.01394 66.7726 9.49486C66.8 9.50341 62.4363 6.63232 62.4363 6.63232C62.4363 6.63232 71.7568 7.71408 72.4853 15.4836C77.3207 14.8957 79.3288 21.1693 79.3288 21.1693L77.8565 20.5643C79.2574 21.3455 80.5704 22.9007 80.7452 26.0428L79.2168 23.7412C80.5911 25.8455 80.4596 28.0978 79.4636 31.8389C79.1667 33.4316 78.6837 34.8395 78.2341 36.1225C76.757 40.3351 72.0664 49.3666 71.3992 50.7942C69.9856 50.4424 68.283 50.5312 67.4044 49.6198C63.6625 45.7222 61.2167 40.1963 61.2167 40.1963C61.9132 38.8989 62.3342 38.2235 62.6371 37.6553C63.2982 36.4112 64.0767 35.5872 63.419 33.0521C62.5397 29.6589 60.7437 29.3143 59.5549 29.5458C58.1059 29.8279 57.4721 30.5414 56.5908 32.0144C55.466 33.8919 54.7669 36.761 54.7669 36.761C54.7669 36.761 54.4126 37.3719 51.8461 31.0031C51.5866 30.3586 52.113 28.6712 53.085 24.4842C53.3338 23.415 50.4298 20.4472 49.722 19.9238C48.311 18.8808 40.8357 19.2793 37.7989 19.1537C37.7876 19.1537 37.7442 19.088 37.7442 19.088C33.9002 15.6178 39.2559 9.48894 39.2559 9.48894Z" fill="black"/>
<path d="M85.9998 85.1215C84.5988 80.2552 83.7082 76.5227 79.6927 68.0521C78.7853 66.1385 77.3297 63.5271 77.3263 63.5186L77.3183 63.4936L77.3136 63.4791L77.3076 63.4601L77.2983 63.4311V63.4246L77.2903 63.4002C77.2903 63.4002 76.1248 60.0359 75.6225 59.0449C75.5371 59.0232 73.1774 58.359 71.3114 58.6339C70.0077 58.788 68.7153 59.0239 67.442 59.3402C64.1755 60.1546 60.9927 61.2661 57.9346 62.6604C54.6216 64.1565 50.9731 65.6722 47.8002 66.1378L46.091 70.8318C46.091 70.8318 45.3124 71.6558 42.8927 75.6645C42.0308 77.0455 40.1775 80.296 40.2729 80.1546C36.1139 87.5382 34.8063 91.3444 33.3707 95.5892C30.8876 102.929 30.9883 109.596 30.1297 132.24C29.4839 149.283 30.2298 151.097 29.9903 158.887C29.5953 171.729 31.2198 188.885 33.4267 189.291C34.2553 189.444 42.1242 191.369 47.4859 191.276C51.5068 191.207 55.4556 190.806 59.4417 190.305C76.377 188.175 79.5379 186.91 79.4905 185.061C79.4905 184.984 79.4865 184.906 79.4838 184.827V184.813C79.4358 183.219 81.2271 174.836 81.0596 173.042C80.9796 172.183 80.3398 169.873 80.3731 169.125C80.4912 166.477 82.1571 169.072 81.3812 159.7C80.8408 153.175 81.2704 139.552 82.4373 130.191C86.4508 97.9881 88.0098 92.0908 85.9998 85.1215ZM48.7735 66.8073C51.288 66.1694 54.6537 65.2185 57.966 63.7225C61.2783 62.2264 64.9436 60.8902 67.4734 60.4016C72.2914 59.4724 73.984 59.5223 74.7372 60.5903C75.7686 62.0535 75.5157 62.7104 74.9119 62.9886C72.6257 63.0451 70.6696 63.1924 67.1885 64.0079C64.1023 64.7312 60.5798 66.3206 57.4283 67.6562C54.3808 68.9478 49.2705 71.5512 47.6381 70.1078C47.599 70.065 47.5639 70.0187 47.5333 69.9697C46.8508 68.8787 47.6681 67.0874 48.7682 66.8073H48.7735ZM80.8101 159.435C81.544 169.967 78.8901 166.554 72.8865 171.83C72.3421 172.308 79.4638 167.059 80.0629 172.27C80.3611 174.862 79.7127 177.77 79.0522 180.276C78.8187 181.162 78.748 184.925 78.4384 185.042C75.8206 186.031 70.3134 187.018 59.3683 188.335C43.8741 190.2 40.6678 189.025 33.3266 187.577C32.5054 186.697 32.1491 183.161 32.0831 182.761C32.0357 182.473 31.993 182.184 31.967 181.893C31.943 181.626 31.9397 181.357 31.909 181.091C31.8182 180.311 30.8289 169.068 31.1371 158.625C31.3719 150.657 30.6034 147.993 31.3646 131.934C32.0497 117.498 31.2925 117.69 31.8863 111.702C31.9363 111.195 33.1572 138.763 33.2272 138.241C33.2846 137.811 33.1258 104.474 33.356 100.639C33.5174 97.9539 33.8463 96.8669 35.0185 92.8194C35.8064 90.0995 42.2903 77.8425 45.9529 73.3688C46.3609 72.9788 46.8574 72.6903 47.4012 72.5271C51.4961 71.3079 54.3154 69.9204 57.1327 68.6117C60.9761 66.827 63.0516 65.496 67.414 64.7411C71.7664 63.9881 74.3215 64.0177 76.461 65.1836C77.0495 65.6867 77.58 66.2522 78.0428 66.8697C78.253 67.2834 78.4578 67.6963 78.6399 68.081C82.6554 76.551 84.0437 80.0218 85.4487 84.8874C87.4588 91.858 84.6848 98.0276 80.6727 130.231C79.5032 139.592 80.5126 155.207 80.8074 159.435L80.8101 159.435Z" fill="black"/>
<path d="M53.5908 124.821C53.6928 125.401 55.1392 130.715 55.5868 130.931C54.7776 126.007 54.9077 110.251 54.5448 105.668C53.9257 97.8578 54.2606 95.0853 54.1558 95.4187C53.5974 97.2094 53.3499 98.8218 53.1311 104.245C53.1004 104.998 52.3472 97.1515 52.5607 94.9979C53.1958 88.5836 55.0291 81.4335 59.4649 77.966C60.7445 76.9651 62.874 75.5875 64.2263 75.0949C65.8174 74.5156 67.2077 74.1085 69.7635 74.2499C72.0037 74.3735 74.783 74.8372 77.3022 77.4353C78.6598 78.8367 79.4957 80.263 80.3817 82.0727C81.3824 84.1218 82.3677 87.9293 82.6332 90.2585C83.0542 93.9556 83.5085 106.688 83.0282 102.161C82.4891 97.0818 78.096 89.8719 78.3829 90.7622C78.545 91.2647 81.5725 99.2828 81.8854 107.067C82.1876 114.587 81.0054 132.147 81.8854 132.253C82.2296 128.773 83.0849 120.914 83.4205 119.102C84.1543 115.162 85.6334 102.399 83.754 90.5992C82.0522 79.8994 75.9732 73.8409 70.0777 73.7686C69.9923 73.7686 69.9083 73.7843 69.8249 73.783C58.6423 73.6515 54.7522 80.6457 52.8269 86.2866C51.1404 91.2291 50.6373 96.8668 51.111 102.088C51.1897 102.959 50.9909 104.223 52.5073 111.245C52.6754 112.023 53.041 113.737 52.981 113.605C48.752 104.678 48.5112 92.9481 48.4871 93.9424C48.1796 108.336 51.8048 114.673 53.5908 124.821Z" fill="black"/>
</g>
</svg>
