<svg width="116" height="89" viewBox="0 0 116 89" fill="none" xmlns="http://www.w3.org/2000/svg">
<mask id="mask0_243_4454" style="mask-type:alpha" maskUnits="userSpaceOnUse" x="0" y="0" width="116" height="89">
<rect width="116" height="88.2083" rx="10" fill="#C4C4C4"/>
</mask>
<g mask="url(#mask0_243_4454)">
<rect x="58" width="59.8125" height="88.2083" fill="#F8F8F8"/>
<rect width="58" height="88.2083" fill="#EAEAEA"/>
<rect x="-1.8125" y="87.6045" width="90.625" height="17.5208" fill="white"/>
</g>
<rect x="1" y="1" width="114" height="86.2083" rx="9" stroke="#E5613E" stroke-width="2"/>
<rect x="62.125" y="7.14551" width="47.9375" height="20.75" stroke="#CDCDCD"/>
<path d="M70.6875 16.917H102.708V19.9378H70.6875V16.917Z" fill="#CDCDCD"/>
<path d="M70.6875 21.7503H102.708V24.7712H70.6875V21.7503Z" fill="#CDCDCD"/>
<path d="M68.2244 11.3621C68.2244 11.168 68.1484 11.016 67.9964 10.9061C67.8444 10.7939 67.6433 10.7377 67.3931 10.7377C67.1686 10.7377 66.9815 10.7939 66.8319 10.9061C66.6846 11.016 66.6109 11.1598 66.6109 11.3375H65.5587C65.5587 11.0616 65.6358 10.8137 65.7902 10.5939C65.9468 10.3718 66.1678 10.1987 66.4531 10.0748C66.7407 9.95089 67.054 9.88892 67.3931 9.88892C67.9824 9.88892 68.4442 10.0152 68.7786 10.2677C69.1129 10.5203 69.2801 10.878 69.2801 11.341C69.2801 11.5678 69.2112 11.7783 69.0732 11.9724C68.9376 12.1665 68.7435 12.322 68.4909 12.4389C68.7715 12.5371 68.9867 12.6867 69.1363 12.8878C69.286 13.0866 69.3608 13.3345 69.3608 13.6314C69.3608 14.0897 69.1808 14.4545 68.8206 14.7258C68.4629 14.9947 67.987 15.1291 67.3931 15.1291C67.0213 15.1291 66.6869 15.066 66.3899 14.9397C66.093 14.8111 65.8673 14.6369 65.713 14.4171C65.561 14.195 65.485 13.9378 65.485 13.6455H66.5443C66.5443 13.8279 66.6238 13.981 66.7828 14.1049C66.9418 14.2265 67.1452 14.2873 67.3931 14.2873C67.6737 14.2873 67.8947 14.2242 68.056 14.0979C68.2197 13.9717 68.3015 13.8115 68.3015 13.6174C68.3015 13.3508 68.229 13.1603 68.0841 13.0457C67.9391 12.9288 67.7275 12.8703 67.4492 12.8703H66.8214V12.046H67.4703C67.973 12.039 68.2244 11.811 68.2244 11.3621ZM73.0226 14.0102H71.1777L70.8269 15.0625H69.708L71.6091 9.95556H72.5842L74.4958 15.0625H73.3769L73.0226 14.0102ZM71.4618 13.1579H72.7385L72.0967 11.2463L71.4618 13.1579ZM76.0251 13.2631V15.0625H74.9728V9.95556H76.9651C77.3486 9.95556 77.6853 10.0257 77.9753 10.166C78.2675 10.3063 78.492 10.5062 78.6487 10.7658C78.8054 11.023 78.8837 11.3165 78.8837 11.6462C78.8837 12.1466 78.7118 12.5418 78.3681 12.8317C78.0267 13.1193 77.5532 13.2631 76.9476 13.2631H76.0251ZM76.0251 12.4108H76.9651C77.2434 12.4108 77.455 12.3453 77.6 12.2144C77.7473 12.0835 77.8209 11.8964 77.8209 11.6532C77.8209 11.403 77.7473 11.2007 77.6 11.0464C77.4526 10.8921 77.2492 10.8126 76.9896 10.8079H76.0251V12.4108ZM82.6823 12.8493H80.662V14.2172H83.0331V15.0625H79.6098V9.95556H83.0261V10.8079H80.662V12.025H82.6823V12.8493ZM87.0001 10.8079H84.7097V15.0625H83.6574V9.95556H87.0001V10.8079ZM90.718 9.95556H91.7738V15.0625H90.718V11.6707L88.6732 15.0625H87.6209V9.95556H88.6732V13.3543L90.718 9.95556ZM96.6948 13.3614C96.6551 13.9109 96.4517 14.3435 96.0845 14.6591C95.7198 14.9748 95.2381 15.1327 94.6394 15.1327C93.9847 15.1327 93.4691 14.9128 93.0926 14.4732C92.7185 14.0313 92.5314 13.4257 92.5314 12.6563V12.3442C92.5314 11.8531 92.6179 11.4205 92.791 11.0464C92.964 10.6723 93.2107 10.3858 93.5311 10.1871C93.8538 9.98596 94.2279 9.88541 94.6535 9.88541C95.2427 9.88541 95.7174 10.0433 96.0775 10.3589C96.4376 10.6746 96.6457 11.1177 96.7019 11.6883H95.6496C95.6239 11.3586 95.5315 11.1201 95.3725 10.9727C95.2158 10.8231 94.9762 10.7483 94.6535 10.7483C94.3027 10.7483 94.0397 10.8745 93.8643 11.1271C93.6912 11.3773 93.6024 11.7666 93.5977 12.2951V12.6809C93.5977 13.2327 93.6807 13.6361 93.8467 13.891C94.0151 14.1459 94.2793 14.2733 94.6394 14.2733C94.9645 14.2733 95.2065 14.1997 95.3655 14.0523C95.5268 13.9027 95.6192 13.6724 95.6426 13.3614H96.6948ZM101.125 10.8079H99.5605V15.0625H98.5082V10.8079H96.9649V9.95556H101.125V10.8079ZM102.78 13.2631V15.0625H101.728V9.95556H103.72C104.104 9.95556 104.441 10.0257 104.731 10.166C105.023 10.3063 105.247 10.5062 105.404 10.7658C105.561 11.023 105.639 11.3165 105.639 11.6462C105.639 12.1466 105.467 12.5418 105.123 12.8317C104.782 13.1193 104.308 13.2631 103.703 13.2631H102.78ZM102.78 12.4108H103.72C103.999 12.4108 104.21 12.3453 104.355 12.2144C104.503 12.0835 104.576 11.8964 104.576 11.6532C104.576 11.403 104.503 11.2007 104.355 11.0464C104.208 10.8921 104.005 10.8126 103.745 10.8079H102.78V12.4108ZM68.768 17.9556H69.8238V23.0625H68.768V19.6707L66.7232 23.0625H65.6709V17.9556H66.7232V21.3543L68.768 17.9556ZM71.788 21.2631V23.0625H70.7357V17.9556H72.728C73.1115 17.9556 73.4482 18.0257 73.7382 18.166C74.0305 18.3063 74.255 18.5062 74.4116 18.7658C74.5683 19.023 74.6466 19.3165 74.6466 19.6462C74.6466 20.1466 74.4748 20.5418 74.131 20.8317C73.7896 21.1193 73.3161 21.2631 72.7105 21.2631H71.788ZM71.788 20.4108H72.728C73.0063 20.4108 73.2179 20.3453 73.3629 20.2144C73.5102 20.0835 73.5838 19.8964 73.5838 19.6532C73.5838 19.403 73.5102 19.2007 73.3629 19.0464C73.2156 18.8921 73.0121 18.8126 72.7526 18.8079H71.788V20.4108ZM79.5677 20.6248C79.5677 21.1275 79.4788 21.5683 79.3011 21.9471C79.1234 22.3259 78.8685 22.6182 78.5365 22.824C78.2067 23.0298 77.8279 23.1327 77.4 23.1327C76.9768 23.1327 76.5991 23.0309 76.2671 22.8275C75.9351 22.6241 75.6778 22.3341 75.4954 21.9576C75.3131 21.5788 75.2207 21.1439 75.2183 20.6528V20.4003C75.2183 19.8976 75.3084 19.4556 75.4884 19.0745C75.6708 18.691 75.9269 18.3975 76.2566 18.1941C76.5886 17.9883 76.9674 17.8854 77.393 17.8854C77.8186 17.8854 78.1962 17.9883 78.5259 18.1941C78.858 18.3975 79.114 18.691 79.2941 19.0745C79.4765 19.4556 79.5677 19.8964 79.5677 20.3968V20.6248ZM78.5014 20.3933C78.5014 19.8578 78.4055 19.4509 78.2138 19.1727C78.022 18.8944 77.7484 18.7553 77.393 18.7553C77.0399 18.7553 76.7675 18.8932 76.5758 19.1692C76.384 19.4427 76.287 19.8449 76.2846 20.3757V20.6248C76.2846 21.1462 76.3805 21.5508 76.5722 21.8384C76.764 22.126 77.0399 22.2698 77.4 22.2698C77.7531 22.2698 78.0244 22.1318 78.2138 21.8559C78.4032 21.5777 78.499 21.1731 78.5014 20.6423V20.3933ZM80.3323 23.0625V17.9556H82.1211C82.7408 17.9556 83.2108 18.0748 83.5312 18.3133C83.8515 18.5495 84.0117 18.8967 84.0117 19.3551C84.0117 19.6053 83.9474 19.8262 83.8188 20.018C83.6902 20.2074 83.5113 20.3465 83.2821 20.4354C83.544 20.5008 83.7498 20.633 83.8994 20.8317C84.0514 21.0305 84.1274 21.2737 84.1274 21.5613C84.1274 22.0523 83.9708 22.4241 83.6574 22.6767C83.3441 22.9292 82.8975 23.0578 82.3176 23.0625H80.3323ZM81.3846 20.8387V22.2172H82.286C82.5339 22.2172 82.7268 22.1587 82.8647 22.0418C83.005 21.9226 83.0752 21.7589 83.0752 21.5508C83.0752 21.0831 82.8332 20.8458 82.3491 20.8387H81.3846ZM81.3846 20.0951H82.1632C82.694 20.0858 82.9594 19.8742 82.9594 19.4603C82.9594 19.2288 82.8916 19.0628 82.756 18.9622C82.6227 18.8593 82.4111 18.8079 82.1211 18.8079H81.3846V20.0951ZM87.8033 22.0102H85.9584L85.6076 23.0625H84.4887L86.3898 17.9556H87.3649L89.2765 23.0625H88.1576L87.8033 22.0102ZM86.2425 21.1579H87.5192L86.8773 19.2463L86.2425 21.1579ZM93.9099 23.0625H92.8576V20.8738H90.8057V23.0625H89.7535V17.9556H90.8057V20.025H92.8576V17.9556H93.9099V23.0625Z" fill="#CDCDCD"/>
<ellipse cx="29.9049" cy="46.2184" rx="6.94792" ry="6.94792" fill="#DCDCDC"/>
<path d="M33.9436 51.2499H35.2168V53.0478H33.9436V55.4785H31.7135V53.0478H27.1068L27.0064 51.6434L31.6904 44.2433H33.9436V51.2499ZM29.2288 51.2499H31.7135V47.2836L31.5669 47.5382L29.2288 51.2499Z" fill="white"/>
<circle cx="87.3034" cy="46.2184" r="6.94792" fill="#DCDCDC"/>
<path d="M85.6817 49.9535L86.3299 44.2433H92.6266V46.1029H88.1587L87.8809 48.5182C88.4108 48.2353 88.9741 48.0938 89.5708 48.0938C90.6408 48.0938 91.4794 48.4256 92.0864 49.0892C92.6934 49.7529 92.997 50.6814 92.997 51.8749C92.997 52.6003 92.8426 53.251 92.534 53.8272C92.2304 54.3982 91.7932 54.8432 91.2222 55.1621C90.6511 55.4759 89.9772 55.6328 89.2004 55.6328C88.5214 55.6328 87.8912 55.4965 87.3099 55.2239C86.7286 54.9461 86.2681 54.5577 85.9286 54.0587C85.5942 53.5597 85.4168 52.9912 85.3962 52.3533H87.6031C87.6494 52.8215 87.8114 53.1867 88.0892 53.4491C88.3722 53.7063 88.74 53.8349 89.1927 53.8349C89.6969 53.8349 90.0852 53.6548 90.3579 53.2947C90.6306 52.9295 90.7669 52.4151 90.7669 51.7514C90.7669 51.1135 90.61 50.6248 90.2962 50.2853C89.9824 49.9458 89.5374 49.776 88.9612 49.776C88.4313 49.776 88.0018 49.9149 87.6725 50.1927L87.4565 50.3933L85.6817 49.9535Z" fill="white"/>
</svg>
