<svg width="115" height="119" viewBox="0 0 115 119" fill="none" xmlns="http://www.w3.org/2000/svg">
<path fill-rule="evenodd" clip-rule="evenodd" d="M25.336 108.732C25.38 108.869 25.4032 108.941 25.3833 108.961C25.3611 108.983 25.2849 108.94 25.1234 108.849C24.8349 108.687 24.2743 108.372 23.2631 108.002C21.7302 107.441 18.3279 107.38 14.9381 107.508L11.965 90.4632H22.7397C24.0132 97.7916 24.965 104.366 24.965 106.133C24.965 107.583 25.2212 108.377 25.336 108.732Z" fill="#E5613E"/>
<path fill-rule="evenodd" clip-rule="evenodd" d="M41.4053 65.3061L40.7206 64.3004C43.5247 66.4854 48.1812 68.7645 56.4514 68.7645C64.4258 68.7645 69.1833 66.1747 72.2312 63.7529C72.3211 64.2786 72.9768 65.2269 74.8803 64.8151C77.2598 64.3004 77.9264 64.3241 79.1116 64.8151C80.0598 65.2079 81.331 66.1146 81.8481 66.5188C82.3046 68.7899 84.2778 73.8361 88.519 75.8521C88.8571 80.5458 88.8298 82.1102 88.7739 82.3057C88.1465 84.5472 87.5696 87.1777 87.0868 90.2517C85.0012 103.532 84.6726 107.132 84.7799 107.386C81.7132 107.907 72.1652 108.936 58.1534 108.936C44.0838 108.936 33.5694 107.898 30.0709 107.379C30.2162 103.631 30.0378 96.1939 28.6094 90.4632H34.5587L36.3115 89.3358V87.2266H39.009C39.2372 87.2151 39.8991 87.0619 40.7206 86.542C41.5422 86.022 41.5194 84.956 41.4053 84.488V65.3061ZM84.8175 107.379L84.7799 107.386C84.7894 107.408 84.8022 107.404 84.8175 107.379ZM26.7236 90.4632H27.4101C27.6093 92.7013 27.744 94.5972 27.8016 95.5456C27.5076 94.1023 27.1407 92.3637 26.7236 90.4632Z" fill="#E5613E"/>
<path fill-rule="evenodd" clip-rule="evenodd" d="M12.9915 87.2266H24.2883C25.5618 94.555 26.0991 104.366 26.0991 106.133C26.0991 107.583 26.3553 108.377 26.4701 108.733C26.5141 108.869 26.5373 108.941 26.5174 108.961C26.4952 108.983 26.4189 108.94 26.2575 108.849C25.969 108.687 25.4084 108.372 24.3972 108.002C22.6852 107.375 15.7184 106.552 11.9645 106.739L12.9915 87.2266Z" fill="#EEEEEE"/>
<path fill-rule="evenodd" clip-rule="evenodd" d="M40.3778 64.2906L41.0624 63.6459C43.758 66.0035 48.4828 68.7645 57.5855 68.7645C64.924 68.7645 69.5383 66.5712 72.6028 64.334C72.9204 64.5191 73.9852 64.8744 75.7037 64.8151C75.784 64.8124 75.8628 64.8096 75.9401 64.8069C77.9325 64.7369 78.9757 64.7002 80.2592 65.5559C81.3259 66.267 81.6666 66.7904 81.7036 66.9633C82.2592 69.062 84.4073 73.7558 88.5555 75.741C88.7402 77.247 88.7333 82.1454 88.6462 87.7799C88.4977 88.5701 88.3556 89.3936 88.2209 90.2517C86.1353 103.532 85.8067 107.132 85.914 107.386C82.8473 107.907 73.2993 108.936 59.2875 108.936C45.2179 108.936 34.7035 107.898 31.205 107.379C31.3493 103.657 30.7084 92.9863 29.3068 87.272C31.4927 87.3423 33.876 87.3579 34.4346 87.1535C35.9721 87.193 38.0575 86.0868 40.0248 87.272C40.6947 87.6756 40.0855 85.1668 40.2196 84.7068L41.4048 66.0022C41.4048 65.038 40.7201 64.4594 40.3778 64.2906ZM85.9516 107.379L85.914 107.386C85.9234 107.408 85.9363 107.404 85.9516 107.379ZM106.055 99.1033C105.232 93.3453 103.974 87.8349 102.617 83.0437C102.083 83.3066 101.501 83.8039 100.933 84.3472C102.116 89.5532 104.714 96.0869 106.055 99.1033ZM36.2698 66.7868C36.2698 66.8896 36.2638 67.1227 36.2531 67.4655L36.2698 66.7868ZM28.9357 95.5456C28.8158 94.9571 28.6052 93.7609 28.3699 92.425C28.0325 90.5092 27.6446 88.3061 27.4011 87.1962C27.6189 87.2065 27.8479 87.2167 28.0847 87.2266C28.1812 88.3143 28.3755 90.1233 28.5546 91.7906C28.7388 93.5053 28.9068 95.07 28.9357 95.5456Z" fill="#EEEEEE"/>
<mask id="mask0_554_3163" style="mask-type:alpha" maskUnits="userSpaceOnUse" x="4" y="0" width="110" height="111">
<path d="M4.57031 0H113.496V110.565H4.57031V0Z" fill="#C4C4C4"/>
</mask>
<g mask="url(#mask0_554_3163)">
<path d="M47.3772 48.2334C47.4383 51.3176 47.2295 55.2283 46.1415 56.9223C45.9525 57.2166 43.9347 58.2551 41.8828 59.3426" stroke="black" stroke-width="0.491032"/>
<path d="M72.7629 30.8591L73.0083 30.8677L72.7629 30.859L72.763 30.8588L72.763 30.8579L72.7631 30.8543L72.7636 30.8401L72.7655 30.7841L72.7728 30.5684C72.7791 30.381 72.7879 30.1096 72.7982 29.7737C72.8189 29.102 72.8457 28.1724 72.87 27.1413C72.9186 25.0775 72.9572 22.6127 72.9179 20.9928L72.9179 20.9928C72.8757 19.2354 72.8111 17.0634 71.6114 14.947C70.4162 12.8384 68.0708 10.7484 63.3881 9.22264L63.388 9.22263C63.1451 9.14343 62.447 8.99817 61.5131 8.87331C60.5854 8.74926 59.4431 8.64779 58.3181 8.65086L58.3181 8.65086C56.2151 8.65639 54.1696 9.07017 53.7007 9.22263C51.2392 10.0248 49.4228 11.2297 47.5968 12.9565C46.3569 14.13 45.4971 15.2785 44.9351 16.5573C44.373 17.8364 44.1025 19.2602 44.061 20.9928L44.061 20.9928C44.022 22.6117 44.0741 25.0757 44.1363 27.1395C44.1674 28.1704 44.2009 29.0999 44.2268 29.7716C44.2397 30.1075 44.2506 30.3789 44.2584 30.5663L44.2675 30.7819L44.2699 30.8377L44.2705 30.8517L44.2706 30.8542L44.2705 30.8519C44.2703 30.8495 44.2497 30.7677 44.2043 30.6995L43.8619 31.0508C43.1441 30.4091 42.6561 30.1667 42.341 30.1333C42.1935 30.1177 42.0888 30.1483 42.0078 30.2019C41.9227 30.2582 41.8443 30.353 41.7767 30.4959C41.6387 30.7878 41.5743 31.2194 41.5583 31.7071C41.5425 32.1881 41.5742 32.6942 41.6097 33.1188L41.6097 33.1189C41.8034 35.4504 41.9876 37.1452 42.6336 38.5431C42.6823 38.6484 42.7301 38.7559 42.7784 38.8642C42.96 39.272 43.1466 39.6911 43.3998 40.0458C43.7113 40.4824 44.0967 40.7811 44.6549 40.8039L44.6549 40.8039C44.8324 40.8112 44.9847 40.7424 45.1002 40.6616C45.1572 40.6218 45.2019 40.5813 45.2318 40.5512C45.2467 40.5363 45.2575 40.5244 45.2642 40.5168L45.2706 40.5094L45.2707 40.5092L45.2708 40.5091C45.2709 40.5089 45.2709 40.509 45.271 40.5089L72.7629 30.8591ZM72.7629 30.8591L72.7426 31.4343L73.1719 31.0508C73.8905 30.4088 74.3851 30.1288 74.7134 30.0575C74.8703 30.0233 74.9757 30.0399 75.0497 30.0739C75.1245 30.1082 75.1935 30.1724 75.2554 30.2801C75.3856 30.5064 75.4529 30.8692 75.4785 31.3122C75.5013 31.7068 75.4898 32.1305 75.4792 32.5222C75.4781 32.5625 75.477 32.6025 75.476 32.6421L75.476 32.6427C75.4209 34.9574 74.997 37.1413 74.3488 38.5443M72.7629 30.8591L71.8677 40.5097M44.0255 30.8677C44.0254 30.8677 44.0201 30.7467 44.0112 30.5295C44.0695 30.5791 44.1288 30.6308 44.1891 30.6847L44.0255 30.8677ZM44.0255 30.8677C43.9377 30.7893 43.8527 30.7161 43.7704 30.648L43.7769 30.8029L43.7793 30.8594L43.78 30.8741L43.7802 30.8784L43.7803 30.8807L43.7805 30.8834C43.7807 30.8859 43.8013 30.9678 43.8467 31.036L44.0255 30.8677ZM71.8677 40.5097L71.8678 40.5098L71.8742 40.5173C71.8809 40.5249 71.8918 40.5369 71.9067 40.5518C71.9366 40.5818 71.9814 40.6223 72.0385 40.6622C72.1541 40.743 72.3064 40.8119 72.4835 40.8046L72.4836 40.8046C73.0363 40.7819 73.3808 40.4896 73.6531 40.0581C73.7916 39.8387 73.9075 39.5884 74.0187 39.3254C74.0547 39.2401 74.0909 39.1519 74.1273 39.0632C74.1999 38.8864 74.2734 38.7073 74.3488 38.5443M71.8677 40.5097L71.8676 40.5096L71.8676 40.5095L71.8674 40.5093L71.8671 40.5089L71.8668 40.5086L71.471 40.0057L71.4298 40.6459L71.4298 40.6461L71.4298 40.6465L71.4297 40.6483L71.4292 40.6555L71.4274 40.6835L71.4204 40.791C71.4143 40.8841 71.4055 41.0181 71.3946 41.1817C71.3727 41.5091 71.3424 41.9552 71.3085 42.43C71.2406 43.383 71.1591 44.4417 71.1036 44.8952M71.8677 40.5097L45.2713 40.5085L45.2715 40.5081L45.6675 40.0042L45.7086 40.6453L45.4636 40.661L45.7086 40.6453L45.7087 40.6454L45.7087 40.6459L45.7088 40.6477L45.7093 40.6548L45.7111 40.6829L45.7181 40.7904C45.7242 40.8834 45.733 41.0174 45.7439 41.1811C45.7658 41.5085 45.7961 41.9546 45.83 42.4294C45.898 43.3824 45.9796 44.441 46.0354 44.8945L46.0354 44.8946C46.1132 45.53 46.5117 46.491 47.1425 47.6068C47.7682 48.7138 48.6066 49.9457 49.5356 51.1152C50.4649 52.285 51.4804 53.3867 52.4587 54.2361C53.4445 55.0919 54.3649 55.6667 55.105 55.8242C55.3252 55.8709 55.8015 55.9099 56.4276 55.9369C57.046 55.9636 57.7907 55.978 58.5344 55.9802C59.2781 55.9824 60.0186 55.9724 60.6288 55.9503C61.2471 55.9278 61.7101 55.8935 61.9133 55.8518M74.3488 38.5443L74.5716 38.6473L74.3487 38.5444C74.3488 38.5443 74.3488 38.5443 74.3488 38.5443ZM71.1036 44.8952C71.1036 44.8952 71.1036 44.8952 71.1036 44.8952L71.3473 44.9251L71.1036 44.8952ZM71.1036 44.8952C71.0234 45.5492 70.614 46.523 69.9685 47.6469C69.3279 48.7622 68.4709 49.9979 67.5248 51.1679C66.5784 52.3382 65.5474 53.4373 64.5601 54.282C63.565 55.1335 62.643 55.7015 61.9133 55.8518M61.9133 55.8518L61.9628 56.0923L61.9134 55.8518C61.9134 55.8518 61.9133 55.8518 61.9133 55.8518ZM41.365 33.1392C41.558 35.4622 41.7434 37.202 42.4107 38.6461L41.365 33.1392Z" stroke="black" stroke-width="0.491032"/>
<path fill-rule="evenodd" clip-rule="evenodd" d="M72.4658 38.0917C72.4874 38.0296 72.8348 37.1967 72.8617 37.1314C73.1156 36.5178 72.5746 37.3072 72.5254 37.3799C72.2617 37.7724 72.0698 37.9936 71.8856 38.3283C71.7289 38.6141 71.8055 39.0582 72.1698 39.1022C72.4722 39.1383 72.8606 38.8252 72.9887 38.3737C73.0056 38.3128 72.1968 38.8836 72.4658 38.0917Z" fill="black"/>
<path d="M77.0838 27.7544C75.1736 27.6997 74.1998 29.6082 73.9517 30.5693L72.7706 61.5659L73.3782 63.4583L84.2814 62.7409L90.2992 52.876C91.1488 49.3095 91.1162 33.5753 91.207 31.4307C91.2978 29.2862 89.5635 28.4792 88.685 28.3438C85.6139 28.1701 78.9941 27.8091 77.0838 27.7544Z" fill="#E5613E"/>
<path d="M76.5409 27.3716C74.6306 27.3169 73.6569 29.2254 73.4088 30.1865L72.2276 61.1831L72.8353 63.0755L83.7385 62.3581L89.7562 52.4932C90.6059 48.9267 90.5733 33.1925 90.6641 31.0479C90.7548 28.9034 89.0205 28.0964 88.142 27.961C85.0709 27.7873 78.4511 27.4263 76.5409 27.3716Z" fill="#EBEBEB"/>
<circle r="1.8148" transform="matrix(0.988323 0.152374 -0.152362 0.988325 77.8726 32.1112)" fill="#E5613E"/>
<circle r="1.8148" transform="matrix(0.988325 0.152364 -0.152371 0.988323 77.3608 32.032)" fill="white"/>
<path d="M88.2988 36.4001C88.6414 35.7334 89.8081 36.333 90.3486 36.7161C91.5375 38.3384 92.8995 43.505 93.4319 45.8855L89.647 47.1008C89.6247 46.5977 89.4269 45.0282 88.8149 42.7754C88.0499 39.9593 87.8705 37.2335 88.2988 36.4001Z" fill="#F2F2F2"/>
<path d="M82.5055 48.6979C84.3435 49.2211 88.1511 52.2665 89.8252 53.7237L92.9109 55.0988C91.7237 57.614 89.196 62.8604 88.583 63.7253C87.8168 64.8063 84.4602 65.1882 81.8466 66.584C80.8197 65.4664 78.6108 64.886 77.6347 64.7355C77.0038 64.9381 75.3908 65.289 73.9852 65.0723C72.5796 64.8556 72.4088 63.6301 72.4991 63.0444C73.6631 62.6243 76.3516 61.7796 77.7933 61.762C79.235 61.7445 81.908 62.2965 83.0643 62.5747L83.2449 61.4033C82.218 60.2857 79.1232 58.9691 77.7042 58.4506C77.3138 58.3904 75.9967 58.2473 73.8522 58.1565C71.7077 58.0657 71.0365 57.6225 70.969 57.4122L71.3753 54.7767C72.8021 54.5969 76.3584 54.3457 79.1696 54.7791C82.6836 55.3209 85.2508 58.115 85.1837 56.6057C85.1166 55.0964 82.1663 52.8428 80.7924 52.0314C79.4185 51.22 76.3999 51.3542 74.9357 51.1285C73.4715 50.9027 72.4808 49.5508 71.9854 48.8748C71.49 48.1989 71.5352 47.9061 72.166 47.7035C72.7968 47.501 80.208 48.0439 82.5055 48.6979Z" fill="#F2F2F2"/>
<path d="M55.9925 43.4797C55.9925 43.4797 55.9791 43.3554 56.1235 43.271C56.3645 43.1325 56.8792 43.0579 57.4102 43.4797C57.4108 43.4797 57.1926 43.8014 55.9925 43.4797Z" fill="black"/>
<path fill-rule="evenodd" clip-rule="evenodd" d="M60.388 43.619L60.3566 43.1854C60.1677 43.2237 59.9602 43.3129 59.75 43.4797C59.75 43.4797 59.8651 43.6494 60.388 43.619Z" fill="black"/>
<path d="M61.1677 43.4797C61.1677 43.4797 61.1811 43.3554 61.0367 43.271C60.891 43.1872 60.6455 43.1269 60.3566 43.1854L60.388 43.619C60.5849 43.6075 60.8396 43.5677 61.1677 43.4797Z" fill="black"/>
<path fill-rule="evenodd" clip-rule="evenodd" d="M44.1006 36.0715C44.1754 36.0659 43.5227 33.5522 43.1367 32.554C42.7192 31.4733 42.2946 31.2348 42.0366 31.2497C41.5454 31.2801 41.3711 33.6882 41.3711 33.6882C41.3711 33.6882 41.7319 31.0981 42.8262 33.1783C43.1332 33.7683 44.0134 36.0777 44.1006 36.0715Z" fill="black"/>
<path fill-rule="evenodd" clip-rule="evenodd" d="M42.3779 33.6251C42.4078 33.4543 42.578 32.4643 42.7101 32.4581C42.8657 32.4506 42.871 33.1655 42.8353 33.2804C42.721 33.6359 42.6259 33.9979 42.5505 34.3649C42.475 34.7568 42.4721 35.1369 42.4791 35.55C42.4968 35.9288 42.5449 36.3053 42.623 36.6754C42.3633 36.4077 42.299 35.3363 42.292 34.9363C42.2791 34.2407 42.3089 34.0183 42.3779 33.6251Z" fill="black"/>
<path fill-rule="evenodd" clip-rule="evenodd" d="M44.3395 38.0917C44.3179 38.0296 43.9711 37.1967 43.9436 37.1315C43.6891 36.5178 44.2307 37.3072 44.2799 37.3799C44.543 37.7725 44.7349 37.9936 44.9197 38.3284C45.077 38.6141 45.0004 39.0582 44.6355 39.1023C44.3337 39.1384 43.9447 38.8253 43.8167 38.3737C43.8003 38.3129 44.6115 38.8837 44.3395 38.0917Z" fill="black"/>
<path d="M61.1412 51.4697C61.4623 51.7585 60.0797 51.43 58.7708 51.43C57.4619 51.43 56.1975 51.6542 56.4005 51.4697C56.6537 51.2393 57.4614 50.8301 58.7708 50.8301C60.0803 50.8301 60.8862 51.2412 61.1412 51.4697Z" fill="black"/>
<path fill-rule="evenodd" clip-rule="evenodd" d="M60.8125 48.5072L60.5633 47.5957C59.6831 47.5957 58.8339 47.8932 58.7017 47.9684C58.5701 47.8901 57.6437 47.5957 56.7629 47.5957C56.2057 47.5957 55.546 47.8184 54.9786 48.0099C54.5843 48.143 54.2346 48.2611 53.9949 48.2789C53.41 48.3224 53.2305 48.1025 53.2305 48.1025C53.2305 48.1025 53.248 48.3913 53.3656 48.4752C53.695 48.718 54.1825 48.6491 54.7736 48.5656C55.1637 48.5105 55.5989 48.449 56.0635 48.4665C56.6131 48.4873 57.0551 48.5715 57.4866 48.6538C57.8673 48.7263 58.2398 48.7973 58.6707 48.8218C58.6914 48.8233 58.7121 48.8233 58.7327 48.8218C59.1646 48.7976 59.5377 48.7264 59.9189 48.6536C60.2029 48.5995 60.4915 48.5444 60.8125 48.5072Z" fill="#5B5B5B"/>
<path d="M63.4085 48.2789C62.8237 48.2348 61.5072 47.5957 60.5633 47.5957L60.8125 48.5072C60.9784 48.488 61.1529 48.4736 61.3399 48.4665C62.5096 48.4224 63.491 48.8789 64.0384 48.4752C64.1554 48.3888 64.1729 48.1025 64.1729 48.1025C64.1729 48.1025 63.9934 48.3211 63.4085 48.2789Z" fill="#5B5B5B"/>
<path fill-rule="evenodd" clip-rule="evenodd" d="M60.8563 48.5022V48.2195C60.5165 48.2567 60.2137 48.3144 59.9159 48.3712C59.5352 48.4438 59.1626 48.5148 58.7313 48.5393C58.7106 48.5411 58.6899 48.5411 58.6693 48.5393C58.2383 48.5148 57.8658 48.4438 57.4851 48.3712C57.0537 48.289 56.6116 48.2047 56.062 48.1839C55.5576 48.1649 55.088 48.2715 54.6732 48.3656C54.3698 48.4345 54.0958 48.4967 53.8589 48.4983C53.7586 48.5037 53.658 48.5037 53.5577 48.4983C53.496 48.4915 53.443 48.481 53.4068 48.4739C53.3626 48.4651 53.3433 48.4613 53.3635 48.4753C53.7002 48.7052 54.1846 48.6397 54.7711 48.5604C55.1606 48.5077 55.5951 48.449 56.0614 48.4666C56.611 48.4874 57.0531 48.5716 57.4845 48.6539C57.8652 48.7264 58.2377 48.7974 58.6687 48.8219C58.6893 48.8234 58.71 48.8234 58.7307 48.8219C59.1626 48.7977 59.5356 48.7265 59.9169 48.6538C60.2144 48.597 60.5169 48.5393 60.8563 48.5022Z" fill="black"/>
<path d="M63.5504 48.4989C62.9884 48.4951 62.2164 48.1504 61.3385 48.1839C61.1684 48.1904 61.0086 48.2029 60.8563 48.2195V48.5022C61.0085 48.4855 61.1681 48.473 61.3379 48.4666C62.5076 48.4225 63.4838 48.8703 64.0365 48.4753C64.0657 48.4541 63.9698 48.4908 63.8458 48.5026C63.7473 48.507 63.6488 48.5057 63.5504 48.4989Z" fill="black"/>
<path fill-rule="evenodd" clip-rule="evenodd" d="M53.2778 34.2765C53.2778 34.9069 52.7661 35.4174 52.135 35.4174C51.5039 35.4174 50.9922 34.9069 50.9922 34.2765C50.9922 33.646 51.5039 33.3398 52.135 33.3398C52.7661 33.3398 53.2778 33.646 53.2778 34.2765Z" fill="black"/>
<path fill-rule="evenodd" clip-rule="evenodd" d="M54.4413 34.2512C53.2868 33.1724 52.2259 33.0954 51.0252 33.5109C50.2209 33.7879 49.5378 34.364 49.1016 35.1332C49.1729 35.1611 52.3463 32.5836 55.0466 35.0711C55.0829 35.0301 54.677 34.4723 54.4413 34.2512Z" fill="black"/>
<path fill-rule="evenodd" clip-rule="evenodd" d="M53.2593 32.9376C52.4586 32.5152 50.9199 32.5246 49.7297 33.5288C49.4858 33.7344 49.0665 34.2542 49.1039 34.2952C52.1832 31.4004 54.5776 34.171 54.6513 34.1431C54.6168 34.0965 54.3898 33.5357 53.2593 32.9376Z" fill="black"/>
<path fill-rule="evenodd" clip-rule="evenodd" d="M49.9698 30.2783C49.1229 30.3118 47.1596 32.9989 48.0305 32.6573C48.7475 32.3777 49.8762 31.7206 50.2137 31.7566C53.266 32.0579 56.2721 32.7374 56.275 32.7057C56.3277 32.1411 55.9364 31.5709 55.6592 31.133C55.4089 30.733 51.4571 30.218 49.9698 30.2783Z" fill="black"/>
<path fill-rule="evenodd" clip-rule="evenodd" d="M65.7777 34.1271C65.7777 34.7575 65.266 35.268 64.6349 35.268C64.0039 35.268 63.4922 34.7575 63.4922 34.1271C63.4922 33.4966 64.0039 33.1904 64.6349 33.1904C65.266 33.1904 65.7777 33.4973 65.7777 34.1271Z" fill="black"/>
<path fill-rule="evenodd" clip-rule="evenodd" d="M65.7314 33.361C64.5307 32.9461 63.4698 33.0231 62.3153 34.102C62.0814 34.3225 61.672 34.8809 61.7094 34.9244C64.4103 32.4337 67.5837 35.0114 67.655 34.9865C67.2194 34.2161 66.5362 33.6388 65.7314 33.361Z" fill="black"/>
<path fill-rule="evenodd" clip-rule="evenodd" d="M63.4974 32.7891C64.298 32.3668 65.8368 32.3761 67.027 33.3804C67.2708 33.586 67.6896 34.1058 67.6528 34.1468C64.5735 31.252 62.1792 34.0226 62.1055 33.9946C62.1394 33.9481 62.3675 33.3872 63.4974 32.7891Z" fill="black"/>
<path fill-rule="evenodd" clip-rule="evenodd" d="M66.8508 30.129C65.3717 30.1663 61.3637 30.5843 61.1123 30.9812C60.8356 31.4197 60.4444 31.9893 60.497 32.5539C60.5005 32.5855 63.5546 31.906 66.6069 31.6048C66.9444 31.5713 67.8643 32.1694 68.6936 32.5079C69.6288 32.8893 67.6982 30.1073 66.8508 30.129Z" fill="black"/>
<path fill-rule="evenodd" clip-rule="evenodd" d="M70.9946 10.3837C70.9946 10.3837 74.4621 13.5278 74.4037 18.1478C74.3876 19.401 74.3878 20.4969 74.3879 21.4821C74.3883 24.4925 74.3886 26.4692 73.9265 28.7404C73.7485 28.7404 72.2615 28.8272 71.5402 28.8705C71.5618 26.1918 71.5678 23.9294 71.5198 23.8062C70.9443 22.3348 68.0475 19.6683 67.9522 19.6062C67.2381 19.1583 62.9184 18.9291 58.5823 18.931C54.2462 18.9329 49.9265 19.1583 49.2124 19.6062C49.1153 19.6664 46.2191 22.3348 45.6448 23.8062C45.599 23.9237 45.6549 25.8671 45.7244 28.2842C45.8385 32.2536 45.9894 37.5008 45.7869 38.0374C45.7776 38.0629 45.7454 38.0213 45.6951 37.92C45.6921 37.937 45.5683 37.435 45.3907 36.7147C45.0546 35.3511 44.5255 33.2049 44.2576 32.3169C43.2217 29.378 43.161 28.5457 42.9189 25.2263C42.8848 24.758 42.847 24.2403 42.8024 23.6602C42.3907 18.3049 43.1522 15.9943 43.516 14.8974C44.5816 11.6849 49.5452 6.96937 49.5452 6.96937L47.5058 11.5135C48.0576 10.578 48.4725 10.1763 48.8654 9.79597C49.3138 9.36192 49.7333 8.95577 50.2944 7.81596C51.0456 6.2874 52.3419 5.65295 53.6782 4.99891C54.7886 4.45541 55.9267 3.89837 56.8026 2.80348L54.7603 6.95943L57.2442 3.45939C57.2769 5.2886 57.2769 6.02339 57.2769 6.34451C57.2769 6.63272 57.6629 5.48301 58.6572 2.05316C58.7682 2.47438 58.8858 2.89082 59.0019 3.30198C59.2603 4.21679 59.5113 5.10547 59.6654 5.96252C59.6807 6.43971 59.6663 5.93152 59.643 5.10537C59.6162 4.16045 59.5777 2.79959 59.5584 2.02148L64.4384 7.15695L62.1779 3.56498C62.1779 3.56498 64.3846 5.2122 67.3527 7.0557C68.6805 7.88007 70.1506 11.6517 70.7016 13.0656C70.8319 13.3999 70.9109 13.6024 70.9244 13.603L70.9946 10.3837Z" fill="black"/>
<path d="M21.5784 91.6216C21.5784 91.6216 21.9062 92.2664 22.3856 93.2702H23.0576C22.2941 92.3394 21.5784 91.6216 21.5784 91.6216Z" fill="black"/>
<path d="M29.3458 93.2702H30.3969C30.3578 92.2577 30.3045 91.2089 30.2327 90.1521H29.3081C29.3333 91.2106 29.3479 92.2686 29.3458 93.2702Z" fill="black"/>
<path d="M26.5403 93.2702H28.0375C27.8785 92.3098 27.6927 91.262 27.4777 90.1521H26.0356C26.2122 91.1582 26.3811 92.1977 26.5403 93.2702Z" fill="black"/>
<path fill-rule="evenodd" clip-rule="evenodd" d="M12.6071 106.871V107.325C13.1972 107.327 13.886 107.334 14.5835 107.347L14.4995 106.812C13.8422 106.825 13.2041 106.845 12.6071 106.871Z" fill="black"/>
<path fill-rule="evenodd" clip-rule="evenodd" d="M94.0489 107.525L94.0511 107.525C94.0684 107.521 94.0855 107.518 94.1022 107.515C94.085 107.518 94.0668 107.522 94.0489 107.525Z" fill="black"/>
<path d="M86.635 141.156C86.6696 142.021 87.0878 152.647 86.5977 153.309C86.4664 153.487 81.2871 154.339 80.0798 154.505C78.9704 154.657 77.8574 154.766 76.7411 154.875L76.7402 154.875L76.4128 154.907L76.2299 154.925C72.3558 155.303 67.7217 155.442 63.8286 155.539C61.7545 155.591 53.4587 155.591 51.3852 155.539C47.4942 155.441 42.9661 155.303 39.0919 154.925L38.9683 154.913C38.867 154.903 38.7657 154.893 38.6644 154.883C37.5197 154.772 36.3792 154.662 35.2421 154.505C34.9669 154.467 34.5031 154.448 33.9448 154.425L33.9442 154.425C32.0519 154.348 29.0761 154.226 28.6918 153.182C28.3989 152.391 28.7572 142.564 28.8139 141.156C29.0524 135.222 29.3629 129.906 29.6507 124.977C30.1375 116.64 30.5596 109.412 30.4595 102.181C30.4587 102.126 30.4614 101.972 30.4657 101.732C30.4872 100.53 30.5473 97.1693 30.3969 93.2702H29.3458C29.3401 95.9877 29.2115 98.2901 28.8371 99.0629C28.8371 99.0629 28.6113 96.7355 28.0375 93.2702H26.5403C26.7585 94.7404 26.9584 96.2726 27.1349 97.8659C27.2943 99.3039 27.224 100.514 24.4669 95.2971C24.1134 94.6283 23.5746 93.9004 23.0576 93.2702H22.3856C23.4742 95.55 25.3439 99.6819 25.9281 102.32C26.3153 104.068 26.5692 104.516 26.6885 104.727C26.7791 104.886 26.7922 104.91 26.7274 105.26C26.5802 106.058 25.4085 104.747 23.8263 102.976C23.1541 102.224 22.4079 101.389 21.6346 100.598C21.5528 100.514 22.6079 102.186 23.214 103.146L23.2144 103.147L23.405 103.449C23.7506 103.998 24.0513 104.41 24.3512 104.822C24.6562 105.24 24.9603 105.657 25.3099 106.215C25.3599 106.295 25.4385 106.396 25.526 106.508C25.7771 106.83 26.1018 107.247 26.0356 107.526C25.8865 108.066 23.258 107.435 22.9094 107.333C21.3029 106.866 17.6768 106.751 14.4995 106.812L14.5835 107.347C16.0991 107.375 17.6559 107.429 18.3305 107.516C20.5203 107.798 25.5001 108.287 27.7169 108.287C27.828 108.287 27.7927 108.57 27.7528 108.892C27.722 109.14 27.6884 109.41 27.7169 109.591C27.7272 109.656 27.9538 109.662 28.187 109.668C28.4429 109.675 28.7069 109.682 28.7015 109.768C28.6322 110.876 28.6289 113.296 28.6255 115.779C28.6228 117.751 28.6201 119.763 28.5842 121.19C28.5302 123.322 28.4324 125.452 28.3038 127.582C28.2032 129.253 27.9512 132.122 27.6635 135.397C26.9196 143.864 25.9377 155.041 26.7225 155.212C29.6359 155.847 41.3611 156.476 56.773 156.481H58.437C73.8489 156.479 85.7909 155.849 88.7042 155.212C89.4622 155.047 88.4671 144.616 87.6714 136.275C87.3246 132.64 87.0157 129.401 86.9063 127.582C86.7782 125.453 86.5863 113.218 86.5863 111.085C86.5863 110.992 86.7585 110.99 87.0722 110.985C87.3248 110.982 87.6691 110.977 88.0892 110.923C88.1392 110.916 88.0982 110.701 88.056 110.479C88.0119 110.247 87.9664 110.008 88.0217 109.991C88.3284 109.9 88.6766 109.806 89.0581 109.711C88.236 108.673 86.4732 105.879 85.9991 103.332C85.525 100.785 84.9604 96.7906 84.7373 95.1116C84.7296 98.0475 84.8457 100.47 84.8983 101.569L84.8984 101.57C84.9143 101.903 84.9244 102.114 84.9235 102.181C84.825 109.291 85.2567 116.399 85.7524 124.562C86.0588 129.607 86.3897 135.055 86.635 141.156Z" fill="black"/>
<path fill-rule="evenodd" clip-rule="evenodd" d="M89.0581 109.711C87.3136 106.961 87.3783 101.845 87.6287 99.6301C87.925 96.3412 88.4147 89.1782 88.6224 86.0078C86.9563 93.0749 86.3756 99.0629 86.3756 99.0629C85.2607 96.762 86.3253 80.8963 86.3253 80.8963C85.0527 84.8879 84.7492 90.6044 84.7373 95.1116C84.9604 96.7906 85.525 100.785 85.9991 103.332C86.4732 105.879 88.236 108.673 89.0581 109.711Z" fill="black"/>
<path fill-rule="evenodd" clip-rule="evenodd" d="M71.2195 66.6271L70.8881 66.3651C63.595 70.1369 53.248 69.1541 46.714 67.034C45.9344 66.7827 45.1766 66.4838 44.4461 66.1396C43.6129 65.6672 42.8279 65.134 42.1 64.5459L41.6677 64.9365C42.7755 65.7646 44.3607 66.6694 46.5655 67.3849C48.8738 68.1339 51.4825 68.6936 54.1081 69.0028C55.6728 69.1895 57.2504 69.2844 58.83 69.2868C60.0807 69.2883 61.3304 69.2229 62.5717 69.0908C65.5902 68.766 68.2821 68.0312 70.5943 66.9398C70.8061 66.8398 71.0145 66.7353 71.2195 66.6271ZM63.0831 65.4161L62.8882 64.9054C61.7166 65.0523 60.4636 65.1334 59.1385 65.1344L57.7791 65.1614L56.4197 65.1344C48.121 65.1282 42.9914 61.678 42.3323 59.1794C42.3219 59.0847 42.4358 58.1216 42.4517 58.0762L42.4413 58.0814L42.0254 58.3034V60.8323C43.6655 63.3122 48.9211 65.6459 56.3047 65.6495C56.3196 65.6495 56.6209 65.6555 56.9811 65.6626L56.985 65.6627L57.7375 65.6775L58.49 65.6627L58.4914 65.6627L58.4944 65.6626C58.8543 65.6555 59.1554 65.6495 59.1703 65.6495C60.5525 65.6486 61.8601 65.566 63.0831 65.4161Z" fill="black"/>
<path d="M108.266 116.23C107.876 104.385 105.296 78.2112 98.098 68.2783" stroke="black" stroke-width="0.241106"/>
<mask id="mask1_554_3163" style="mask-type:alpha" maskUnits="userSpaceOnUse" x="8" y="42" width="37" height="49">
<rect x="8.07422" y="42.0742" width="36.4442" height="48.5923" rx="2.53085" fill="#C4C4C4"/>
</mask>
<g mask="url(#mask1_554_3163)">
<rect x="6.55469" y="40.8086" width="37.9627" height="25.5616" fill="#F8F8F8"/>
<rect x="6.55469" y="66.3701" width="37.9627" height="25.5616" fill="#EAEAEA"/>
<rect x="12.6289" y="69.4072" width="9.36414" height="12.4012" fill="white"/>
<mask id="mask2_554_3163" style="mask-type:alpha" maskUnits="userSpaceOnUse" x="12" y="69" width="10" height="13">
<rect x="12.6289" y="69.4072" width="9.36414" height="12.4012" fill="white"/>
</mask>
<g mask="url(#mask2_554_3163)">
<path d="M15.0084 78.3069C15.3338 78.1319 15.7823 77.925 15.8264 77.8474C15.9461 77.6369 15.9898 77.2011 15.9972 76.8303M19.8398 78.3069C19.516 78.1286 19.0327 77.8986 18.9991 77.8474C18.8587 77.6339 18.8317 77.1408 18.8396 76.752" stroke="black" stroke-width="0.0847522"/>
<path d="M15.5771 74.5609L15.5347 74.5625L15.5771 74.5609L15.5771 74.5609L15.5771 74.5608L15.577 74.5603L15.577 74.5585L15.5767 74.5515L15.5758 74.5243L15.5725 74.4241C15.5698 74.3395 15.5664 74.2223 15.5633 74.0923C15.557 73.8321 15.552 73.5217 15.5571 73.3178V73.3177C15.5625 73.0961 15.5709 72.8252 15.724 72.5612C15.8764 72.2985 16.1764 72.0363 16.7791 71.8445L16.7791 71.8445C16.8095 71.8348 16.8988 71.8165 17.0192 71.8008C17.1386 71.7852 17.2856 71.7725 17.4302 71.7729L17.4302 71.7729C17.7007 71.7735 17.9637 71.8256 18.023 71.8445C18.3389 71.9451 18.572 72.0961 18.8066 72.3129L15.5771 74.5609ZM15.5771 74.5609L15.5806 74.6588M15.5771 74.5609L15.5806 74.6588M15.5806 74.6588L15.5068 74.5944M15.5806 74.6588L15.5068 74.5944M15.5068 74.5944C15.4144 74.5137 15.3523 74.4799 15.3126 74.4715C15.2939 74.4675 15.2826 74.4697 15.2754 74.4729C15.2682 74.4761 15.2609 74.4824 15.2538 74.4944C15.2385 74.5204 15.2299 74.5636 15.2266 74.6192C15.2237 74.6684 15.2252 74.7213 15.2266 74.7707C15.2267 74.7758 15.2269 74.7808 15.227 74.7858L15.227 74.7859C15.2341 75.0768 15.2886 75.3503 15.3713 75.5252C15.3811 75.5459 15.3908 75.569 15.4002 75.5914C15.4049 75.6025 15.4095 75.6135 15.4141 75.624C15.4283 75.657 15.443 75.6878 15.4603 75.7147C15.4941 75.767 15.5357 75.8011 15.6028 75.8038L15.6028 75.8038C15.6229 75.8046 15.6404 75.797 15.6541 75.7877C15.6608 75.7831 15.6661 75.7784 15.6696 75.775L15.6733 75.7711L15.6739 75.7705L15.6739 75.7704L15.674 75.7704L15.674 75.7704L15.7419 75.686L15.7491 75.7945L15.7491 75.7945L15.7491 75.7945L15.7491 75.7948L15.7491 75.7957L15.7494 75.7992L15.7503 75.8127L15.7536 75.862C15.7564 75.9032 15.7603 75.9595 15.7647 76.0193C15.7735 76.1396 15.784 76.2727 15.7911 76.3295M15.5068 74.5944L15.6011 75.8462C15.627 75.8472 15.6492 75.8394 15.6665 75.8298L15.6657 75.8184L15.6648 75.8048L15.6646 75.8012L15.6645 75.8003L15.6645 75.8001L15.6645 75.8L15.6645 75.8L15.7068 75.7972M19.2592 73.3177L19.2592 73.3178C19.2642 73.5215 19.2575 73.8318 19.2494 74.092C19.2454 74.222 19.2411 74.3391 19.2378 74.4238L19.2337 74.5239L19.2325 74.5511L19.2322 74.5581L19.2321 74.5597C19.2322 74.5592 19.2359 74.5449 19.2439 74.533L19.3023 74.5944C19.3945 74.5138 19.4554 74.4851 19.4928 74.4812C19.5099 74.4795 19.521 74.483 19.5293 74.4883C19.5381 74.494 19.547 74.5041 19.5551 74.5208C19.5718 74.5553 19.58 74.6076 19.5821 74.6687C19.5841 74.7286 19.5801 74.7918 19.5755 74.8452L19.5755 74.8452L19.2592 73.3177ZM19.2592 73.3177C19.2538 73.1005 19.2191 72.9226 19.1474 72.7632M19.2592 73.3177L19.1474 72.7632M15.7068 75.7972L15.6738 75.7706L15.6738 75.7706L15.7068 75.7972ZM15.7068 75.7972L15.7397 75.8238L15.7397 75.8239L15.7397 75.8239L15.7396 75.8241L15.7393 75.8244L15.7386 75.8252L15.7364 75.8277C15.7346 75.8298 15.7321 75.8324 15.7289 75.8355C15.7243 75.8401 15.7181 75.8457 15.7104 75.8515C15.7184 75.9691 15.7377 76.2443 15.749 76.3347M15.749 76.3347L15.7911 76.3295M15.749 76.3347C15.7937 76.6907 16.5503 77.6602 16.9599 77.7427L15.7911 76.3295L15.749 76.3347ZM15.7911 76.3295C15.8011 76.4093 15.8528 76.5303 15.936 76.6718C16.0183 76.8118 16.1285 76.9671 16.2503 77.1143C16.3721 77.2614 16.5046 77.3995 16.6314 77.5054C16.7594 77.6125 16.8767 77.6827 16.9683 77.7011C16.9935 77.7062 17.0524 77.7105 17.1324 77.7133C17.211 77.7161 17.3064 77.7174 17.4023 77.7171C17.4982 77.7168 17.5941 77.715 17.6737 77.7117C17.7547 77.7082 17.8153 77.7034 17.8428 77.6977C17.9357 77.6783 18.0528 77.6073 18.1796 77.4997C18.3052 77.3932 18.4358 77.2548 18.5554 77.1077C18.6749 76.9606 18.7827 76.8058 18.8631 76.6669C18.9444 76.5263 18.9948 76.4069 19.0045 76.3294L19.0045 76.3294C19.0116 76.2726 19.0221 76.1395 19.0309 76.0192C19.0353 75.9594 19.0392 75.9032 19.042 75.8619L19.0454 75.8127L19.0463 75.7991L19.0465 75.7956L19.0466 75.7947L19.0466 75.7944L19.0466 75.7944L19.0466 75.7944L19.0889 75.7972L19.0466 75.7944L19.0537 75.6858L19.1217 75.7703C19.1216 75.7703 19.1216 75.7703 19.1217 75.7703L19.1217 75.7704L19.1218 75.7704L19.1223 75.7711L19.126 75.7749C19.1295 75.7783 19.1348 75.783 19.1415 75.7876C19.1552 75.797 19.1727 75.8046 19.1928 75.8038L19.1928 75.8038C19.2608 75.801 19.3079 75.7658 19.3467 75.7126C19.3786 75.6689 19.4021 75.6175 19.4255 75.5662C19.4318 75.5524 19.438 75.5386 19.4445 75.525L15.7911 76.3295ZM19.1474 72.7632C19.0757 72.6037 18.9658 72.4601 18.8066 72.3129L19.1474 72.7632Z" stroke="black" stroke-width="0.0847522"/>
<path d="M17.7304 76.1523C17.7304 76.1523 17.7322 76.1366 17.7135 76.126C17.6824 76.1086 17.616 76.0992 17.5475 76.1523C17.5474 76.1523 17.5756 76.1928 17.7304 76.1523Z" fill="black"/>
<path d="M17.0632 76.1523C17.0632 76.1523 17.0614 76.1366 17.0801 76.126C17.1112 76.1086 17.1775 76.0992 17.2461 76.1523C17.2462 76.1523 17.2179 76.1928 17.0632 76.1523Z" fill="black"/>
<path fill-rule="evenodd" clip-rule="evenodd" d="M19.265 75.2183C19.2554 75.2176 19.3396 74.9007 19.3894 74.7749C19.4432 74.6386 19.498 74.6086 19.5313 74.6104C19.5947 74.6143 19.6172 74.9179 19.6172 74.9179C19.6172 74.9179 19.5706 74.5913 19.4294 74.8536C19.3898 74.928 19.2763 75.2191 19.265 75.2183Z" fill="black"/>
<path fill-rule="evenodd" clip-rule="evenodd" d="M19.4885 74.9098C19.4847 74.8883 19.4627 74.7635 19.4457 74.7627C19.4256 74.7618 19.4249 74.8519 19.4295 74.8664C19.4443 74.9112 19.4565 74.9568 19.4663 75.0031C19.476 75.0525 19.4764 75.1004 19.4755 75.1525C19.4732 75.2003 19.467 75.2477 19.4569 75.2944C19.4904 75.2607 19.4987 75.1256 19.4996 75.0751C19.5013 74.9874 19.4974 74.9594 19.4885 74.9098Z" fill="black"/>
<path fill-rule="evenodd" clip-rule="evenodd" d="M19.2333 75.4726C19.2361 75.4648 19.2808 75.3597 19.2844 75.3515C19.3172 75.2741 19.2473 75.3737 19.241 75.3828C19.207 75.4323 19.1823 75.4602 19.1584 75.5024C19.1381 75.5385 19.148 75.5945 19.1951 75.6C19.234 75.6046 19.2842 75.5651 19.3007 75.5081C19.3029 75.5005 19.1982 75.5724 19.2333 75.4726Z" fill="black"/>
<path fill-rule="evenodd" clip-rule="evenodd" d="M15.5383 75.2183C15.548 75.2177 15.4637 74.9007 15.414 74.7749C15.3601 74.6386 15.3053 74.6086 15.2719 74.6104C15.2085 74.6142 15.1861 74.9179 15.1861 74.9179C15.1861 74.9179 15.2326 74.5913 15.3738 74.8536C15.4138 74.928 15.5271 75.2191 15.5383 75.2183Z" fill="black"/>
<path fill-rule="evenodd" clip-rule="evenodd" d="M15.3137 74.9098C15.3175 74.8883 15.3395 74.7634 15.3565 74.7627C15.3766 74.7618 15.3773 74.8519 15.3727 74.8664C15.3579 74.9111 15.3456 74.9567 15.3358 75.0029C15.326 75.0524 15.3257 75.1002 15.3266 75.1523C15.3288 75.2 15.3351 75.2475 15.3451 75.2942C15.3116 75.2604 15.3033 75.1253 15.3024 75.0749C15.3009 74.9874 15.3048 74.9594 15.3137 74.9098Z" fill="black"/>
<path fill-rule="evenodd" clip-rule="evenodd" d="M15.5676 75.4726C15.5648 75.4648 15.5199 75.3597 15.5165 75.3515C15.4837 75.2741 15.5535 75.3737 15.5599 75.3828C15.5939 75.4323 15.6186 75.4602 15.6424 75.5024C15.6626 75.5385 15.6527 75.5945 15.6057 75.6C15.5667 75.6046 15.5166 75.5651 15.5001 75.5081C15.4979 75.5005 15.6023 75.5724 15.5676 75.4726Z" fill="black"/>
<path d="M17.0652 77.1608C17.0237 77.1972 17.2021 77.1557 17.371 77.1557C17.5399 77.1557 17.7031 77.184 17.6769 77.1608C17.6442 77.1317 17.54 77.0801 17.371 77.0801C17.2021 77.0801 17.0981 77.1319 17.0652 77.1608Z" fill="black"/>
<path d="M16.7726 76.758C16.8481 76.7524 17.018 76.6719 17.1398 76.6719C17.2533 76.6719 17.3629 76.7094 17.38 76.7188C17.3969 76.709 17.5165 76.6719 17.6301 76.6719C17.752 76.6719 17.9118 76.7525 17.9873 76.758C18.0628 76.7635 18.0859 76.7358 18.0859 76.7358C18.0859 76.7358 18.0837 76.7722 18.0685 76.7827C17.9979 76.8335 17.8712 76.7761 17.7204 76.7816C17.5869 76.7866 17.5026 76.8198 17.384 76.8264C17.3813 76.8266 17.3786 76.8266 17.376 76.8264C17.2573 76.8199 17.173 76.7866 17.0395 76.7816C16.8886 76.7761 16.762 76.8336 16.6914 76.7827C16.6763 76.7718 16.674 76.7358 16.674 76.7358C16.674 76.7358 16.6972 76.7633 16.7726 76.758Z" fill="#5B5B5B"/>
<path d="M16.7548 76.7861C16.8273 76.7856 16.9269 76.7422 17.0402 76.7464C17.1737 76.7513 17.2579 76.7846 17.3766 76.7912C17.3793 76.7914 17.382 76.7914 17.3846 76.7912C17.5033 76.7846 17.5876 76.7513 17.7211 76.7464C17.8337 76.7422 17.933 76.7855 18.0054 76.786C18.0183 76.7867 18.0313 76.7867 18.0442 76.786C18.0619 76.7841 18.074 76.7799 18.0693 76.7831C17.997 76.8313 17.8719 76.7764 17.7212 76.782C17.5877 76.7869 17.5034 76.8202 17.3847 76.8268C17.3821 76.827 17.3794 76.827 17.3767 76.8268C17.258 76.8203 17.1738 76.7869 17.0403 76.782C16.8894 76.7764 16.7634 76.8329 16.6921 76.7831C16.6883 76.7804 16.7007 76.7851 16.7167 76.7865C16.7294 76.7871 16.7421 76.7869 16.7548 76.7861Z" fill="black"/>
<path fill-rule="evenodd" clip-rule="evenodd" d="M18.0801 74.9921C18.0801 75.0716 18.1461 75.136 18.2276 75.136C18.309 75.136 18.375 75.0716 18.375 74.9921C18.375 74.9126 18.309 74.874 18.2276 74.874C18.1461 74.874 18.0801 74.9126 18.0801 74.9921Z" fill="black"/>
<path fill-rule="evenodd" clip-rule="evenodd" d="M17.9321 74.989C18.0811 74.853 18.218 74.8433 18.3729 74.8957C18.4767 74.9306 18.5648 75.0032 18.6211 75.1002C18.6119 75.1037 18.2024 74.7787 17.854 75.0924C17.8493 75.0872 17.9017 75.0169 17.9321 74.989Z" fill="black"/>
<path fill-rule="evenodd" clip-rule="evenodd" d="M18.0846 74.8233C18.1879 74.77 18.3865 74.7712 18.54 74.8978C18.5715 74.9237 18.6256 74.9893 18.6208 74.9944C18.2235 74.6295 17.9145 74.9788 17.905 74.9753C17.9095 74.9694 17.9387 74.8987 18.0846 74.8233Z" fill="black"/>
<path fill-rule="evenodd" clip-rule="evenodd" d="M16.3926 74.9931C16.3926 75.0726 16.4586 75.1369 16.5401 75.1369C16.6215 75.1369 16.6875 75.0726 16.6875 74.9931C16.6875 74.9136 16.6215 74.875 16.5401 74.875C16.4586 74.875 16.3926 74.9137 16.3926 74.9931Z" fill="black"/>
<path fill-rule="evenodd" clip-rule="evenodd" d="M16.3987 74.8966C16.5536 74.8443 16.6905 74.854 16.8395 74.99C16.8697 75.0178 16.9225 75.0882 16.9177 75.0937C16.5691 74.7797 16.1597 75.1046 16.1505 75.1015C16.2067 75.0044 16.2948 74.9316 16.3987 74.8966Z" fill="black"/>
<path fill-rule="evenodd" clip-rule="evenodd" d="M16.6876 74.8243C16.5843 74.771 16.3857 74.7722 16.2322 74.8988C16.2007 74.9247 16.1467 74.9903 16.1514 74.9954C16.5487 74.6305 16.8577 74.9798 16.8672 74.9762C16.8628 74.9704 16.8334 74.8997 16.6876 74.8243Z" fill="black"/>
<path fill-rule="evenodd" clip-rule="evenodd" d="M18.5107 74.4879C18.62 74.4921 18.8733 74.8309 18.7609 74.7879C18.6684 74.7526 18.5228 74.6698 18.4792 74.6743C18.0854 74.7123 17.6975 74.798 17.6971 74.794C17.6903 74.7228 17.7408 74.6509 17.7766 74.5957C17.8089 74.5452 18.3188 74.4803 18.5107 74.4879Z" fill="black"/>
<path fill-rule="evenodd" clip-rule="evenodd" d="M16.2576 74.4883C16.4485 74.493 16.9657 74.5457 16.9981 74.5958C17.0338 74.6511 17.0843 74.7229 17.0775 74.7941C17.0771 74.7981 16.683 74.7124 16.2891 74.6744C16.2456 74.6702 16.1269 74.7456 16.0199 74.7883C15.8992 74.8364 16.1483 74.4856 16.2576 74.4883Z" fill="black"/>
<path d="M15.3563 72.9589C15.3487 72.3765 15.7962 71.9801 15.7962 71.9801L15.8052 72.3859C15.8144 72.3855 16.0543 71.689 16.2661 71.5605C16.6491 71.3281 16.9338 71.1204 16.9338 71.1204L16.6421 71.5732L17.2718 70.9258C17.2671 71.1097 17.2538 71.5516 17.258 71.4227C17.2868 71.266 17.3419 71.101 17.3881 70.9298C17.5164 71.3622 17.5662 71.5071 17.5662 71.4708C17.5662 71.4303 17.5662 71.3377 17.5704 71.1071L17.8909 71.5483L17.6274 71.0244C17.8764 71.3285 18.2897 71.3035 18.4672 71.6563C18.603 71.9259 18.6746 71.87 18.827 72.1225L18.5638 71.5496C18.5638 71.5496 19.2043 72.1441 19.3418 72.5491C19.3888 72.6874 19.487 72.9787 19.4339 73.6539C19.3873 74.2455 19.3986 74.3225 19.2461 74.7453C19.1933 74.9164 19.0618 75.4579 19.0606 75.4517C19.0541 75.4645 19.05 75.4697 19.0488 75.4665C19.0067 75.3577 19.0827 73.7115 19.0671 73.6723C18.993 73.4868 18.6193 73.1504 18.6068 73.1428C18.5146 73.0863 17.9573 73.0579 17.3978 73.0577C16.8383 73.0574 16.2809 73.0863 16.1887 73.1428C16.1764 73.1506 15.8027 73.4868 15.7284 73.6723C15.7128 73.7115 15.7415 75.4645 15.7349 75.4517C15.7341 75.4568 15.7328 75.4617 15.7311 75.4665C15.7266 75.4783 15.6028 74.9164 15.5495 74.7453C15.3158 74.0977 15.3677 73.8289 15.3563 72.9589Z" fill="black"/>
<path fill-rule="evenodd" clip-rule="evenodd" d="M12.8949 78.9728V79.1021C12.9814 79.0692 13.0735 79.0358 13.1714 79.0019C13.3093 78.9542 13.5403 78.8824 13.7849 78.8064C14.0219 78.7327 14.2716 78.6551 14.4615 78.5917C14.479 78.5859 14.5367 78.6472 14.6276 78.7439C14.8128 78.9407 15.1355 79.2837 15.536 79.5024C15.8873 79.6942 16.2962 79.8234 16.7547 79.8805C16.9433 79.9037 17.1331 79.9152 17.3231 79.915C17.563 79.9145 17.8026 79.8979 18.0403 79.865C18.4392 79.8107 18.8354 79.7123 19.1861 79.5806C19.521 79.4549 19.7618 79.2958 19.9301 79.1503C20.1432 78.9818 20.293 78.8101 20.3871 78.7023C20.45 78.6301 20.488 78.5866 20.5034 78.5917C20.6931 78.655 20.9424 78.7325 21.1791 78.8061C21.424 78.8823 21.6555 78.9543 21.7934 79.0019L21.8032 79.0053V78.8619C21.4182 78.7186 20.2473 78.2869 20.2473 78.2869C20.2473 78.2869 20.1027 78.1246 19.9389 78.0233L19.8125 77.9453L19.811 77.9443C19.8134 77.9523 19.8307 78.1216 19.8291 78.1383C19.729 78.5775 18.9498 79.184 17.6892 79.185L17.4827 79.1898L17.2762 79.185C16.0156 79.184 15.1841 78.6307 15.1363 78.1383C15.1347 78.1218 15.152 77.9527 15.1544 77.9443L15.1504 77.9467H15.1499L15.0432 78.0127C14.881 78.1128 14.7312 78.2865 14.7312 78.2865C14.7312 78.2865 13.5231 78.7269 13.1507 78.8658C13.0792 78.8924 12.9919 78.9289 12.8949 78.9728ZM19.1635 79.519C19.2819 79.4748 19.3971 79.4222 19.508 79.3617C19.6346 79.2787 19.7538 79.185 19.8644 79.0816C20.1739 78.7941 20.2082 78.4726 20.2082 78.4726C20.2082 78.4726 20.0875 78.3075 19.9523 78.2186C19.8745 78.7225 19.0082 79.2748 17.7067 79.2756C17.7044 79.2756 17.6586 79.2766 17.6039 79.2779L17.6037 79.2779L17.6033 79.2779L17.489 79.2805L17.3746 79.2779L17.3742 79.2779L17.374 79.2779L17.3737 79.2779L17.3734 79.2779C17.319 79.2766 17.2736 79.2756 17.2714 79.2756C15.9627 79.2745 15.0952 78.7162 15.0242 78.2103C14.8779 78.3043 14.7759 78.4622 14.7759 78.4622C14.7759 78.4622 14.7914 78.794 15.101 79.0815C15.2231 79.1946 15.3364 79.291 15.4411 79.3705C16.5512 80.0696 18.1559 79.8973 19.1635 79.519Z" fill="black"/>
</g>
<rect x="7.31641" y="84.5928" width="37.9627" height="7.33946" fill="white"/>
</g>
<rect x="8.3273" y="42.3273" width="35.9381" height="48.0861" rx="2.27776" stroke="#E5613E" stroke-width="0.50617"/>
<path d="M16.4258 47.8955H38.1911V49.1609H16.4258V47.8955Z" fill="#C4C4C4"/>
<path d="M16.4258 49.9202H38.1911V51.1856H16.4258V49.9202Z" fill="#C4C4C4"/>
<path d="M16.4258 51.9449H38.1911V53.2103H16.4258V51.9449Z" fill="#C4C4C4"/>
<path d="M24.7776 69.4077H38.1911V70.6731H24.7776V69.4077Z" fill="#C4C4C4"/>
<path d="M24.7776 71.4324H38.1911V72.6978H24.7776V71.4324Z" fill="#C4C4C4"/>
<path d="M24.7776 73.4571H38.1911V74.7225H24.7776V73.4571Z" fill="#C4C4C4"/>
<path d="M24.7776 75.4818H35.4071V76.7472H24.7776V75.4818Z" fill="#C4C4C4"/>
<path d="M24.7776 77.5064H35.4071V78.7719H24.7776V77.5064Z" fill="#C4C4C4"/>
<path d="M32.6232 56.7535H38.1911V58.0189H32.6232V56.7535Z" fill="#C4C4C4"/>
<path d="M32.6232 58.7782H38.1911V60.0436H32.6232V58.7782Z" fill="#C4C4C4"/>
<path fill-rule="evenodd" clip-rule="evenodd" d="M27.308 62.8269C29.4046 62.8269 31.1043 61.1273 31.1043 59.0306C31.1043 56.934 29.4046 55.2344 27.308 55.2344C25.2114 55.2344 23.5117 56.934 23.5117 59.0306C23.5117 61.1273 25.2114 62.8269 27.308 62.8269ZM27.308 62.0677C28.9853 62.0677 30.345 60.7079 30.345 59.0306C30.345 57.3533 28.9853 55.9936 27.308 55.9936C25.6307 55.9936 24.271 57.3533 24.271 59.0306C24.271 60.7079 25.6307 62.0677 27.308 62.0677Z" fill="#C4C4C4"/>
<circle cx="27.3098" cy="59.0305" r="2.02468" fill="#C4C4C4"/>
<path d="M9.26214 62.5178L7.48438 61.6289V79.1103L8.96585 79.9992V75.5547V70.814L9.26214 66.3696V62.5178Z" fill="#F2F2F2"/>
<path d="M12.8807 90.6594L13.9076 110.481M-0.8125 110.823C-0.127842 107.628 2.81619 95.5889 3.63778 93.398L4.66476 89.9747C4.66476 89.6323 4.66476 88.7423 4.66476 87.9207C4.66476 86.8937 2.26846 84.4974 1.5838 83.1281C0.899145 81.7588 0.556816 77.9932 0.556816 75.9392C0.556816 73.8852 1.92613 71.8312 2.26846 70.1196C2.61079 68.4079 3.98011 65.6693 4.66476 63.273C5.21249 61.356 7.17518 61.5614 8.08806 61.9037C9.22915 62.4742 11.6483 63.8207 12.196 64.6423C12.8807 65.6693 12.8807 67.7233 11.169 67.0386C9.45737 66.354 7.74573 65.6693 6.71874 65.327M6.71874 65.327C5.69175 64.9847 4.52102 65.327 3.98011 66.0116M6.71874 65.327C7.62569 65.9041 9.25944 66.9698 10.3028 67.7233C10.7035 68.0126 11.017 68.256 11.169 68.4079C11.8537 69.0926 13.9076 72.1736 13.9076 72.8582C13.9076 73.5429 13.223 74.2275 11.169 72.8582C9.52584 71.7628 9.11504 71.0325 9.11504 70.8042L5.34942 69.7773M8.08806 87.236C7.85984 87.4643 7.12953 87.7838 6.03408 87.236" stroke="black" stroke-width="0.592589"/>
<path d="M3.98153 79.7045C4.7803 79.248 6.37784 78.2667 6.37784 77.9928C7.40482 78.6775 10.4858 81.0738 11.5128 81.0738C12.5398 81.0738 12.8821 79.7045 11.8551 77.9928M11.8551 77.9928C13.9091 78.6775 14.5937 77.6505 13.2244 75.9389C11.8551 74.2272 7.74715 70.8039 7.06249 70.4616C6.37784 70.1193 4.32386 69.0923 3.29688 70.8039M11.8551 77.9928L8.08948 74.9119C7.51893 74.7977 6.17244 74.5011 5.35085 74.2272C4.80312 75.0488 4.20975 75.4824 3.98153 75.5965" stroke="black" stroke-width="0.592589"/>
<path d="M105.425 114.567C106.108 112.278 106.453 103.023 106.747 101.269C107.04 99.5159 100.031 87.5298 100.182 77.6417C99.9399 73.696 96.8741 65.0668 95.6607 57.9605C94.4463 50.8482 94.2526 48.4126 93.5721 45.2948C92.8916 42.177 91.3841 36.8182 89.9717 36.2817C88.5594 35.7452 87.974 37.4498 88.8002 41.4932C89.6264 45.5365 90.4046 48.0698 90.061 53.7201C87.3828 51.7704 84.2179 49.1386 83.0978 48.651C81.9776 48.1633 73.1127 47.2824 72.1872 47.4281C71.2616 47.5738 72.4786 49.2792 73.7932 50.4002C75.1079 51.5211 79.6869 51.0849 81.0504 51.9136C82.4139 52.7423 84.9455 55.5687 85.0912 56.4943C85.2369 57.4198 81.1464 54.9337 79.1007 54.5918C77.4642 54.3182 72.2164 54.4424 69.7971 54.5387C69.7479 55.4317 70.2341 57.3154 72.5721 57.7062C75.4945 58.1947 76.42 58.049 77.589 58.2444C78.5242 58.4007 81.6472 60.3246 83.0919 61.267L82.8965 62.4359L78.5129 61.7032C76.8763 61.4297 73.7065 62.3017 72.3262 62.772C72.1148 63.4376 72.1693 64.7885 74.0788 64.8673C76.4655 64.9659 76.271 64.3326 78.0244 64.6256C79.4272 64.8601 81.0114 65.926 81.6281 66.4296C81.9033 68.3781 83.6612 72.9578 88.492 75.6878C89.7544 84.3101 86.8733 99.75 87.7475 105.303C88.0648 107.319 88.8437 109.649 89.917 111.834M72.183 63.6287C71.6993 63.0674 71.4244 62.325 71.4698 61.5268L71.6954 57.5593M89.6093 45.2333L89.1523 53.2678M90.117 36.306L90.3888 31.5272C90.4817 29.8934 89.2326 28.4937 87.5989 28.4008L76.3579 27.7614C74.7241 27.6685 73.3244 28.9176 73.2314 30.5514L72.2708 47.4421M79.1747 64.9328L76.2221 64.6248M71.8646 54.5839L72.2031 48.6324M78.6729 31.9899C78.511 32.9583 77.5948 33.6121 76.6264 33.4502C75.658 33.2884 75.0042 32.3721 75.166 31.4037C75.3279 30.4353 76.2441 29.7815 77.2125 29.9434C78.1809 30.1052 78.8348 31.0215 78.6729 31.9899Z" stroke="black" stroke-width="0.592589"/>
</g>
</svg>
