<svg width="26" height="23" viewBox="0 0 26 23" fill="none" xmlns="http://www.w3.org/2000/svg">
<path fill-rule="evenodd" clip-rule="evenodd" d="M22.047 21.4918L22.0479 21.4896L22.0707 21.4322L26 1.48544V1.42065C26 0.923668 25.8176 0.489801 25.4208 0.229555C25.0734 0.00176037 24.6741 -0.0144625 24.3941 0.00693747C24.0979 0.02957 23.8187 0.103999 23.6253 0.165955C23.5259 0.197828 23.4426 0.22854 23.3831 0.251769C23.3532 0.263427 23.329 0.27332 23.3114 0.28069L23.2941 0.288022L1.38633 8.94128L1.3803 8.94346C1.36847 8.9478 1.35282 8.95367 1.33392 8.96108C1.29625 8.97585 1.24496 8.99698 1.18472 9.02447C1.06642 9.07845 0.902982 9.16176 0.737227 9.27605C0.455708 9.47016 -0.0803499 9.92971 0.0101677 10.6583C0.0851433 11.2617 0.498281 11.645 0.776808 11.8434C0.926114 11.9498 1.06895 12.0265 1.17355 12.0766C1.22655 12.102 1.27157 12.1215 1.30509 12.1352C1.3219 12.1421 1.33596 12.1476 1.34683 12.1518L1.36075 12.157L1.36965 12.1604L5.20256 13.4596C5.18963 13.7018 5.21348 13.9486 5.27725 14.1922L7.1972 21.5255C7.42484 22.395 8.20607 23.0007 9.09913 23C9.89962 22.9994 10.6096 22.5118 10.9112 21.7843L13.9087 18.5572L19.0568 22.5313L19.13 22.5634C19.5977 22.7689 20.0347 22.834 20.4343 22.7791C20.8332 22.7242 21.1503 22.5558 21.3884 22.3639C21.6228 22.1751 21.7834 21.962 21.8844 21.8016C21.9357 21.7201 21.974 21.6485 22.0005 21.5946C22.0139 21.5675 22.0244 21.5446 22.0322 21.5267L22.0421 21.5038L22.0456 21.4953L22.047 21.4918ZM7.1777 13.6878C7.13406 13.5211 7.20256 13.3452 7.34707 13.2528L20.3478 4.93991C20.3478 4.93991 21.1124 4.47249 21.0851 4.93991C21.0851 4.93991 21.2216 5.02246 20.8118 5.40734C20.4232 5.77288 11.5459 14.4026 10.6476 15.2758C10.5958 15.3262 10.5648 15.384 10.5466 15.4542L9.09764 21.021L7.1777 13.6878Z" fill="white"/>
</svg>
