<svg width="29" height="29" viewBox="0 0 29 29" fill="none" xmlns="http://www.w3.org/2000/svg">
<g clip-path="url(#clip0_314_3212)">
<path d="M14.5001 27.9914C21.9513 27.9914 27.9917 21.951 27.9917 14.4999C27.9917 7.04868 21.9513 1.0083 14.5001 1.0083C7.04892 1.0083 1.00854 7.04868 1.00854 14.4999C1.00854 21.951 7.04892 27.9914 14.5001 27.9914Z" fill="#21CA50"/>
<path d="M14.5001 25.7985C20.7403 25.7985 25.799 20.7398 25.799 14.4996C25.799 8.25938 20.7403 3.20068 14.5001 3.20068C8.25987 3.20068 3.20117 8.25938 3.20117 14.4996C3.20117 20.7398 8.25987 25.7985 14.5001 25.7985Z" fill="white"/>
<path d="M14.5002 28.54C10.75 28.54 7.22425 27.0796 4.57239 24.4277C1.92064 21.7759 0.460205 18.2502 0.460205 14.5C0.460205 10.7497 1.92064 7.22401 4.57239 4.5722C7.22425 1.92034 10.75 0.459961 14.5002 0.459961C18.2504 0.459961 21.7762 1.92034 24.428 4.5722C27.0798 7.22401 28.5402 10.7497 28.5402 14.5C28.5402 18.2502 27.0798 21.7759 24.428 24.4277C21.7762 27.0796 18.2504 28.54 14.5002 28.54ZM14.5002 1.55684C7.36333 1.55684 1.55708 7.36309 1.55708 14.5C1.55708 21.6368 7.36333 27.4431 14.5002 27.4431C21.6371 27.4431 27.4433 21.6368 27.4433 14.5C27.4433 7.36309 21.6371 1.55684 14.5002 1.55684Z" fill="#454B60"/>
<path d="M25.5935 12.9009C25.3358 12.9009 25.106 12.7184 25.0555 12.456C24.3848 8.97074 22.0343 6.04549 18.7679 4.6309C18.4899 4.51057 18.3622 4.18765 18.4825 3.90971C18.6029 3.63181 18.9258 3.50403 19.2037 3.62441C22.8032 5.18318 25.3933 8.40722 26.1326 12.2488C26.1898 12.5462 25.9951 12.8337 25.6977 12.8909C25.6627 12.8977 25.6278 12.9009 25.5935 12.9009Z" fill="#454B60"/>
<path d="M16.9276 4.01197C16.888 4.01197 16.8479 4.0077 16.8076 3.9987L16.8012 3.99728C16.5051 3.93349 16.3168 3.64178 16.3806 3.34568C16.4443 3.04952 16.7362 2.86119 17.0322 2.92503L17.0465 2.92815C17.3422 2.99413 17.5284 3.28722 17.4624 3.58288C17.4054 3.83823 17.1788 4.01197 16.9276 4.01197Z" fill="#454B60"/>
<path d="M10.1443 25.4765C10.0738 25.4765 10.0021 25.4628 9.93297 25.4339C8.15164 24.6889 6.56057 23.5025 5.3318 22.0026C4.08865 20.4852 3.23655 18.6693 2.86739 16.7513C2.81019 16.4539 3.00489 16.1664 3.30236 16.1092C3.60016 16.0517 3.88732 16.2467 3.94453 16.5441C4.62552 20.0829 7.02236 23.0279 10.3561 24.422C10.6356 24.5388 10.7674 24.8601 10.6505 25.1395C10.5626 25.3498 10.3588 25.4765 10.1443 25.4765Z" fill="#454B60"/>
<path d="M12.084 26.0874C12.0454 26.0874 12.0061 26.0833 11.9668 26.0747L11.9284 26.0663C11.6327 26.0006 11.4463 25.7076 11.512 25.412C11.5777 25.1163 11.8709 24.9299 12.1663 24.9956L12.2002 25.003C12.4961 25.0675 12.6838 25.3596 12.6194 25.6556C12.5635 25.9122 12.3364 26.0874 12.084 26.0874Z" fill="#454B60"/>
<path d="M16.6471 26.1426C16.3894 26.1426 16.1596 25.9602 16.1091 25.6977C16.0519 25.4003 16.2466 25.1128 16.5441 25.0556C20.767 24.2429 24.0873 21.0024 25.003 16.8C25.0676 16.5041 25.36 16.3163 25.6556 16.3809C25.9516 16.4454 26.1392 16.7375 26.0748 17.0335C25.5822 19.2941 24.4422 21.3483 22.7781 22.9741C21.1115 24.6024 19.0274 25.6947 16.7513 26.1326C16.7164 26.1394 16.6814 26.1426 16.6471 26.1426Z" fill="#454B60"/>
<path d="M3.4617 12.6324C3.42303 12.6324 3.38371 12.6283 3.34439 12.6197C3.04845 12.5552 2.86083 12.2631 2.92527 11.9672C3.41782 9.70655 4.55781 7.65232 6.22187 6.02648C7.88852 4.39817 9.97258 3.30596 12.2487 2.86797C12.5462 2.81044 12.8337 3.00547 12.8909 3.30288C12.9481 3.6003 12.7534 3.88785 12.456 3.94505C8.23311 4.75767 4.91275 7.99817 3.99703 12.2006C3.94114 12.4572 3.71403 12.6324 3.4617 12.6324Z" fill="#454B60"/>
<path d="M14.5001 15.8161C15.227 15.8161 15.8163 15.2268 15.8163 14.4998C15.8163 13.7729 15.227 13.1836 14.5001 13.1836C13.7731 13.1836 13.1838 13.7729 13.1838 14.4998C13.1838 15.2268 13.7731 15.8161 14.5001 15.8161Z" fill="#E5613E"/>
<path d="M14.5079 4.98011C14.2051 4.98011 13.9595 4.73458 13.9595 4.43167V3.20273C13.9595 2.89983 14.2051 2.6543 14.5079 2.6543C14.8108 2.6543 15.0564 2.89983 15.0564 3.20273V4.43167C15.0564 4.73458 14.8108 4.98011 14.5079 4.98011Z" fill="#454B60"/>
<path d="M14.4918 26.3466C14.1889 26.3466 13.9434 26.1011 13.9434 25.7982V24.1783C13.9434 23.8754 14.1889 23.6299 14.4918 23.6299C14.7946 23.6299 15.0402 23.8754 15.0402 24.1783V25.7982C15.0402 26.1011 14.7946 26.3466 14.4918 26.3466Z" fill="#454B60"/>
<path d="M25.798 15.0568H24.3172C24.0144 15.0568 23.7688 14.8113 23.7688 14.5084C23.7688 14.2055 24.0144 13.96 24.3172 13.96H25.798C26.1009 13.96 26.3465 14.2055 26.3465 14.5084C26.3465 14.8113 26.1009 15.0568 25.798 15.0568Z" fill="#454B60"/>
<path d="M4.79272 15.0402H3.20225C2.8994 15.0402 2.65381 14.7947 2.65381 14.4918C2.65381 14.1889 2.8994 13.9434 3.20225 13.9434H4.79272C5.09556 13.9434 5.34115 14.1889 5.34115 14.4918C5.34115 14.7947 5.09556 15.0402 4.79272 15.0402Z" fill="#454B60"/>
<path d="M14.5001 16.365C13.4719 16.365 12.6354 15.5285 12.6354 14.5003C12.6354 13.4721 13.4719 12.6356 14.5001 12.6356C15.5283 12.6356 16.3648 13.4721 16.3648 14.5003C16.3648 15.5285 15.5283 16.365 14.5001 16.365ZM14.5001 13.7325C14.0767 13.7325 13.7323 14.0769 13.7323 14.5003C13.7323 14.9237 14.0767 15.2681 14.5001 15.2681C14.9235 15.2681 15.2679 14.9237 15.2679 14.5003C15.2679 14.0769 14.9235 13.7325 14.5001 13.7325Z" fill="#454B60"/>
<path d="M13.1838 15.0487H10.6793C10.3764 15.0487 10.1309 14.8032 10.1309 14.5003C10.1309 14.1974 10.3764 13.9519 10.6793 13.9519H13.1838C13.4867 13.9519 13.7323 14.1974 13.7323 14.5003C13.7323 14.8032 13.4867 15.0487 13.1838 15.0487Z" fill="#454B60"/>
<path d="M14.5001 13.7325C14.1973 13.7325 13.9517 13.4869 13.9517 13.184V8.04697C13.9517 7.74407 14.1973 7.49854 14.5001 7.49854C14.8029 7.49854 15.0485 7.74407 15.0485 8.04697V13.184C15.0485 13.4869 14.8029 13.7325 14.5001 13.7325Z" fill="#454B60"/>
</g>
<defs>
<clipPath id="clip0_314_3212">
<rect width="28.08" height="28.08" fill="white" transform="translate(0.460205 0.459961)"/>
</clipPath>
</defs>
</svg>
