<svg width="24" height="26" viewBox="0 0 24 26" fill="none" xmlns="http://www.w3.org/2000/svg">
<path fill-rule="evenodd" clip-rule="evenodd" d="M18.0998 0.66982C14.0828 -0.223273 9.91719 -0.223273 5.90025 0.669819L5.46739 0.766057C3.16311 1.27837 1.34443 3.03628 0.76364 5.31263C-0.254547 9.30334 -0.254547 13.4838 0.76364 17.4745C1.31843 19.649 3.00276 21.3503 5.16092 21.9449L5.75419 25.4699C5.7926 25.6981 5.95285 25.8875 6.17241 25.9642C6.39197 26.0408 6.63607 25.9925 6.80948 25.8382L10.296 22.7354C12.9062 22.894 15.5333 22.6879 18.0998 22.1173L18.5326 22.0211C20.8369 21.5088 22.6556 19.7509 23.2364 17.4745C24.2545 13.4838 24.2545 9.30334 23.2364 5.31263C22.6556 3.03628 20.8369 1.27837 18.5326 0.766058L18.0998 0.66982ZM6.97714 5.20897C6.73998 5.1745 6.4981 5.22185 6.29176 5.34314H6.27417C5.79512 5.62244 5.36358 5.97545 4.99557 6.38904C4.68975 6.74073 4.52385 7.09658 4.48028 7.43911C4.4543 7.64329 4.4719 7.84747 4.53306 8.04248L4.55485 8.05581C4.89921 9.06254 5.34915 10.0309 5.8988 10.9427C6.60682 12.2235 7.47815 13.4081 8.49118 14.467L8.52135 14.5104L8.56911 14.5454L8.59927 14.5804L8.63446 14.6104C9.70294 15.6209 10.8968 16.4917 12.187 17.2014C13.6617 17.9998 14.5566 18.3773 15.0936 18.534V18.5423C15.2512 18.5898 15.3944 18.6115 15.5385 18.6115C15.9963 18.5781 16.4296 18.3933 16.7694 18.0864C17.1833 17.7203 17.5343 17.2893 17.8083 16.8105V16.8022C18.0656 16.3205 17.9784 15.8646 17.6073 15.5563C16.8639 14.91 16.0601 14.3359 15.2067 13.842C14.6353 13.5337 14.0547 13.7203 13.8192 14.0329L13.3173 14.6621C13.0601 14.9746 12.5926 14.9312 12.5926 14.9312L12.5792 14.9396C9.09278 14.0537 8.16274 10.5426 8.16274 10.5426C8.16274 10.5426 8.11917 10.0651 8.44175 9.82176L9.07015 9.31839C9.37095 9.07504 9.58042 8.49834 9.25784 7.92914C8.76466 7.07921 8.1888 6.27949 7.53852 5.54149C7.39636 5.3675 7.19692 5.24913 6.97547 5.2073L6.97714 5.20897ZM12.8688 3.68276C12.5162 3.68276 12.2304 3.96704 12.2304 4.31772C12.2304 4.6684 12.5162 4.95268 12.8688 4.95268C14.4832 4.95268 15.8247 5.47756 16.8845 6.48262C17.4301 7.033 17.8547 7.68447 18.1335 8.39739C18.4134 9.11299 18.5407 9.87605 18.508 10.6404C18.4931 10.9907 18.7665 11.2868 19.1187 11.3017C19.471 11.3166 19.7687 11.0447 19.7836 10.6943C19.8238 9.754 19.6672 8.81584 19.3234 7.937C18.9797 7.05819 18.4566 6.25737 17.7862 5.58317L17.7734 5.57096C16.4584 4.32006 14.7915 3.68276 12.8688 3.68276ZM12.8253 5.77093C12.4728 5.77093 12.187 6.05521 12.187 6.40589C12.187 6.75657 12.4728 7.04085 12.8253 7.04085H12.8462C14.0111 7.1225 14.8588 7.50874 15.4531 8.14273C16.0615 8.79568 16.3767 9.60669 16.3533 10.6101C16.3452 10.9607 16.6243 11.2515 16.9768 11.2596C17.3292 11.2677 17.6216 10.9901 17.6297 10.6395C17.6604 9.32199 17.2344 8.18588 16.3889 7.27873L16.3877 7.27754C15.5238 6.35547 14.3387 5.86768 12.9109 5.77235L12.8895 5.77093H12.8253ZM12.8012 7.89722C12.4491 7.87879 12.1487 8.14773 12.1301 8.49793C12.1116 8.84812 12.382 9.14695 12.7341 9.16539C13.2686 9.19337 13.6093 9.35283 13.8235 9.56801C14.0387 9.78411 14.1997 10.1301 14.229 10.6727C14.248 11.0229 14.5487 11.2915 14.9008 11.2726C15.2528 11.2538 15.5229 10.9547 15.5039 10.6045C15.4627 9.8425 15.223 9.16884 14.7307 8.67442C14.2375 8.17907 13.5641 7.93717 12.8012 7.89722Z" fill="white"/>
</svg>
