<svg width="69" height="22" viewBox="0 0 69 22" fill="none" xmlns="http://www.w3.org/2000/svg">
<path fill-rule="evenodd" clip-rule="evenodd" d="M24.1357 20.954H29.6799L33.15 0.60498H27.6037L24.1357 20.954Z" fill="#282735"/>
<path fill-rule="evenodd" clip-rule="evenodd" d="M44.3338 8.7755C42.3958 7.83412 41.2079 7.20513 41.2207 6.25313C41.2207 5.40738 42.2258 4.50213 44.3976 4.50213C46.1741 4.4745 47.6063 4.83575 49.0471 5.51575L49.7993 1.10425C48.7007 0.692 46.9794 0.25 44.8289 0.25C39.3486 0.25 35.4874 3.01038 35.4556 6.965C35.4237 9.889 38.2117 11.521 40.3154 12.4942C42.4744 13.4909 43.2012 14.1284 43.1906 15.0187C43.1778 16.383 41.4672 17.0056 39.8713 17.0056C37.4106 17.0056 36.1696 16.6252 33.9362 15.6138L33.1584 20.1697C34.4547 20.7371 36.8496 21.2301 39.3379 21.2556C45.1689 21.2556 48.9536 18.5271 48.9961 14.3026C49.0109 11.9885 47.5341 10.2269 44.3338 8.7755Z" fill="#282735"/>
<path fill-rule="evenodd" clip-rule="evenodd" d="M64.0198 0.624023H59.7337C58.4055 0.624023 57.4132 0.987398 56.8288 2.31127L48.5923 20.9603H54.4169C54.4169 20.9603 55.3689 18.4528 55.5857 17.9024C56.2232 17.9024 61.8799 17.9109 62.6895 17.9109C62.8553 18.6228 63.3653 20.9603 63.3653 20.9603H68.512L64.0198 0.624023ZM57.1815 13.7416C57.411 13.1551 59.6742 7.34327 60.1268 6.11077C60.8769 9.61915 60.1459 6.2149 61.7864 13.7416H57.1815Z" fill="#282735"/>
<path fill-rule="evenodd" clip-rule="evenodd" d="M19.4841 0.619684L14.0526 14.4959L13.4746 11.6761L11.5303 2.32393C11.1945 1.03618 10.2212 0.651559 9.01637 0.606934H0.070125L0 1.02981C2.176 1.55681 4.12038 2.31756 5.82675 3.26106L10.7589 20.9347L16.6281 20.9283L25.3598 0.617559H19.4841V0.619684Z" fill="#282735"/>
</svg>
