<svg width="27" height="26" viewBox="0 0 27 26" fill="none" xmlns="http://www.w3.org/2000/svg">
    <path d="M10.4591 7.1453L10.4595 7.14598C10.6364 7.52718 10.9306 8.21968 11.1663 8.77472L11.17 8.78335C11.2628 9.00184 11.3467 9.19934 11.4121 9.35143C11.4449 9.42753 11.4724 9.49088 11.4938 9.5391C11.5046 9.56323 11.5132 9.58247 11.52 9.59702C11.5274 9.61312 11.5301 9.61829 11.5294 9.61693M10.4591 7.1453L11.5588 10.6598C11.7748 10.2319 11.6541 9.85699 11.5294 9.61693M10.4591 7.1453C10.3022 6.8086 10.1084 6.56491 9.85294 6.42176C9.6091 6.28512 9.37058 6.27921 9.2458 6.27612C9.24233 6.27603 9.23895 6.27595 9.23567 6.27587C9.02686 6.26923 8.78627 6.26924 8.55588 6.26924H8.55062C8.20671 6.26924 7.69095 6.39078 7.25763 6.84249C7.24052 6.86033 7.22114 6.88013 7.19773 6.90405L7.19772 6.90406C6.80966 7.30055 5.89781 8.2345 5.89781 9.99583C5.89781 10.9268 6.24338 11.8132 6.59049 12.4764C6.94125 13.1465 7.31771 13.6335 7.42317 13.7699L7.42326 13.77L7.4233 13.77L7.43045 13.7793C7.43035 13.7792 7.43041 13.7792 7.43066 13.7796C7.43169 13.781 7.43607 13.7869 7.44578 13.8006L7.4879 13.8606L7.89755 13.574M10.4591 7.1453L7.89755 13.574M11.5294 9.61693C11.5293 9.61689 11.5293 9.61685 11.5293 9.61681L11.0856 9.84736L11.5294 9.61693ZM7.89755 13.574L7.48791 13.8606L7.49335 13.8684C7.94289 14.5108 10.185 17.7149 13.6172 19.0197C14.9667 19.5332 15.8564 19.778 16.4981 19.882C17.1575 19.989 17.544 19.9449 17.8605 19.9079C17.924 19.9004 17.9783 19.8941 18.0319 19.8892L7.89755 13.574ZM7.27363 23.9623C7.16468 23.9052 7.03852 23.8903 6.91927 23.9204L0.673106 25.4977C0.658724 25.5013 0.64939 25.5001 0.642984 25.4982C0.635289 25.4961 0.627996 25.4918 0.622388 25.4863C0.617766 25.4817 0.616093 25.4782 0.615637 25.4771C0.615715 25.4764 0.615933 25.4751 0.616527 25.473L2.28486 19.6186C2.32273 19.4857 2.30393 19.3431 2.23293 19.2246C1.09629 17.3273 0.49919 15.1773 0.500001 12.9901V12.9899C0.500001 6.12132 6.3203 0.5 13.4999 0.5C16.9879 0.5 20.2497 1.80674 22.7032 4.16749C25.1554 6.52721 26.5 9.66317 26.5 12.9964C26.5 19.8649 20.6797 25.4862 13.5 25.4862H13.4933C11.3137 25.4862 9.1735 24.9571 7.27363 23.9623ZM11.5216 10.7342L11.5588 10.6598L20.5483 16.1906L20.9745 15.9291C20.9744 15.9291 20.9744 15.929 20.9744 15.929C20.8757 15.7683 20.7335 15.67 20.6286 15.6081C20.5265 15.5478 20.4049 15.4915 20.295 15.4405L20.2811 15.4341C20.2211 15.4062 20.1597 15.3778 20.0945 15.3464L20.0944 15.3464C19.9179 15.2614 19.3996 15.0153 18.8849 14.7758C18.3843 14.5428 17.8477 14.2974 17.66 14.2297L17.6599 14.2296C17.509 14.1752 17.2652 14.0882 17.0061 14.1177C16.6961 14.153 16.4648 14.3339 16.2943 14.5835C16.0791 14.89 15.4371 15.6142 15.2257 15.8516L15.2257 15.8516C15.2171 15.8612 15.2101 15.8683 15.2046 15.8735C15.2025 15.8731 15.2003 15.8726 15.1979 15.872C15.1696 15.865 15.1247 15.8496 15.0579 15.8175C14.9889 15.7843 14.9012 15.7477 14.8142 15.7115L14.8043 15.7073L14.8035 15.707C14.3287 15.509 13.4147 15.1277 12.3574 14.2178L12.3566 14.217C11.3809 13.3812 10.7108 12.3357 10.5171 12.0133C10.5217 12.0084 10.5268 12.003 10.5325 11.9972C10.5482 11.9813 10.5654 11.9646 10.5872 11.9436L10.5874 11.9434C10.7033 11.8318 10.8311 11.6825 10.9389 11.5565L10.9489 11.5449L10.569 11.2197L10.9489 11.5449C11.0154 11.4672 11.077 11.3952 11.1352 11.3307L11.1353 11.3306C11.3348 11.1091 11.4251 10.9278 11.5175 10.7424L11.5216 10.7342L11.5216 10.7342Z" fill="#282735" stroke="#282735" stroke-linejoin="round"/>
</svg>
